solid OpenSCAD_Model
  facet normal -1 0 0
    outer loop
      vertex -6.5 22.4848 8.62365
      vertex -6.5 26 2.7
      vertex -6.5 22.4848 8.27635
    endloop
  endfacet
  facet normal -1 0 0
    outer loop
      vertex -6.5 26 2.7
      vertex -6.5 22.366 7.95
      vertex -6.5 22.4848 8.27635
    endloop
  endfacet
  facet normal -1 0 0
    outer loop
      vertex -6.5 26 2.7
      vertex -6.5 22.1428 7.68396
      vertex -6.5 22.366 7.95
    endloop
  endfacet
  facet normal -1 0 0
    outer loop
      vertex -6.5 26 2.7
      vertex -6.5 21.842 7.51031
      vertex -6.5 22.1428 7.68396
    endloop
  endfacet
  facet normal -1 0 0
    outer loop
      vertex -6.5 19 2.7
      vertex -6.5 21.842 7.51031
      vertex -6.5 26 2.7
    endloop
  endfacet
  facet normal -1 0 0
    outer loop
      vertex -6.5 21.842 7.51031
      vertex -6.5 19 2.7
      vertex -6.5 21.5 7.45
    endloop
  endfacet
  facet normal -1 -0 0
    outer loop
      vertex -6.5 21.5 7.45
      vertex -6.5 19 2.7
      vertex -6.5 21.158 7.51031
    endloop
  endfacet
  facet normal -1 -0 0
    outer loop
      vertex -6.5 20.5152 8.27635
      vertex -6.5 19 2.7
      vertex -6.5 20.5152 8.62365
    endloop
  endfacet
  facet normal -1 -0 0
    outer loop
      vertex -6.5 20.634 7.95
      vertex -6.5 19 2.7
      vertex -6.5 20.5152 8.27635
    endloop
  endfacet
  facet normal -1 -0 0
    outer loop
      vertex -6.5 20.8572 7.68396
      vertex -6.5 19 2.7
      vertex -6.5 20.634 7.95
    endloop
  endfacet
  facet normal -1 -0 0
    outer loop
      vertex -6.5 21.158 7.51031
      vertex -6.5 19 2.7
      vertex -6.5 20.8572 7.68396
    endloop
  endfacet
  facet normal -1 0 0
    outer loop
      vertex -6.5 26 2.7
      vertex -6.5 22.4848 8.62365
      vertex -6.5 26 14.7
    endloop
  endfacet
  facet normal -1 0 0
    outer loop
      vertex -6.5 22.366 8.95
      vertex -6.5 26 14.7
      vertex -6.5 22.4848 8.62365
    endloop
  endfacet
  facet normal -1 0 0
    outer loop
      vertex -6.5 22.1428 9.21604
      vertex -6.5 26 14.7
      vertex -6.5 22.366 8.95
    endloop
  endfacet
  facet normal -1 0 0
    outer loop
      vertex -6.5 21.842 9.38969
      vertex -6.5 26 14.7
      vertex -6.5 22.1428 9.21604
    endloop
  endfacet
  facet normal -1 0 0
    outer loop
      vertex -6.5 19 14.7
      vertex -6.5 21.842 9.38969
      vertex -6.5 21.5 9.45
    endloop
  endfacet
  facet normal -1 0 0
    outer loop
      vertex -6.5 19 14.7
      vertex -6.5 21.5 9.45
      vertex -6.5 21.158 9.38969
    endloop
  endfacet
  facet normal -1 0 0
    outer loop
      vertex -6.5 19 14.7
      vertex -6.5 21.158 9.38969
      vertex -6.5 20.8572 9.21604
    endloop
  endfacet
  facet normal -1 0 0
    outer loop
      vertex -6.5 21.842 9.38969
      vertex -6.5 19 14.7
      vertex -6.5 26 14.7
    endloop
  endfacet
  facet normal -1 0 0
    outer loop
      vertex -6.5 20.634 8.95
      vertex -6.5 19 14.7
      vertex -6.5 20.8572 9.21604
    endloop
  endfacet
  facet normal -1 0 0
    outer loop
      vertex -6.5 20.5152 8.62365
      vertex -6.5 19 14.7
      vertex -6.5 20.634 8.95
    endloop
  endfacet
  facet normal -1 0 0
    outer loop
      vertex -6.5 19 14.7
      vertex -6.5 20.5152 8.62365
      vertex -6.5 19 2.7
    endloop
  endfacet
  facet normal 0 0 1
    outer loop
      vertex -1.5 26 14.7
      vertex -3 22.5 14.7
      vertex -1.5 19 14.7
    endloop
  endfacet
  facet normal 0 0 1
    outer loop
      vertex -1.5 26 14.7
      vertex -3.06031 22.842 14.7
      vertex -3 22.5 14.7
    endloop
  endfacet
  facet normal 0 0 1
    outer loop
      vertex -1.5 26 14.7
      vertex -3.23396 23.1428 14.7
      vertex -3.06031 22.842 14.7
    endloop
  endfacet
  facet normal 0 0 1
    outer loop
      vertex -1.5 26 14.7
      vertex -3.5 23.366 14.7
      vertex -3.23396 23.1428 14.7
    endloop
  endfacet
  facet normal 0 0 1
    outer loop
      vertex -1.5 26 14.7
      vertex -3.82635 23.4848 14.7
      vertex -3.5 23.366 14.7
    endloop
  endfacet
  facet normal 0 0 1
    outer loop
      vertex -1.5 26 14.7
      vertex -4.17365 23.4848 14.7
      vertex -3.82635 23.4848 14.7
    endloop
  endfacet
  facet normal -0 0 1
    outer loop
      vertex -6.5 26 14.7
      vertex -4.17365 23.4848 14.7
      vertex -1.5 26 14.7
    endloop
  endfacet
  facet normal 0 0 1
    outer loop
      vertex -4.17365 23.4848 14.7
      vertex -6.5 26 14.7
      vertex -4.5 23.366 14.7
    endloop
  endfacet
  facet normal 0 0 1
    outer loop
      vertex -4.93969 22.842 14.7
      vertex -6.5 26 14.7
      vertex -5 22.5 14.7
    endloop
  endfacet
  facet normal 0 0 1
    outer loop
      vertex -4.76604 23.1428 14.7
      vertex -6.5 26 14.7
      vertex -4.93969 22.842 14.7
    endloop
  endfacet
  facet normal 0 0 1
    outer loop
      vertex -4.5 23.366 14.7
      vertex -6.5 26 14.7
      vertex -4.76604 23.1428 14.7
    endloop
  endfacet
  facet normal -0 0 1
    outer loop
      vertex -3.06031 22.158 14.7
      vertex -1.5 19 14.7
      vertex -3 22.5 14.7
    endloop
  endfacet
  facet normal -0 0 1
    outer loop
      vertex -3.23396 21.8572 14.7
      vertex -1.5 19 14.7
      vertex -3.06031 22.158 14.7
    endloop
  endfacet
  facet normal -0 0 1
    outer loop
      vertex -3.5 21.634 14.7
      vertex -1.5 19 14.7
      vertex -3.23396 21.8572 14.7
    endloop
  endfacet
  facet normal -0 0 1
    outer loop
      vertex -3.82635 21.5152 14.7
      vertex -1.5 19 14.7
      vertex -3.5 21.634 14.7
    endloop
  endfacet
  facet normal -0 0 1
    outer loop
      vertex -4.17365 21.5152 14.7
      vertex -1.5 19 14.7
      vertex -3.82635 21.5152 14.7
    endloop
  endfacet
  facet normal 0 0 1
    outer loop
      vertex -6.5 19 14.7
      vertex -4.17365 21.5152 14.7
      vertex -4.5 21.634 14.7
    endloop
  endfacet
  facet normal 0 0 1
    outer loop
      vertex -6.5 19 14.7
      vertex -4.5 21.634 14.7
      vertex -4.76604 21.8572 14.7
    endloop
  endfacet
  facet normal 0 0 1
    outer loop
      vertex -6.5 19 14.7
      vertex -5 22.5 14.7
      vertex -6.5 26 14.7
    endloop
  endfacet
  facet normal 0 0 1
    outer loop
      vertex -4.17365 21.5152 14.7
      vertex -6.5 19 14.7
      vertex -1.5 19 14.7
    endloop
  endfacet
  facet normal 0 0 1
    outer loop
      vertex -4.93969 22.158 14.7
      vertex -6.5 19 14.7
      vertex -4.76604 21.8572 14.7
    endloop
  endfacet
  facet normal 0 0 1
    outer loop
      vertex -5 22.5 14.7
      vertex -6.5 19 14.7
      vertex -4.93969 22.158 14.7
    endloop
  endfacet
  facet normal 1 0 0
    outer loop
      vertex -1.5 26 14.7
      vertex -1.5 22.4848 8.62365
      vertex -1.5 26 2.7
    endloop
  endfacet
  facet normal 1 0 0
    outer loop
      vertex -1.5 26 14.7
      vertex -1.5 22.366 8.95
      vertex -1.5 22.4848 8.62365
    endloop
  endfacet
  facet normal 1 0 0
    outer loop
      vertex -1.5 26 14.7
      vertex -1.5 22.1428 9.21604
      vertex -1.5 22.366 8.95
    endloop
  endfacet
  facet normal 1 0 0
    outer loop
      vertex -1.5 26 14.7
      vertex -1.5 21.842 9.38969
      vertex -1.5 22.1428 9.21604
    endloop
  endfacet
  facet normal 1 -0 0
    outer loop
      vertex -1.5 19 14.7
      vertex -1.5 21.842 9.38969
      vertex -1.5 26 14.7
    endloop
  endfacet
  facet normal 1 0 0
    outer loop
      vertex -1.5 21.842 9.38969
      vertex -1.5 19 14.7
      vertex -1.5 21.5 9.45
    endloop
  endfacet
  facet normal 1 0 0
    outer loop
      vertex -1.5 21.5 9.45
      vertex -1.5 19 14.7
      vertex -1.5 21.158 9.38969
    endloop
  endfacet
  facet normal 1 0 0
    outer loop
      vertex -1.5 19 2.7
      vertex -1.5 20.5152 8.62365
      vertex -1.5 19 14.7
    endloop
  endfacet
  facet normal 1 0 0
    outer loop
      vertex -1.5 20.634 8.95
      vertex -1.5 19 14.7
      vertex -1.5 20.5152 8.62365
    endloop
  endfacet
  facet normal 1 0 0
    outer loop
      vertex -1.5 20.8572 9.21604
      vertex -1.5 19 14.7
      vertex -1.5 20.634 8.95
    endloop
  endfacet
  facet normal 1 0 0
    outer loop
      vertex -1.5 21.158 9.38969
      vertex -1.5 19 14.7
      vertex -1.5 20.8572 9.21604
    endloop
  endfacet
  facet normal 1 -0 0
    outer loop
      vertex -1.5 22.4848 8.27635
      vertex -1.5 26 2.7
      vertex -1.5 22.4848 8.62365
    endloop
  endfacet
  facet normal 1 -0 0
    outer loop
      vertex -1.5 22.366 7.95
      vertex -1.5 26 2.7
      vertex -1.5 22.4848 8.27635
    endloop
  endfacet
  facet normal 1 -0 0
    outer loop
      vertex -1.5 22.1428 7.68396
      vertex -1.5 26 2.7
      vertex -1.5 22.366 7.95
    endloop
  endfacet
  facet normal 1 -0 0
    outer loop
      vertex -1.5 21.842 7.51031
      vertex -1.5 26 2.7
      vertex -1.5 22.1428 7.68396
    endloop
  endfacet
  facet normal 1 0 0
    outer loop
      vertex -1.5 19 2.7
      vertex -1.5 21.842 7.51031
      vertex -1.5 21.5 7.45
    endloop
  endfacet
  facet normal 1 0 0
    outer loop
      vertex -1.5 19 2.7
      vertex -1.5 21.5 7.45
      vertex -1.5 21.158 7.51031
    endloop
  endfacet
  facet normal 1 0 0
    outer loop
      vertex -1.5 19 2.7
      vertex -1.5 21.158 7.51031
      vertex -1.5 20.8572 7.68396
    endloop
  endfacet
  facet normal 1 0 0
    outer loop
      vertex -1.5 21.842 7.51031
      vertex -1.5 19 2.7
      vertex -1.5 26 2.7
    endloop
  endfacet
  facet normal 1 0 0
    outer loop
      vertex -1.5 20.634 7.95
      vertex -1.5 19 2.7
      vertex -1.5 20.8572 7.68396
    endloop
  endfacet
  facet normal 1 0 0
    outer loop
      vertex -1.5 20.5152 8.27635
      vertex -1.5 19 2.7
      vertex -1.5 20.634 7.95
    endloop
  endfacet
  facet normal 1 0 0
    outer loop
      vertex -1.5 20.5152 8.62365
      vertex -1.5 19 2.7
      vertex -1.5 20.5152 8.27635
    endloop
  endfacet
  facet normal 0 0 -1
    outer loop
      vertex -6.5 19 2.7
      vertex -1.5 26 2.7
      vertex -1.5 19 2.7
    endloop
  endfacet
  facet normal -0 0 -1
    outer loop
      vertex -1.5 26 2.7
      vertex -6.5 19 2.7
      vertex -6.5 26 2.7
    endloop
  endfacet
  facet normal 0 -1 0
    outer loop
      vertex -6.5 19 2.7
      vertex -1.5 19 14.7
      vertex -6.5 19 14.7
    endloop
  endfacet
  facet normal 0 -1 -0
    outer loop
      vertex -1.5 19 14.7
      vertex -6.5 19 2.7
      vertex -1.5 19 2.7
    endloop
  endfacet
  facet normal 0 1 -0
    outer loop
      vertex -1.5 26 2.7
      vertex -6.5 26 14.7
      vertex -1.5 26 14.7
    endloop
  endfacet
  facet normal 0 1 0
    outer loop
      vertex -6.5 26 14.7
      vertex -1.5 26 2.7
      vertex -6.5 26 2.7
    endloop
  endfacet
  facet normal -0.984808 -0.173649 0
    outer loop
      vertex -3 22.5 9.7
      vertex -3.06031 22.842 14.7
      vertex -3.06031 22.842 9.7
    endloop
  endfacet
  facet normal -0.984808 -0.173649 0
    outer loop
      vertex -3.06031 22.842 14.7
      vertex -3 22.5 9.7
      vertex -3 22.5 14.7
    endloop
  endfacet
  facet normal 0.34202 -0.939693 0
    outer loop
      vertex -4.5 23.366 9.7
      vertex -4.17365 23.4848 14.7
      vertex -4.5 23.366 14.7
    endloop
  endfacet
  facet normal 0.34202 -0.939693 0
    outer loop
      vertex -4.17365 23.4848 14.7
      vertex -4.5 23.366 9.7
      vertex -4.17365 23.4848 9.7
    endloop
  endfacet
  facet normal -0.34202 0.939693 0
    outer loop
      vertex -3.5 21.634 9.7
      vertex -3.82635 21.5152 14.7
      vertex -3.5 21.634 14.7
    endloop
  endfacet
  facet normal -0.34202 0.939693 0
    outer loop
      vertex -3.82635 21.5152 14.7
      vertex -3.5 21.634 9.7
      vertex -3.82635 21.5152 9.7
    endloop
  endfacet
  facet normal -0.642788 0.766044 0
    outer loop
      vertex -3.23396 21.8572 9.7
      vertex -3.5 21.634 14.7
      vertex -3.23396 21.8572 14.7
    endloop
  endfacet
  facet normal -0.642788 0.766044 0
    outer loop
      vertex -3.5 21.634 14.7
      vertex -3.23396 21.8572 9.7
      vertex -3.5 21.634 9.7
    endloop
  endfacet
  facet normal -0.642786 -0.766046 0
    outer loop
      vertex -3.5 23.366 9.7
      vertex -3.23396 23.1428 14.7
      vertex -3.5 23.366 14.7
    endloop
  endfacet
  facet normal -0.642786 -0.766046 -0
    outer loop
      vertex -3.23396 23.1428 14.7
      vertex -3.5 23.366 9.7
      vertex -3.23396 23.1428 9.7
    endloop
  endfacet
  facet normal -0.866025 -0.500001 0
    outer loop
      vertex -3.06031 22.842 9.7
      vertex -3.23396 23.1428 14.7
      vertex -3.23396 23.1428 9.7
    endloop
  endfacet
  facet normal -0.866025 -0.500001 0
    outer loop
      vertex -3.23396 23.1428 14.7
      vertex -3.06031 22.842 9.7
      vertex -3.06031 22.842 14.7
    endloop
  endfacet
  facet normal -0.342019 -0.939693 0
    outer loop
      vertex -3.82635 23.4848 9.7
      vertex -3.5 23.366 14.7
      vertex -3.82635 23.4848 14.7
    endloop
  endfacet
  facet normal -0.342019 -0.939693 -0
    outer loop
      vertex -3.5 23.366 14.7
      vertex -3.82635 23.4848 9.7
      vertex -3.5 23.366 9.7
    endloop
  endfacet
  facet normal 0.866025 -0.500001 0
    outer loop
      vertex -4.93969 22.842 14.7
      vertex -4.76604 23.1428 9.7
      vertex -4.76604 23.1428 14.7
    endloop
  endfacet
  facet normal 0.866025 -0.500001 0
    outer loop
      vertex -4.76604 23.1428 9.7
      vertex -4.93969 22.842 14.7
      vertex -4.93969 22.842 9.7
    endloop
  endfacet
  facet normal 0 0 1
    outer loop
      vertex -3.06031 22.842 9.7
      vertex -3.06031 22.158 9.7
      vertex -3 22.5 9.7
    endloop
  endfacet
  facet normal 0 0 1
    outer loop
      vertex -3.23396 23.1428 9.7
      vertex -3.06031 22.158 9.7
      vertex -3.06031 22.842 9.7
    endloop
  endfacet
  facet normal 0 0 1
    outer loop
      vertex -3.23396 23.1428 9.7
      vertex -3.23396 21.8572 9.7
      vertex -3.06031 22.158 9.7
    endloop
  endfacet
  facet normal 0 0 1
    outer loop
      vertex -3.5 23.366 9.7
      vertex -3.23396 21.8572 9.7
      vertex -3.23396 23.1428 9.7
    endloop
  endfacet
  facet normal 0 0 1
    outer loop
      vertex -3.5 23.366 9.7
      vertex -3.5 21.634 9.7
      vertex -3.23396 21.8572 9.7
    endloop
  endfacet
  facet normal 0 0 1
    outer loop
      vertex -3.82635 23.4848 9.7
      vertex -3.5 21.634 9.7
      vertex -3.5 23.366 9.7
    endloop
  endfacet
  facet normal 0 0 1
    outer loop
      vertex -3.82635 23.4848 9.7
      vertex -3.82635 21.5152 9.7
      vertex -3.5 21.634 9.7
    endloop
  endfacet
  facet normal -0 0 1
    outer loop
      vertex -4.17365 23.4848 9.7
      vertex -3.82635 21.5152 9.7
      vertex -3.82635 23.4848 9.7
    endloop
  endfacet
  facet normal 0 0 1
    outer loop
      vertex -4.17365 23.4848 9.7
      vertex -4.17365 21.5152 9.7
      vertex -3.82635 21.5152 9.7
    endloop
  endfacet
  facet normal -0 0 1
    outer loop
      vertex -4.5 23.366 9.7
      vertex -4.17365 21.5152 9.7
      vertex -4.17365 23.4848 9.7
    endloop
  endfacet
  facet normal 0 0 1
    outer loop
      vertex -4.5 23.366 9.7
      vertex -4.5 21.634 9.7
      vertex -4.17365 21.5152 9.7
    endloop
  endfacet
  facet normal -0 0 1
    outer loop
      vertex -4.76604 23.1428 9.7
      vertex -4.5 21.634 9.7
      vertex -4.5 23.366 9.7
    endloop
  endfacet
  facet normal 0 0 1
    outer loop
      vertex -4.76604 23.1428 9.7
      vertex -4.76604 21.8572 9.7
      vertex -4.5 21.634 9.7
    endloop
  endfacet
  facet normal -0 0 1
    outer loop
      vertex -4.93969 22.842 9.7
      vertex -4.76604 21.8572 9.7
      vertex -4.76604 23.1428 9.7
    endloop
  endfacet
  facet normal 0 0 1
    outer loop
      vertex -4.93969 22.842 9.7
      vertex -4.93969 22.158 9.7
      vertex -4.76604 21.8572 9.7
    endloop
  endfacet
  facet normal 0 -0 1
    outer loop
      vertex -4.93969 22.158 9.7
      vertex -4.93969 22.842 9.7
      vertex -5 22.5 9.7
    endloop
  endfacet
  facet normal 0.984808 -0.173646 0
    outer loop
      vertex -5 22.5 14.7
      vertex -4.93969 22.842 9.7
      vertex -4.93969 22.842 14.7
    endloop
  endfacet
  facet normal 0.984808 -0.173646 0
    outer loop
      vertex -4.93969 22.842 9.7
      vertex -5 22.5 14.7
      vertex -5 22.5 9.7
    endloop
  endfacet
  facet normal 0.642784 -0.766047 0
    outer loop
      vertex -4.76604 23.1428 9.7
      vertex -4.5 23.366 14.7
      vertex -4.76604 23.1428 14.7
    endloop
  endfacet
  facet normal 0.642784 -0.766047 0
    outer loop
      vertex -4.5 23.366 14.7
      vertex -4.76604 23.1428 9.7
      vertex -4.5 23.366 9.7
    endloop
  endfacet
  facet normal 0 -1 0
    outer loop
      vertex -4.17365 23.4848 9.7
      vertex -3.82635 23.4848 14.7
      vertex -4.17365 23.4848 14.7
    endloop
  endfacet
  facet normal 0 -1 -0
    outer loop
      vertex -3.82635 23.4848 14.7
      vertex -4.17365 23.4848 9.7
      vertex -3.82635 23.4848 9.7
    endloop
  endfacet
  facet normal 0.984808 0.173645 0
    outer loop
      vertex -4.93969 22.158 14.7
      vertex -5 22.5 9.7
      vertex -5 22.5 14.7
    endloop
  endfacet
  facet normal 0.984808 0.173645 0
    outer loop
      vertex -5 22.5 9.7
      vertex -4.93969 22.158 14.7
      vertex -4.93969 22.158 9.7
    endloop
  endfacet
  facet normal 0.866024 0.500003 0
    outer loop
      vertex -4.76604 21.8572 14.7
      vertex -4.93969 22.158 9.7
      vertex -4.93969 22.158 14.7
    endloop
  endfacet
  facet normal 0.866024 0.500003 0
    outer loop
      vertex -4.93969 22.158 9.7
      vertex -4.76604 21.8572 14.7
      vertex -4.76604 21.8572 9.7
    endloop
  endfacet
  facet normal -0.866024 0.500003 0
    outer loop
      vertex -3.23396 21.8572 9.7
      vertex -3.06031 22.158 14.7
      vertex -3.06031 22.158 9.7
    endloop
  endfacet
  facet normal -0.866024 0.500003 0
    outer loop
      vertex -3.06031 22.158 14.7
      vertex -3.23396 21.8572 9.7
      vertex -3.23396 21.8572 14.7
    endloop
  endfacet
  facet normal -0.984808 0.173648 0
    outer loop
      vertex -3.06031 22.158 9.7
      vertex -3 22.5 14.7
      vertex -3 22.5 9.7
    endloop
  endfacet
  facet normal -0.984808 0.173648 0
    outer loop
      vertex -3 22.5 14.7
      vertex -3.06031 22.158 9.7
      vertex -3.06031 22.158 14.7
    endloop
  endfacet
  facet normal 0.342019 0.939693 -0
    outer loop
      vertex -4.17365 21.5152 9.7
      vertex -4.5 21.634 14.7
      vertex -4.17365 21.5152 14.7
    endloop
  endfacet
  facet normal 0.342019 0.939693 0
    outer loop
      vertex -4.5 21.634 14.7
      vertex -4.17365 21.5152 9.7
      vertex -4.5 21.634 9.7
    endloop
  endfacet
  facet normal 0.642789 0.766043 -0
    outer loop
      vertex -4.5 21.634 9.7
      vertex -4.76604 21.8572 14.7
      vertex -4.5 21.634 14.7
    endloop
  endfacet
  facet normal 0.642789 0.766043 0
    outer loop
      vertex -4.76604 21.8572 14.7
      vertex -4.5 21.634 9.7
      vertex -4.76604 21.8572 9.7
    endloop
  endfacet
  facet normal 0 1 -0
    outer loop
      vertex -3.82635 21.5152 9.7
      vertex -4.17365 21.5152 14.7
      vertex -3.82635 21.5152 14.7
    endloop
  endfacet
  facet normal 0 1 0
    outer loop
      vertex -4.17365 21.5152 14.7
      vertex -3.82635 21.5152 9.7
      vertex -4.17365 21.5152 9.7
    endloop
  endfacet
  facet normal 0 -0.173646 0.984808
    outer loop
      vertex -6.5 21.842 7.51031
      vertex -1.5 21.5 7.45
      vertex -1.5 21.842 7.51031
    endloop
  endfacet
  facet normal 0 -0.173646 0.984808
    outer loop
      vertex -1.5 21.5 7.45
      vertex -6.5 21.842 7.51031
      vertex -6.5 21.5 7.45
    endloop
  endfacet
  facet normal 0 -0.173649 -0.984808
    outer loop
      vertex -6.5 21.5 9.45
      vertex -1.5 21.842 9.38969
      vertex -1.5 21.5 9.45
    endloop
  endfacet
  facet normal -0 -0.173649 -0.984808
    outer loop
      vertex -1.5 21.842 9.38969
      vertex -6.5 21.5 9.45
      vertex -6.5 21.842 9.38969
    endloop
  endfacet
  facet normal 0 1 -0
    outer loop
      vertex -1.5 20.5152 8.27635
      vertex -6.5 20.5152 8.62365
      vertex -1.5 20.5152 8.62365
    endloop
  endfacet
  facet normal 0 1 0
    outer loop
      vertex -6.5 20.5152 8.62365
      vertex -1.5 20.5152 8.27635
      vertex -6.5 20.5152 8.27635
    endloop
  endfacet
  facet normal 0 0.939693 0.34202
    outer loop
      vertex -1.5 20.634 7.95
      vertex -6.5 20.5152 8.27635
      vertex -1.5 20.5152 8.27635
    endloop
  endfacet
  facet normal 0 0.939693 0.34202
    outer loop
      vertex -6.5 20.5152 8.27635
      vertex -1.5 20.634 7.95
      vertex -6.5 20.634 7.95
    endloop
  endfacet
  facet normal 0 -0.939693 0.34202
    outer loop
      vertex -6.5 22.366 7.95
      vertex -1.5 22.4848 8.27635
      vertex -6.5 22.4848 8.27635
    endloop
  endfacet
  facet normal 0 -0.939693 0.34202
    outer loop
      vertex -1.5 22.4848 8.27635
      vertex -6.5 22.366 7.95
      vertex -1.5 22.366 7.95
    endloop
  endfacet
  facet normal 0 -0.766046 -0.642786
    outer loop
      vertex -6.5 22.366 8.95
      vertex -1.5 22.1428 9.21604
      vertex -6.5 22.1428 9.21604
    endloop
  endfacet
  facet normal 0 -0.766046 -0.642786
    outer loop
      vertex -1.5 22.1428 9.21604
      vertex -6.5 22.366 8.95
      vertex -1.5 22.366 8.95
    endloop
  endfacet
  facet normal 0 -0.500001 -0.866025
    outer loop
      vertex -6.5 21.842 9.38969
      vertex -1.5 22.1428 9.21604
      vertex -1.5 21.842 9.38969
    endloop
  endfacet
  facet normal -0 -0.500001 -0.866025
    outer loop
      vertex -1.5 22.1428 9.21604
      vertex -6.5 21.842 9.38969
      vertex -6.5 22.1428 9.21604
    endloop
  endfacet
  facet normal 0 -0.939693 -0.342019
    outer loop
      vertex -6.5 22.4848 8.62365
      vertex -1.5 22.366 8.95
      vertex -6.5 22.366 8.95
    endloop
  endfacet
  facet normal 0 -0.939693 -0.342019
    outer loop
      vertex -1.5 22.366 8.95
      vertex -6.5 22.4848 8.62365
      vertex -1.5 22.4848 8.62365
    endloop
  endfacet
  facet normal 0 -0.500001 0.866025
    outer loop
      vertex -6.5 22.1428 7.68396
      vertex -1.5 21.842 7.51031
      vertex -1.5 22.1428 7.68396
    endloop
  endfacet
  facet normal 0 -0.500001 0.866025
    outer loop
      vertex -1.5 21.842 7.51031
      vertex -6.5 22.1428 7.68396
      vertex -6.5 21.842 7.51031
    endloop
  endfacet
  facet normal 0 -1 0
    outer loop
      vertex -6.5 22.4848 8.27635
      vertex -1.5 22.4848 8.62365
      vertex -6.5 22.4848 8.62365
    endloop
  endfacet
  facet normal 0 -1 -0
    outer loop
      vertex -1.5 22.4848 8.62365
      vertex -6.5 22.4848 8.27635
      vertex -1.5 22.4848 8.27635
    endloop
  endfacet
  facet normal 0 0.500003 -0.866024
    outer loop
      vertex -6.5 20.8572 9.21604
      vertex -1.5 21.158 9.38969
      vertex -1.5 20.8572 9.21604
    endloop
  endfacet
  facet normal 0 0.500003 -0.866024
    outer loop
      vertex -1.5 21.158 9.38969
      vertex -6.5 20.8572 9.21604
      vertex -6.5 21.158 9.38969
    endloop
  endfacet
  facet normal -0 0.173645 0.984808
    outer loop
      vertex -6.5 21.5 7.45
      vertex -1.5 21.158 7.51031
      vertex -1.5 21.5 7.45
    endloop
  endfacet
  facet normal 0 0.173645 0.984808
    outer loop
      vertex -1.5 21.158 7.51031
      vertex -6.5 21.5 7.45
      vertex -6.5 21.158 7.51031
    endloop
  endfacet
  facet normal 0 -0.766047 0.642784
    outer loop
      vertex -6.5 22.1428 7.68396
      vertex -1.5 22.366 7.95
      vertex -6.5 22.366 7.95
    endloop
  endfacet
  facet normal 0 -0.766047 0.642784
    outer loop
      vertex -1.5 22.366 7.95
      vertex -6.5 22.1428 7.68396
      vertex -1.5 22.1428 7.68396
    endloop
  endfacet
  facet normal 0 0.939693 -0.342019
    outer loop
      vertex -1.5 20.5152 8.62365
      vertex -6.5 20.634 8.95
      vertex -1.5 20.634 8.95
    endloop
  endfacet
  facet normal 0 0.939693 -0.342019
    outer loop
      vertex -6.5 20.634 8.95
      vertex -1.5 20.5152 8.62365
      vertex -6.5 20.5152 8.62365
    endloop
  endfacet
  facet normal 0 0.173648 -0.984808
    outer loop
      vertex -6.5 21.158 9.38969
      vertex -1.5 21.5 9.45
      vertex -1.5 21.158 9.38969
    endloop
  endfacet
  facet normal 0 0.173648 -0.984808
    outer loop
      vertex -1.5 21.5 9.45
      vertex -6.5 21.158 9.38969
      vertex -6.5 21.5 9.45
    endloop
  endfacet
  facet normal 0 0.766044 0.642788
    outer loop
      vertex -1.5 20.8572 7.68396
      vertex -6.5 20.634 7.95
      vertex -1.5 20.634 7.95
    endloop
  endfacet
  facet normal 0 0.766044 0.642788
    outer loop
      vertex -6.5 20.634 7.95
      vertex -1.5 20.8572 7.68396
      vertex -6.5 20.8572 7.68396
    endloop
  endfacet
  facet normal 0 0.766043 -0.642789
    outer loop
      vertex -1.5 20.634 8.95
      vertex -6.5 20.8572 9.21604
      vertex -1.5 20.8572 9.21604
    endloop
  endfacet
  facet normal 0 0.766043 -0.642789
    outer loop
      vertex -6.5 20.8572 9.21604
      vertex -1.5 20.634 8.95
      vertex -6.5 20.634 8.95
    endloop
  endfacet
  facet normal -0 0.500003 0.866024
    outer loop
      vertex -6.5 21.158 7.51031
      vertex -1.5 20.8572 7.68396
      vertex -1.5 21.158 7.51031
    endloop
  endfacet
  facet normal 0 0.500003 0.866024
    outer loop
      vertex -1.5 20.8572 7.68396
      vertex -6.5 21.158 7.51031
      vertex -6.5 20.8572 7.68396
    endloop
  endfacet
  facet normal -1 0 0
    outer loop
      vertex -6.5 -5.01519 8.62365
      vertex -6.5 -3.5 2.7
      vertex -6.5 -5.01519 8.27635
    endloop
  endfacet
  facet normal -1 0 0
    outer loop
      vertex -6.5 -3.5 2.7
      vertex -6.5 -5.13398 7.95
      vertex -6.5 -5.01519 8.27635
    endloop
  endfacet
  facet normal -1 0 0
    outer loop
      vertex -6.5 -3.5 2.7
      vertex -6.5 -5.35721 7.68396
      vertex -6.5 -5.13398 7.95
    endloop
  endfacet
  facet normal -1 0 0
    outer loop
      vertex -6.5 -3.5 2.7
      vertex -6.5 -5.65798 7.51031
      vertex -6.5 -5.35721 7.68396
    endloop
  endfacet
  facet normal -1 0 0
    outer loop
      vertex -6.5 -3.5 2.7
      vertex -6.5 -6 7.45
      vertex -6.5 -5.65798 7.51031
    endloop
  endfacet
  facet normal -1 0 0
    outer loop
      vertex -6.5 -8 2.7
      vertex -6.5 -6 7.45
      vertex -6.5 -3.5 2.7
    endloop
  endfacet
  facet normal -1 -0 0
    outer loop
      vertex -6.5 -6 7.45
      vertex -6.5 -8 2.7
      vertex -6.5 -6.34202 7.51031
    endloop
  endfacet
  facet normal -1 -0 0
    outer loop
      vertex -6.5 -6.34202 7.51031
      vertex -6.5 -8 2.7
      vertex -6.5 -6.64279 7.68396
    endloop
  endfacet
  facet normal -1 -0 0
    outer loop
      vertex -6.5 -6.98481 8.27635
      vertex -6.5 -8 2.7
      vertex -6.5 -6.98481 8.62365
    endloop
  endfacet
  facet normal -1 -0 0
    outer loop
      vertex -6.5 -6.86603 7.95
      vertex -6.5 -8 2.7
      vertex -6.5 -6.98481 8.27635
    endloop
  endfacet
  facet normal -1 -0 0
    outer loop
      vertex -6.5 -6.64279 7.68396
      vertex -6.5 -8 2.7
      vertex -6.5 -6.86603 7.95
    endloop
  endfacet
  facet normal -1 0 0
    outer loop
      vertex -6.5 -3.5 2.7
      vertex -6.5 -5.01519 8.62365
      vertex -6.5 -3.5 14.7
    endloop
  endfacet
  facet normal -1 0 0
    outer loop
      vertex -6.5 -5.13398 8.95
      vertex -6.5 -3.5 14.7
      vertex -6.5 -5.01519 8.62365
    endloop
  endfacet
  facet normal -1 0 0
    outer loop
      vertex -6.5 -5.35721 9.21604
      vertex -6.5 -3.5 14.7
      vertex -6.5 -5.13398 8.95
    endloop
  endfacet
  facet normal -1 0 0
    outer loop
      vertex -6.5 -5.65798 9.38969
      vertex -6.5 -3.5 14.7
      vertex -6.5 -5.35721 9.21604
    endloop
  endfacet
  facet normal -1 0 0
    outer loop
      vertex -6.5 -6 9.45
      vertex -6.5 -3.5 14.7
      vertex -6.5 -5.65798 9.38969
    endloop
  endfacet
  facet normal -1 0 0
    outer loop
      vertex -6.5 -8 14.7
      vertex -6.5 -6 9.45
      vertex -6.5 -6.34202 9.38969
    endloop
  endfacet
  facet normal -1 0 0
    outer loop
      vertex -6.5 -8 14.7
      vertex -6.5 -6.34202 9.38969
      vertex -6.5 -6.64279 9.21604
    endloop
  endfacet
  facet normal -1 0 0
    outer loop
      vertex -6.5 -8 14.7
      vertex -6.5 -6.64279 9.21604
      vertex -6.5 -6.86603 8.95
    endloop
  endfacet
  facet normal -1 0 0
    outer loop
      vertex -6.5 -6 9.45
      vertex -6.5 -8 14.7
      vertex -6.5 -3.5 14.7
    endloop
  endfacet
  facet normal -1 0 0
    outer loop
      vertex -6.5 -6.98481 8.62365
      vertex -6.5 -8 14.7
      vertex -6.5 -6.86603 8.95
    endloop
  endfacet
  facet normal -1 0 0
    outer loop
      vertex -6.5 -8 14.7
      vertex -6.5 -6.98481 8.62365
      vertex -6.5 -8 2.7
    endloop
  endfacet
  facet normal 0 0 1
    outer loop
      vertex -1.5 -3.5 14.7
      vertex -3 -5.75 14.7
      vertex -1.5 -8 14.7
    endloop
  endfacet
  facet normal 0 0 1
    outer loop
      vertex -1.5 -3.5 14.7
      vertex -3.06031 -5.40798 14.7
      vertex -3 -5.75 14.7
    endloop
  endfacet
  facet normal 0 0 1
    outer loop
      vertex -1.5 -3.5 14.7
      vertex -3.23396 -5.10721 14.7
      vertex -3.06031 -5.40798 14.7
    endloop
  endfacet
  facet normal 0 0 1
    outer loop
      vertex -1.5 -3.5 14.7
      vertex -3.5 -4.88398 14.7
      vertex -3.23396 -5.10721 14.7
    endloop
  endfacet
  facet normal 0 0 1
    outer loop
      vertex -1.5 -3.5 14.7
      vertex -3.82635 -4.76519 14.7
      vertex -3.5 -4.88398 14.7
    endloop
  endfacet
  facet normal 0 0 1
    outer loop
      vertex -1.5 -3.5 14.7
      vertex -4.17365 -4.76519 14.7
      vertex -3.82635 -4.76519 14.7
    endloop
  endfacet
  facet normal -0 0 1
    outer loop
      vertex -6.5 -3.5 14.7
      vertex -4.17365 -4.76519 14.7
      vertex -1.5 -3.5 14.7
    endloop
  endfacet
  facet normal 0 0 1
    outer loop
      vertex -4.93969 -5.40798 14.7
      vertex -6.5 -3.5 14.7
      vertex -5 -5.75 14.7
    endloop
  endfacet
  facet normal 0 0 1
    outer loop
      vertex -4.76604 -5.10721 14.7
      vertex -6.5 -3.5 14.7
      vertex -4.93969 -5.40798 14.7
    endloop
  endfacet
  facet normal 0 0 1
    outer loop
      vertex -4.5 -4.88398 14.7
      vertex -6.5 -3.5 14.7
      vertex -4.76604 -5.10721 14.7
    endloop
  endfacet
  facet normal 0 0 1
    outer loop
      vertex -4.17365 -4.76519 14.7
      vertex -6.5 -3.5 14.7
      vertex -4.5 -4.88398 14.7
    endloop
  endfacet
  facet normal -0 0 1
    outer loop
      vertex -3.06031 -6.09202 14.7
      vertex -1.5 -8 14.7
      vertex -3 -5.75 14.7
    endloop
  endfacet
  facet normal -0 0 1
    outer loop
      vertex -3.23396 -6.39279 14.7
      vertex -1.5 -8 14.7
      vertex -3.06031 -6.09202 14.7
    endloop
  endfacet
  facet normal -0 0 1
    outer loop
      vertex -3.5 -6.61603 14.7
      vertex -1.5 -8 14.7
      vertex -3.23396 -6.39279 14.7
    endloop
  endfacet
  facet normal -0 0 1
    outer loop
      vertex -3.82635 -6.73481 14.7
      vertex -1.5 -8 14.7
      vertex -3.5 -6.61603 14.7
    endloop
  endfacet
  facet normal -0 0 1
    outer loop
      vertex -4.17365 -6.73481 14.7
      vertex -1.5 -8 14.7
      vertex -3.82635 -6.73481 14.7
    endloop
  endfacet
  facet normal 0 0 1
    outer loop
      vertex -6.5 -8 14.7
      vertex -4.17365 -6.73481 14.7
      vertex -4.5 -6.61603 14.7
    endloop
  endfacet
  facet normal 0 0 1
    outer loop
      vertex -6.5 -8 14.7
      vertex -5 -5.75 14.7
      vertex -6.5 -3.5 14.7
    endloop
  endfacet
  facet normal 0 0 1
    outer loop
      vertex -5 -5.75 14.7
      vertex -6.5 -8 14.7
      vertex -4.93969 -6.09202 14.7
    endloop
  endfacet
  facet normal 0 0 1
    outer loop
      vertex -4.17365 -6.73481 14.7
      vertex -6.5 -8 14.7
      vertex -1.5 -8 14.7
    endloop
  endfacet
  facet normal 0 0 1
    outer loop
      vertex -4.76604 -6.39279 14.7
      vertex -6.5 -8 14.7
      vertex -4.5 -6.61603 14.7
    endloop
  endfacet
  facet normal 0 0 1
    outer loop
      vertex -4.93969 -6.09202 14.7
      vertex -6.5 -8 14.7
      vertex -4.76604 -6.39279 14.7
    endloop
  endfacet
  facet normal 1 0 0
    outer loop
      vertex -1.5 -3.5 14.7
      vertex -1.5 -5.01519 8.62365
      vertex -1.5 -3.5 2.7
    endloop
  endfacet
  facet normal 1 0 0
    outer loop
      vertex -1.5 -3.5 14.7
      vertex -1.5 -5.13398 8.95
      vertex -1.5 -5.01519 8.62365
    endloop
  endfacet
  facet normal 1 0 0
    outer loop
      vertex -1.5 -3.5 14.7
      vertex -1.5 -5.35721 9.21604
      vertex -1.5 -5.13398 8.95
    endloop
  endfacet
  facet normal 1 0 0
    outer loop
      vertex -1.5 -3.5 14.7
      vertex -1.5 -5.65798 9.38969
      vertex -1.5 -5.35721 9.21604
    endloop
  endfacet
  facet normal 1 0 0
    outer loop
      vertex -1.5 -3.5 14.7
      vertex -1.5 -6 9.45
      vertex -1.5 -5.65798 9.38969
    endloop
  endfacet
  facet normal 1 -0 0
    outer loop
      vertex -1.5 -8 14.7
      vertex -1.5 -6 9.45
      vertex -1.5 -3.5 14.7
    endloop
  endfacet
  facet normal 1 0 0
    outer loop
      vertex -1.5 -6 9.45
      vertex -1.5 -8 14.7
      vertex -1.5 -6.34202 9.38969
    endloop
  endfacet
  facet normal 1 0 0
    outer loop
      vertex -1.5 -6.34202 9.38969
      vertex -1.5 -8 14.7
      vertex -1.5 -6.64279 9.21604
    endloop
  endfacet
  facet normal 1 0 0
    outer loop
      vertex -1.5 -8 2.7
      vertex -1.5 -6.98481 8.62365
      vertex -1.5 -8 14.7
    endloop
  endfacet
  facet normal 1 0 0
    outer loop
      vertex -1.5 -6.86603 8.95
      vertex -1.5 -8 14.7
      vertex -1.5 -6.98481 8.62365
    endloop
  endfacet
  facet normal 1 0 0
    outer loop
      vertex -1.5 -6.64279 9.21604
      vertex -1.5 -8 14.7
      vertex -1.5 -6.86603 8.95
    endloop
  endfacet
  facet normal 1 -0 0
    outer loop
      vertex -1.5 -5.01519 8.27635
      vertex -1.5 -3.5 2.7
      vertex -1.5 -5.01519 8.62365
    endloop
  endfacet
  facet normal 1 -0 0
    outer loop
      vertex -1.5 -5.13398 7.95
      vertex -1.5 -3.5 2.7
      vertex -1.5 -5.01519 8.27635
    endloop
  endfacet
  facet normal 1 -0 0
    outer loop
      vertex -1.5 -5.35721 7.68396
      vertex -1.5 -3.5 2.7
      vertex -1.5 -5.13398 7.95
    endloop
  endfacet
  facet normal 1 -0 0
    outer loop
      vertex -1.5 -5.65798 7.51031
      vertex -1.5 -3.5 2.7
      vertex -1.5 -5.35721 7.68396
    endloop
  endfacet
  facet normal 1 -0 0
    outer loop
      vertex -1.5 -6 7.45
      vertex -1.5 -3.5 2.7
      vertex -1.5 -5.65798 7.51031
    endloop
  endfacet
  facet normal 1 0 0
    outer loop
      vertex -1.5 -8 2.7
      vertex -1.5 -6 7.45
      vertex -1.5 -6.34202 7.51031
    endloop
  endfacet
  facet normal 1 0 0
    outer loop
      vertex -1.5 -8 2.7
      vertex -1.5 -6.34202 7.51031
      vertex -1.5 -6.64279 7.68396
    endloop
  endfacet
  facet normal 1 0 0
    outer loop
      vertex -1.5 -8 2.7
      vertex -1.5 -6.64279 7.68396
      vertex -1.5 -6.86603 7.95
    endloop
  endfacet
  facet normal 1 0 0
    outer loop
      vertex -1.5 -6 7.45
      vertex -1.5 -8 2.7
      vertex -1.5 -3.5 2.7
    endloop
  endfacet
  facet normal 1 0 0
    outer loop
      vertex -1.5 -6.98481 8.27635
      vertex -1.5 -8 2.7
      vertex -1.5 -6.86603 7.95
    endloop
  endfacet
  facet normal 1 0 0
    outer loop
      vertex -1.5 -6.98481 8.62365
      vertex -1.5 -8 2.7
      vertex -1.5 -6.98481 8.27635
    endloop
  endfacet
  facet normal 0 0 -1
    outer loop
      vertex -6.5 -8 2.7
      vertex -1.5 -3.5 2.7
      vertex -1.5 -8 2.7
    endloop
  endfacet
  facet normal -0 0 -1
    outer loop
      vertex -1.5 -3.5 2.7
      vertex -6.5 -8 2.7
      vertex -6.5 -3.5 2.7
    endloop
  endfacet
  facet normal 0 -1 0
    outer loop
      vertex -6.5 -8 2.7
      vertex -1.5 -8 14.7
      vertex -6.5 -8 14.7
    endloop
  endfacet
  facet normal 0 -1 -0
    outer loop
      vertex -1.5 -8 14.7
      vertex -6.5 -8 2.7
      vertex -1.5 -8 2.7
    endloop
  endfacet
  facet normal 0 1 -0
    outer loop
      vertex -1.5 -3.5 2.7
      vertex -6.5 -3.5 14.7
      vertex -1.5 -3.5 14.7
    endloop
  endfacet
  facet normal 0 1 0
    outer loop
      vertex -6.5 -3.5 14.7
      vertex -1.5 -3.5 2.7
      vertex -6.5 -3.5 2.7
    endloop
  endfacet
  facet normal -0.984808 -0.173649 0
    outer loop
      vertex -3 -5.75 9.7
      vertex -3.06031 -5.40798 14.7
      vertex -3.06031 -5.40798 9.7
    endloop
  endfacet
  facet normal -0.984808 -0.173649 0
    outer loop
      vertex -3.06031 -5.40798 14.7
      vertex -3 -5.75 9.7
      vertex -3 -5.75 14.7
    endloop
  endfacet
  facet normal 0.34202 -0.939693 0
    outer loop
      vertex -4.5 -4.88398 9.7
      vertex -4.17365 -4.76519 14.7
      vertex -4.5 -4.88398 14.7
    endloop
  endfacet
  facet normal 0.34202 -0.939693 0
    outer loop
      vertex -4.17365 -4.76519 14.7
      vertex -4.5 -4.88398 9.7
      vertex -4.17365 -4.76519 9.7
    endloop
  endfacet
  facet normal -0.34202 0.939693 0
    outer loop
      vertex -3.5 -6.61603 9.7
      vertex -3.82635 -6.73481 14.7
      vertex -3.5 -6.61603 14.7
    endloop
  endfacet
  facet normal -0.34202 0.939693 0
    outer loop
      vertex -3.82635 -6.73481 14.7
      vertex -3.5 -6.61603 9.7
      vertex -3.82635 -6.73481 9.7
    endloop
  endfacet
  facet normal -0.642788 0.766044 0
    outer loop
      vertex -3.23396 -6.39279 9.7
      vertex -3.5 -6.61603 14.7
      vertex -3.23396 -6.39279 14.7
    endloop
  endfacet
  facet normal -0.642788 0.766044 0
    outer loop
      vertex -3.5 -6.61603 14.7
      vertex -3.23396 -6.39279 9.7
      vertex -3.5 -6.61603 9.7
    endloop
  endfacet
  facet normal -0.642789 -0.766043 0
    outer loop
      vertex -3.5 -4.88398 9.7
      vertex -3.23396 -5.10721 14.7
      vertex -3.5 -4.88398 14.7
    endloop
  endfacet
  facet normal -0.642789 -0.766043 -0
    outer loop
      vertex -3.23396 -5.10721 14.7
      vertex -3.5 -4.88398 9.7
      vertex -3.23396 -5.10721 9.7
    endloop
  endfacet
  facet normal -0.866024 -0.500002 0
    outer loop
      vertex -3.06031 -5.40798 9.7
      vertex -3.23396 -5.10721 14.7
      vertex -3.23396 -5.10721 9.7
    endloop
  endfacet
  facet normal -0.866024 -0.500002 0
    outer loop
      vertex -3.23396 -5.10721 14.7
      vertex -3.06031 -5.40798 9.7
      vertex -3.06031 -5.40798 14.7
    endloop
  endfacet
  facet normal -0.342019 -0.939693 0
    outer loop
      vertex -3.82635 -4.76519 9.7
      vertex -3.5 -4.88398 14.7
      vertex -3.82635 -4.76519 14.7
    endloop
  endfacet
  facet normal -0.342019 -0.939693 -0
    outer loop
      vertex -3.5 -4.88398 14.7
      vertex -3.82635 -4.76519 9.7
      vertex -3.5 -4.88398 9.7
    endloop
  endfacet
  facet normal 0.866024 -0.500002 0
    outer loop
      vertex -4.93969 -5.40798 14.7
      vertex -4.76604 -5.10721 9.7
      vertex -4.76604 -5.10721 14.7
    endloop
  endfacet
  facet normal 0.866024 -0.500002 0
    outer loop
      vertex -4.76604 -5.10721 9.7
      vertex -4.93969 -5.40798 14.7
      vertex -4.93969 -5.40798 9.7
    endloop
  endfacet
  facet normal 0 0 1
    outer loop
      vertex -3.06031 -5.40798 9.7
      vertex -3.06031 -6.09202 9.7
      vertex -3 -5.75 9.7
    endloop
  endfacet
  facet normal 0 0 1
    outer loop
      vertex -3.23396 -5.10721 9.7
      vertex -3.06031 -6.09202 9.7
      vertex -3.06031 -5.40798 9.7
    endloop
  endfacet
  facet normal 0 0 1
    outer loop
      vertex -3.23396 -5.10721 9.7
      vertex -3.23396 -6.39279 9.7
      vertex -3.06031 -6.09202 9.7
    endloop
  endfacet
  facet normal 0 0 1
    outer loop
      vertex -3.5 -4.88398 9.7
      vertex -3.23396 -6.39279 9.7
      vertex -3.23396 -5.10721 9.7
    endloop
  endfacet
  facet normal 0 0 1
    outer loop
      vertex -3.5 -4.88398 9.7
      vertex -3.5 -6.61603 9.7
      vertex -3.23396 -6.39279 9.7
    endloop
  endfacet
  facet normal 0 0 1
    outer loop
      vertex -3.82635 -4.76519 9.7
      vertex -3.5 -6.61603 9.7
      vertex -3.5 -4.88398 9.7
    endloop
  endfacet
  facet normal 0 0 1
    outer loop
      vertex -3.82635 -4.76519 9.7
      vertex -3.82635 -6.73481 9.7
      vertex -3.5 -6.61603 9.7
    endloop
  endfacet
  facet normal -0 0 1
    outer loop
      vertex -4.17365 -4.76519 9.7
      vertex -3.82635 -6.73481 9.7
      vertex -3.82635 -4.76519 9.7
    endloop
  endfacet
  facet normal 0 0 1
    outer loop
      vertex -4.17365 -4.76519 9.7
      vertex -4.17365 -6.73481 9.7
      vertex -3.82635 -6.73481 9.7
    endloop
  endfacet
  facet normal -0 0 1
    outer loop
      vertex -4.5 -4.88398 9.7
      vertex -4.17365 -6.73481 9.7
      vertex -4.17365 -4.76519 9.7
    endloop
  endfacet
  facet normal 0 0 1
    outer loop
      vertex -4.5 -4.88398 9.7
      vertex -4.5 -6.61603 9.7
      vertex -4.17365 -6.73481 9.7
    endloop
  endfacet
  facet normal -0 0 1
    outer loop
      vertex -4.76604 -5.10721 9.7
      vertex -4.5 -6.61603 9.7
      vertex -4.5 -4.88398 9.7
    endloop
  endfacet
  facet normal 0 0 1
    outer loop
      vertex -4.76604 -5.10721 9.7
      vertex -4.76604 -6.39279 9.7
      vertex -4.5 -6.61603 9.7
    endloop
  endfacet
  facet normal -0 0 1
    outer loop
      vertex -4.93969 -5.40798 9.7
      vertex -4.76604 -6.39279 9.7
      vertex -4.76604 -5.10721 9.7
    endloop
  endfacet
  facet normal 0 0 1
    outer loop
      vertex -4.93969 -5.40798 9.7
      vertex -4.93969 -6.09202 9.7
      vertex -4.76604 -6.39279 9.7
    endloop
  endfacet
  facet normal 0 -0 1
    outer loop
      vertex -4.93969 -6.09202 9.7
      vertex -4.93969 -5.40798 9.7
      vertex -5 -5.75 9.7
    endloop
  endfacet
  facet normal 0.984808 -0.173646 0
    outer loop
      vertex -5 -5.75 14.7
      vertex -4.93969 -5.40798 9.7
      vertex -4.93969 -5.40798 14.7
    endloop
  endfacet
  facet normal 0.984808 -0.173646 0
    outer loop
      vertex -4.93969 -5.40798 9.7
      vertex -5 -5.75 14.7
      vertex -5 -5.75 9.7
    endloop
  endfacet
  facet normal 0.642788 -0.766044 0
    outer loop
      vertex -4.76604 -5.10721 9.7
      vertex -4.5 -4.88398 14.7
      vertex -4.76604 -5.10721 14.7
    endloop
  endfacet
  facet normal 0.642788 -0.766044 0
    outer loop
      vertex -4.5 -4.88398 14.7
      vertex -4.76604 -5.10721 9.7
      vertex -4.5 -4.88398 9.7
    endloop
  endfacet
  facet normal -0.984808 0.173648 0
    outer loop
      vertex -3.06031 -6.09202 9.7
      vertex -3 -5.75 14.7
      vertex -3 -5.75 9.7
    endloop
  endfacet
  facet normal -0.984808 0.173648 0
    outer loop
      vertex -3 -5.75 14.7
      vertex -3.06031 -6.09202 9.7
      vertex -3.06031 -6.09202 14.7
    endloop
  endfacet
  facet normal 0 -1 0
    outer loop
      vertex -4.17365 -4.76519 9.7
      vertex -3.82635 -4.76519 14.7
      vertex -4.17365 -4.76519 14.7
    endloop
  endfacet
  facet normal 0 -1 -0
    outer loop
      vertex -3.82635 -4.76519 14.7
      vertex -4.17365 -4.76519 9.7
      vertex -3.82635 -4.76519 9.7
    endloop
  endfacet
  facet normal 0.984808 0.173645 0
    outer loop
      vertex -4.93969 -6.09202 14.7
      vertex -5 -5.75 9.7
      vertex -5 -5.75 14.7
    endloop
  endfacet
  facet normal 0.984808 0.173645 0
    outer loop
      vertex -5 -5.75 9.7
      vertex -4.93969 -6.09202 14.7
      vertex -4.93969 -6.09202 9.7
    endloop
  endfacet
  facet normal -0.866024 0.500002 0
    outer loop
      vertex -3.23396 -6.39279 9.7
      vertex -3.06031 -6.09202 14.7
      vertex -3.06031 -6.09202 9.7
    endloop
  endfacet
  facet normal -0.866024 0.500002 0
    outer loop
      vertex -3.06031 -6.09202 14.7
      vertex -3.23396 -6.39279 9.7
      vertex -3.23396 -6.39279 14.7
    endloop
  endfacet
  facet normal 0.342019 0.939693 -0
    outer loop
      vertex -4.17365 -6.73481 9.7
      vertex -4.5 -6.61603 14.7
      vertex -4.17365 -6.73481 14.7
    endloop
  endfacet
  facet normal 0.342019 0.939693 0
    outer loop
      vertex -4.5 -6.61603 14.7
      vertex -4.17365 -6.73481 9.7
      vertex -4.5 -6.61603 9.7
    endloop
  endfacet
  facet normal 0.642789 0.766043 -0
    outer loop
      vertex -4.5 -6.61603 9.7
      vertex -4.76604 -6.39279 14.7
      vertex -4.5 -6.61603 14.7
    endloop
  endfacet
  facet normal 0.642789 0.766043 0
    outer loop
      vertex -4.76604 -6.39279 14.7
      vertex -4.5 -6.61603 9.7
      vertex -4.76604 -6.39279 9.7
    endloop
  endfacet
  facet normal 0.866024 0.500002 0
    outer loop
      vertex -4.76604 -6.39279 14.7
      vertex -4.93969 -6.09202 9.7
      vertex -4.93969 -6.09202 14.7
    endloop
  endfacet
  facet normal 0.866024 0.500002 0
    outer loop
      vertex -4.93969 -6.09202 9.7
      vertex -4.76604 -6.39279 14.7
      vertex -4.76604 -6.39279 9.7
    endloop
  endfacet
  facet normal 0 1 -0
    outer loop
      vertex -3.82635 -6.73481 9.7
      vertex -4.17365 -6.73481 14.7
      vertex -3.82635 -6.73481 14.7
    endloop
  endfacet
  facet normal 0 1 0
    outer loop
      vertex -4.17365 -6.73481 14.7
      vertex -3.82635 -6.73481 9.7
      vertex -4.17365 -6.73481 9.7
    endloop
  endfacet
  facet normal 0 -0.173646 0.984808
    outer loop
      vertex -6.5 -5.65798 7.51031
      vertex -1.5 -6 7.45
      vertex -1.5 -5.65798 7.51031
    endloop
  endfacet
  facet normal 0 -0.173646 0.984808
    outer loop
      vertex -1.5 -6 7.45
      vertex -6.5 -5.65798 7.51031
      vertex -6.5 -6 7.45
    endloop
  endfacet
  facet normal 0 -0.173649 -0.984808
    outer loop
      vertex -6.5 -6 9.45
      vertex -1.5 -5.65798 9.38969
      vertex -1.5 -6 9.45
    endloop
  endfacet
  facet normal -0 -0.173649 -0.984808
    outer loop
      vertex -1.5 -5.65798 9.38969
      vertex -6.5 -6 9.45
      vertex -6.5 -5.65798 9.38969
    endloop
  endfacet
  facet normal 0 1 -0
    outer loop
      vertex -1.5 -6.98481 8.27635
      vertex -6.5 -6.98481 8.62365
      vertex -1.5 -6.98481 8.62365
    endloop
  endfacet
  facet normal 0 1 0
    outer loop
      vertex -6.5 -6.98481 8.62365
      vertex -1.5 -6.98481 8.27635
      vertex -6.5 -6.98481 8.27635
    endloop
  endfacet
  facet normal -0 0.173645 0.984808
    outer loop
      vertex -6.5 -6 7.45
      vertex -1.5 -6.34202 7.51031
      vertex -1.5 -6 7.45
    endloop
  endfacet
  facet normal 0 0.173645 0.984808
    outer loop
      vertex -1.5 -6.34202 7.51031
      vertex -6.5 -6 7.45
      vertex -6.5 -6.34202 7.51031
    endloop
  endfacet
  facet normal 0 0.939693 0.34202
    outer loop
      vertex -1.5 -6.86603 7.95
      vertex -6.5 -6.98481 8.27635
      vertex -1.5 -6.98481 8.27635
    endloop
  endfacet
  facet normal 0 0.939693 0.34202
    outer loop
      vertex -6.5 -6.98481 8.27635
      vertex -1.5 -6.86603 7.95
      vertex -6.5 -6.86603 7.95
    endloop
  endfacet
  facet normal 0 -0.939693 0.34202
    outer loop
      vertex -6.5 -5.13398 7.95
      vertex -1.5 -5.01519 8.27635
      vertex -6.5 -5.01519 8.27635
    endloop
  endfacet
  facet normal 0 -0.939693 0.34202
    outer loop
      vertex -1.5 -5.01519 8.27635
      vertex -6.5 -5.13398 7.95
      vertex -1.5 -5.13398 7.95
    endloop
  endfacet
  facet normal 0 -0.766043 -0.642789
    outer loop
      vertex -6.5 -5.13398 8.95
      vertex -1.5 -5.35721 9.21604
      vertex -6.5 -5.35721 9.21604
    endloop
  endfacet
  facet normal 0 -0.766043 -0.642789
    outer loop
      vertex -1.5 -5.35721 9.21604
      vertex -6.5 -5.13398 8.95
      vertex -1.5 -5.13398 8.95
    endloop
  endfacet
  facet normal 0 -0.500002 -0.866024
    outer loop
      vertex -6.5 -5.65798 9.38969
      vertex -1.5 -5.35721 9.21604
      vertex -1.5 -5.65798 9.38969
    endloop
  endfacet
  facet normal -0 -0.500002 -0.866024
    outer loop
      vertex -1.5 -5.35721 9.21604
      vertex -6.5 -5.65798 9.38969
      vertex -6.5 -5.35721 9.21604
    endloop
  endfacet
  facet normal 0 -0.939693 -0.342019
    outer loop
      vertex -6.5 -5.01519 8.62365
      vertex -1.5 -5.13398 8.95
      vertex -6.5 -5.13398 8.95
    endloop
  endfacet
  facet normal 0 -0.939693 -0.342019
    outer loop
      vertex -1.5 -5.13398 8.95
      vertex -6.5 -5.01519 8.62365
      vertex -1.5 -5.01519 8.62365
    endloop
  endfacet
  facet normal 0 -0.500002 0.866024
    outer loop
      vertex -6.5 -5.35721 7.68396
      vertex -1.5 -5.65798 7.51031
      vertex -1.5 -5.35721 7.68396
    endloop
  endfacet
  facet normal 0 -0.500002 0.866024
    outer loop
      vertex -1.5 -5.65798 7.51031
      vertex -6.5 -5.35721 7.68396
      vertex -6.5 -5.65798 7.51031
    endloop
  endfacet
  facet normal 0 -1 0
    outer loop
      vertex -6.5 -5.01519 8.27635
      vertex -1.5 -5.01519 8.62365
      vertex -6.5 -5.01519 8.62365
    endloop
  endfacet
  facet normal 0 -1 -0
    outer loop
      vertex -1.5 -5.01519 8.62365
      vertex -6.5 -5.01519 8.27635
      vertex -1.5 -5.01519 8.27635
    endloop
  endfacet
  facet normal 0 0.500002 -0.866024
    outer loop
      vertex -6.5 -6.64279 9.21604
      vertex -1.5 -6.34202 9.38969
      vertex -1.5 -6.64279 9.21604
    endloop
  endfacet
  facet normal 0 0.500002 -0.866024
    outer loop
      vertex -1.5 -6.34202 9.38969
      vertex -6.5 -6.64279 9.21604
      vertex -6.5 -6.34202 9.38969
    endloop
  endfacet
  facet normal 0 -0.766044 0.642788
    outer loop
      vertex -6.5 -5.35721 7.68396
      vertex -1.5 -5.13398 7.95
      vertex -6.5 -5.13398 7.95
    endloop
  endfacet
  facet normal 0 -0.766044 0.642788
    outer loop
      vertex -1.5 -5.13398 7.95
      vertex -6.5 -5.35721 7.68396
      vertex -1.5 -5.35721 7.68396
    endloop
  endfacet
  facet normal 0 0.939693 -0.342019
    outer loop
      vertex -1.5 -6.98481 8.62365
      vertex -6.5 -6.86603 8.95
      vertex -1.5 -6.86603 8.95
    endloop
  endfacet
  facet normal 0 0.939693 -0.342019
    outer loop
      vertex -6.5 -6.86603 8.95
      vertex -1.5 -6.98481 8.62365
      vertex -6.5 -6.98481 8.62365
    endloop
  endfacet
  facet normal 0 0.173648 -0.984808
    outer loop
      vertex -6.5 -6.34202 9.38969
      vertex -1.5 -6 9.45
      vertex -1.5 -6.34202 9.38969
    endloop
  endfacet
  facet normal 0 0.173648 -0.984808
    outer loop
      vertex -1.5 -6 9.45
      vertex -6.5 -6.34202 9.38969
      vertex -6.5 -6 9.45
    endloop
  endfacet
  facet normal 0 0.766044 0.642788
    outer loop
      vertex -1.5 -6.64279 7.68396
      vertex -6.5 -6.86603 7.95
      vertex -1.5 -6.86603 7.95
    endloop
  endfacet
  facet normal 0 0.766044 0.642788
    outer loop
      vertex -6.5 -6.86603 7.95
      vertex -1.5 -6.64279 7.68396
      vertex -6.5 -6.64279 7.68396
    endloop
  endfacet
  facet normal 0 0.766043 -0.642789
    outer loop
      vertex -1.5 -6.86603 8.95
      vertex -6.5 -6.64279 9.21604
      vertex -1.5 -6.64279 9.21604
    endloop
  endfacet
  facet normal 0 0.766043 -0.642789
    outer loop
      vertex -6.5 -6.64279 9.21604
      vertex -1.5 -6.86603 8.95
      vertex -6.5 -6.86603 8.95
    endloop
  endfacet
  facet normal -0 0.500002 0.866024
    outer loop
      vertex -6.5 -6.34202 7.51031
      vertex -1.5 -6.64279 7.68396
      vertex -1.5 -6.34202 7.51031
    endloop
  endfacet
  facet normal 0 0.500002 0.866024
    outer loop
      vertex -1.5 -6.64279 7.68396
      vertex -6.5 -6.34202 7.51031
      vertex -6.5 -6.64279 7.68396
    endloop
  endfacet
  facet normal 1 -0 0
    outer loop
      vertex 0 -8 2.7
      vertex 0 0 0
      vertex 0 0 2.7
    endloop
  endfacet
  facet normal 1 0 0
    outer loop
      vertex 0 0 0
      vertex 0 -8 2.7
      vertex 0 -8 0
    endloop
  endfacet
  facet normal 0 0 1
    outer loop
      vertex 33.5 28 2.7
      vertex 0 0 2.7
      vertex 33.5 0 2.7
    endloop
  endfacet
  facet normal -0 0 1
    outer loop
      vertex -13.5 28 2.7
      vertex 0 0 2.7
      vertex 33.5 28 2.7
    endloop
  endfacet
  facet normal 0 0 1
    outer loop
      vertex -13.5 -8 2.7
      vertex 0 0 2.7
      vertex -13.5 28 2.7
    endloop
  endfacet
  facet normal 0 0 1
    outer loop
      vertex 0 0 2.7
      vertex -13.5 -8 2.7
      vertex 0 -8 2.7
    endloop
  endfacet
  facet normal 1 -0 0
    outer loop
      vertex 33.5 0 2.7
      vertex 33.5 28 0
      vertex 33.5 28 2.7
    endloop
  endfacet
  facet normal 1 0 0
    outer loop
      vertex 33.5 28 0
      vertex 33.5 0 2.7
      vertex 33.5 0 0
    endloop
  endfacet
  facet normal 0 1 -0
    outer loop
      vertex 33.5 28 0
      vertex -13.5 28 2.7
      vertex 33.5 28 2.7
    endloop
  endfacet
  facet normal 0 1 0
    outer loop
      vertex -13.5 28 2.7
      vertex 33.5 28 0
      vertex -13.5 28 0
    endloop
  endfacet
  facet normal 0 0 -1
    outer loop
      vertex 0 -8 0
      vertex -13.5 -8 0
      vertex 0 0 0
    endloop
  endfacet
  facet normal 0 0 -1
    outer loop
      vertex 0 0 0
      vertex 33.5 28 0
      vertex 33.5 0 0
    endloop
  endfacet
  facet normal 0 0 -1
    outer loop
      vertex -13.5 28 0
      vertex 0 0 0
      vertex -13.5 -8 0
    endloop
  endfacet
  facet normal 0 0 -1
    outer loop
      vertex 0 0 0
      vertex -13.5 28 0
      vertex 33.5 28 0
    endloop
  endfacet
  facet normal 0 -1 0
    outer loop
      vertex 0 0 0
      vertex 33.5 0 2.7
      vertex 0 0 2.7
    endloop
  endfacet
  facet normal 0 -1 -0
    outer loop
      vertex 33.5 0 2.7
      vertex 0 0 0
      vertex 33.5 0 0
    endloop
  endfacet
  facet normal -1 0 0
    outer loop
      vertex -13.5 -8 0
      vertex -13.5 28 2.7
      vertex -13.5 28 0
    endloop
  endfacet
  facet normal -1 -0 0
    outer loop
      vertex -13.5 28 2.7
      vertex -13.5 -8 0
      vertex -13.5 -8 2.7
    endloop
  endfacet
  facet normal 0 -1 0
    outer loop
      vertex -13.5 -8 0
      vertex 0 -8 2.7
      vertex -13.5 -8 2.7
    endloop
  endfacet
  facet normal 0 -1 -0
    outer loop
      vertex 0 -8 2.7
      vertex -13.5 -8 0
      vertex 0 -8 0
    endloop
  endfacet
endsolid OpenSCAD_Model
