solid OpenSCAD_Model
  facet normal -1 0 0
    outer loop
      vertex 0 0 0
      vertex 0 8.5 4
      vertex 0 8.5 0
    endloop
  endfacet
  facet normal -1 -0 0
    outer loop
      vertex 0 8.5 4
      vertex 0 0 0
      vertex 0 0 4
    endloop
  endfacet
  facet normal -0 0 1
    outer loop
      vertex 25.5 8.5 4
      vertex 30.5 0 4
      vertex 30.5 8.5 4
    endloop
  endfacet
  facet normal 0 0 1
    outer loop
      vertex 30.5 0 4
      vertex 25.5 8.5 4
      vertex 25.5 0 4
    endloop
  endfacet
  facet normal 0 0 1
    outer loop
      vertex 60 8.5 4
      vertex 51.5 4.25 4
      vertex 60 0 4
    endloop
  endfacet
  facet normal 0 0 1
    outer loop
      vertex 60 8.5 4
      vertex 51.4848 4.42365 4
      vertex 51.5 4.25 4
    endloop
  endfacet
  facet normal 0 0 1
    outer loop
      vertex 60 8.5 4
      vertex 51.4397 4.59202 4
      vertex 51.4848 4.42365 4
    endloop
  endfacet
  facet normal 0 0 1
    outer loop
      vertex 60 8.5 4
      vertex 51.366 4.75 4
      vertex 51.4397 4.59202 4
    endloop
  endfacet
  facet normal 0 0 1
    outer loop
      vertex 60 8.5 4
      vertex 51.266 4.89279 4
      vertex 51.366 4.75 4
    endloop
  endfacet
  facet normal 0 0 1
    outer loop
      vertex 60 8.5 4
      vertex 51.1428 5.01604 4
      vertex 51.266 4.89279 4
    endloop
  endfacet
  facet normal 0 0 1
    outer loop
      vertex 60 8.5 4
      vertex 51 5.11602 4
      vertex 51.1428 5.01604 4
    endloop
  endfacet
  facet normal 0 0 1
    outer loop
      vertex 60 8.5 4
      vertex 50.842 5.18969 4
      vertex 51 5.11602 4
    endloop
  endfacet
  facet normal 0 0 1
    outer loop
      vertex 60 8.5 4
      vertex 50.6736 5.23481 4
      vertex 50.842 5.18969 4
    endloop
  endfacet
  facet normal 0 0 1
    outer loop
      vertex 60 8.5 4
      vertex 50.5 5.25 4
      vertex 50.6736 5.23481 4
    endloop
  endfacet
  facet normal 0 0 1
    outer loop
      vertex 60 8.5 4
      vertex 50.3264 5.23481 4
      vertex 50.5 5.25 4
    endloop
  endfacet
  facet normal -0 0 1
    outer loop
      vertex 35.5 8.5 4
      vertex 50.3264 5.23481 4
      vertex 60 8.5 4
    endloop
  endfacet
  facet normal 0 0 1
    outer loop
      vertex 49.5152 4.42365 4
      vertex 35.5 8.5 4
      vertex 49.5 4.25 4
    endloop
  endfacet
  facet normal 0 0 1
    outer loop
      vertex 49.5603 4.59202 4
      vertex 35.5 8.5 4
      vertex 49.5152 4.42365 4
    endloop
  endfacet
  facet normal 0 0 1
    outer loop
      vertex 49.634 4.75 4
      vertex 35.5 8.5 4
      vertex 49.5603 4.59202 4
    endloop
  endfacet
  facet normal 0 0 1
    outer loop
      vertex 49.734 4.89279 4
      vertex 35.5 8.5 4
      vertex 49.634 4.75 4
    endloop
  endfacet
  facet normal 0 0 1
    outer loop
      vertex 49.8572 5.01604 4
      vertex 35.5 8.5 4
      vertex 49.734 4.89279 4
    endloop
  endfacet
  facet normal 0 0 1
    outer loop
      vertex 50 5.11602 4
      vertex 35.5 8.5 4
      vertex 49.8572 5.01604 4
    endloop
  endfacet
  facet normal 0 0 1
    outer loop
      vertex 50.158 5.18969 4
      vertex 35.5 8.5 4
      vertex 50 5.11602 4
    endloop
  endfacet
  facet normal 0 0 1
    outer loop
      vertex 50.3264 5.23481 4
      vertex 35.5 8.5 4
      vertex 50.158 5.18969 4
    endloop
  endfacet
  facet normal -0 0 1
    outer loop
      vertex 51.4848 4.07635 4
      vertex 60 0 4
      vertex 51.5 4.25 4
    endloop
  endfacet
  facet normal -0 0 1
    outer loop
      vertex 51.4397 3.90798 4
      vertex 60 0 4
      vertex 51.4848 4.07635 4
    endloop
  endfacet
  facet normal -0 0 1
    outer loop
      vertex 51.366 3.75 4
      vertex 60 0 4
      vertex 51.4397 3.90798 4
    endloop
  endfacet
  facet normal -0 0 1
    outer loop
      vertex 51.266 3.60721 4
      vertex 60 0 4
      vertex 51.366 3.75 4
    endloop
  endfacet
  facet normal -0 0 1
    outer loop
      vertex 51.1428 3.48396 4
      vertex 60 0 4
      vertex 51.266 3.60721 4
    endloop
  endfacet
  facet normal -0 0 1
    outer loop
      vertex 51 3.38397 4
      vertex 60 0 4
      vertex 51.1428 3.48396 4
    endloop
  endfacet
  facet normal -0 0 1
    outer loop
      vertex 50.842 3.31031 4
      vertex 60 0 4
      vertex 51 3.38397 4
    endloop
  endfacet
  facet normal -0 0 1
    outer loop
      vertex 50.6736 3.26519 4
      vertex 60 0 4
      vertex 50.842 3.31031 4
    endloop
  endfacet
  facet normal -0 0 1
    outer loop
      vertex 50.5 3.25 4
      vertex 60 0 4
      vertex 50.6736 3.26519 4
    endloop
  endfacet
  facet normal 0 0 1
    outer loop
      vertex 50.3264 3.26519 4
      vertex 60 0 4
      vertex 50.5 3.25 4
    endloop
  endfacet
  facet normal 0 0 1
    outer loop
      vertex 35.5 0 4
      vertex 50.3264 3.26519 4
      vertex 50.158 3.31031 4
    endloop
  endfacet
  facet normal 0 0 1
    outer loop
      vertex 35.5 0 4
      vertex 49.5 4.25 4
      vertex 35.5 8.5 4
    endloop
  endfacet
  facet normal 0 0 1
    outer loop
      vertex 49.5 4.25 4
      vertex 35.5 0 4
      vertex 49.5152 4.07635 4
    endloop
  endfacet
  facet normal 0 0 1
    outer loop
      vertex 49.5152 4.07635 4
      vertex 35.5 0 4
      vertex 49.5603 3.90798 4
    endloop
  endfacet
  facet normal 0 0 1
    outer loop
      vertex 49.5603 3.90798 4
      vertex 35.5 0 4
      vertex 49.634 3.75 4
    endloop
  endfacet
  facet normal 0 0 1
    outer loop
      vertex 49.634 3.75 4
      vertex 35.5 0 4
      vertex 49.734 3.60721 4
    endloop
  endfacet
  facet normal 0 0 1
    outer loop
      vertex 49.734 3.60721 4
      vertex 35.5 0 4
      vertex 49.8572 3.48396 4
    endloop
  endfacet
  facet normal 0 0 1
    outer loop
      vertex 49.8572 3.48396 4
      vertex 35.5 0 4
      vertex 50 3.38397 4
    endloop
  endfacet
  facet normal 0 0 1
    outer loop
      vertex 50.3264 3.26519 4
      vertex 35.5 0 4
      vertex 60 0 4
    endloop
  endfacet
  facet normal 0 0 1
    outer loop
      vertex 50 3.38397 4
      vertex 35.5 0 4
      vertex 50.158 3.31031 4
    endloop
  endfacet
  facet normal 0 0 1
    outer loop
      vertex 20.5 8.5 4
      vertex 10.5 4.25 4
      vertex 20.5 0 4
    endloop
  endfacet
  facet normal 0 0 1
    outer loop
      vertex 20.5 8.5 4
      vertex 10.4848 4.42365 4
      vertex 10.5 4.25 4
    endloop
  endfacet
  facet normal 0 0 1
    outer loop
      vertex 20.5 8.5 4
      vertex 10.4397 4.59202 4
      vertex 10.4848 4.42365 4
    endloop
  endfacet
  facet normal 0 0 1
    outer loop
      vertex 20.5 8.5 4
      vertex 10.366 4.75 4
      vertex 10.4397 4.59202 4
    endloop
  endfacet
  facet normal 0 0 1
    outer loop
      vertex 20.5 8.5 4
      vertex 10.266 4.89279 4
      vertex 10.366 4.75 4
    endloop
  endfacet
  facet normal 0 0 1
    outer loop
      vertex 20.5 8.5 4
      vertex 10.1428 5.01604 4
      vertex 10.266 4.89279 4
    endloop
  endfacet
  facet normal 0 0 1
    outer loop
      vertex 20.5 8.5 4
      vertex 10 5.11602 4
      vertex 10.1428 5.01604 4
    endloop
  endfacet
  facet normal 0 0 1
    outer loop
      vertex 20.5 8.5 4
      vertex 9.84202 5.18969 4
      vertex 10 5.11602 4
    endloop
  endfacet
  facet normal 0 0 1
    outer loop
      vertex 20.5 8.5 4
      vertex 9.67365 5.23481 4
      vertex 9.84202 5.18969 4
    endloop
  endfacet
  facet normal 0 0 1
    outer loop
      vertex 20.5 8.5 4
      vertex 9.5 5.25 4
      vertex 9.67365 5.23481 4
    endloop
  endfacet
  facet normal -0 0 1
    outer loop
      vertex 0 8.5 4
      vertex 9.5 5.25 4
      vertex 20.5 8.5 4
    endloop
  endfacet
  facet normal 0 0 1
    outer loop
      vertex 9.5 5.25 4
      vertex 0 8.5 4
      vertex 9.32635 5.23481 4
    endloop
  endfacet
  facet normal 0 0 1
    outer loop
      vertex 8.51519 4.42365 4
      vertex 0 8.5 4
      vertex 8.5 4.25 4
    endloop
  endfacet
  facet normal 0 0 1
    outer loop
      vertex 8.56031 4.59202 4
      vertex 0 8.5 4
      vertex 8.51519 4.42365 4
    endloop
  endfacet
  facet normal 0 0 1
    outer loop
      vertex 8.63397 4.75 4
      vertex 0 8.5 4
      vertex 8.56031 4.59202 4
    endloop
  endfacet
  facet normal 0 0 1
    outer loop
      vertex 8.73396 4.89279 4
      vertex 0 8.5 4
      vertex 8.63397 4.75 4
    endloop
  endfacet
  facet normal 0 0 1
    outer loop
      vertex 8.85721 5.01604 4
      vertex 0 8.5 4
      vertex 8.73396 4.89279 4
    endloop
  endfacet
  facet normal 0 0 1
    outer loop
      vertex 9 5.11602 4
      vertex 0 8.5 4
      vertex 8.85721 5.01604 4
    endloop
  endfacet
  facet normal 0 0 1
    outer loop
      vertex 9.15798 5.18969 4
      vertex 0 8.5 4
      vertex 9 5.11602 4
    endloop
  endfacet
  facet normal 0 0 1
    outer loop
      vertex 9.32635 5.23481 4
      vertex 0 8.5 4
      vertex 9.15798 5.18969 4
    endloop
  endfacet
  facet normal -0 0 1
    outer loop
      vertex 10.4848 4.07635 4
      vertex 20.5 0 4
      vertex 10.5 4.25 4
    endloop
  endfacet
  facet normal -0 0 1
    outer loop
      vertex 10.4397 3.90798 4
      vertex 20.5 0 4
      vertex 10.4848 4.07635 4
    endloop
  endfacet
  facet normal -0 0 1
    outer loop
      vertex 10.366 3.75 4
      vertex 20.5 0 4
      vertex 10.4397 3.90798 4
    endloop
  endfacet
  facet normal -0 0 1
    outer loop
      vertex 10.266 3.60721 4
      vertex 20.5 0 4
      vertex 10.366 3.75 4
    endloop
  endfacet
  facet normal -0 0 1
    outer loop
      vertex 10.1428 3.48396 4
      vertex 20.5 0 4
      vertex 10.266 3.60721 4
    endloop
  endfacet
  facet normal -0 0 1
    outer loop
      vertex 10 3.38397 4
      vertex 20.5 0 4
      vertex 10.1428 3.48396 4
    endloop
  endfacet
  facet normal -0 0 1
    outer loop
      vertex 9.84202 3.31031 4
      vertex 20.5 0 4
      vertex 10 3.38397 4
    endloop
  endfacet
  facet normal -0 0 1
    outer loop
      vertex 9.67365 3.26519 4
      vertex 20.5 0 4
      vertex 9.84202 3.31031 4
    endloop
  endfacet
  facet normal -0 0 1
    outer loop
      vertex 9.5 3.25 4
      vertex 20.5 0 4
      vertex 9.67365 3.26519 4
    endloop
  endfacet
  facet normal 0 0 1
    outer loop
      vertex 0 0 4
      vertex 9.5 3.25 4
      vertex 9.32635 3.26519 4
    endloop
  endfacet
  facet normal 0 0 1
    outer loop
      vertex 0 0 4
      vertex 9.32635 3.26519 4
      vertex 9.15798 3.31031 4
    endloop
  endfacet
  facet normal 0 0 1
    outer loop
      vertex 0 0 4
      vertex 8.5 4.25 4
      vertex 0 8.5 4
    endloop
  endfacet
  facet normal 0 0 1
    outer loop
      vertex 8.5 4.25 4
      vertex 0 0 4
      vertex 8.51519 4.07635 4
    endloop
  endfacet
  facet normal 0 0 1
    outer loop
      vertex 8.51519 4.07635 4
      vertex 0 0 4
      vertex 8.56031 3.90798 4
    endloop
  endfacet
  facet normal 0 0 1
    outer loop
      vertex 8.56031 3.90798 4
      vertex 0 0 4
      vertex 8.63397 3.75 4
    endloop
  endfacet
  facet normal 0 0 1
    outer loop
      vertex 8.63397 3.75 4
      vertex 0 0 4
      vertex 8.73396 3.60721 4
    endloop
  endfacet
  facet normal 0 0 1
    outer loop
      vertex 8.73396 3.60721 4
      vertex 0 0 4
      vertex 8.85721 3.48396 4
    endloop
  endfacet
  facet normal 0 0 1
    outer loop
      vertex 9.5 3.25 4
      vertex 0 0 4
      vertex 20.5 0 4
    endloop
  endfacet
  facet normal 0 0 1
    outer loop
      vertex 9 3.38397 4
      vertex 0 0 4
      vertex 9.15798 3.31031 4
    endloop
  endfacet
  facet normal 0 0 1
    outer loop
      vertex 8.85721 3.48396 4
      vertex 0 0 4
      vertex 9 3.38397 4
    endloop
  endfacet
  facet normal 1 -0 0
    outer loop
      vertex 60 0 4
      vertex 60 8.5 0
      vertex 60 8.5 4
    endloop
  endfacet
  facet normal 1 0 0
    outer loop
      vertex 60 8.5 0
      vertex 60 0 4
      vertex 60 0 0
    endloop
  endfacet
  facet normal 0 1 -0
    outer loop
      vertex 60 8.5 0
      vertex 35.5 8.5 4
      vertex 60 8.5 4
    endloop
  endfacet
  facet normal 0 1 0
    outer loop
      vertex 35.5 8.5 4
      vertex 60 8.5 0
      vertex 30.5 8.5 4
    endloop
  endfacet
  facet normal 0 1 0
    outer loop
      vertex 0 8.5 0
      vertex 30.5 8.5 4
      vertex 60 8.5 0
    endloop
  endfacet
  facet normal 0 1 0
    outer loop
      vertex 30.5 8.5 4
      vertex 0 8.5 0
      vertex 25.5 8.5 4
    endloop
  endfacet
  facet normal 0 1 0
    outer loop
      vertex 25.5 8.5 4
      vertex 0 8.5 0
      vertex 20.5 8.5 4
    endloop
  endfacet
  facet normal 0 1 0
    outer loop
      vertex 20.5 8.5 4
      vertex 0 8.5 0
      vertex 0 8.5 4
    endloop
  endfacet
  facet normal 0 1 -0
    outer loop
      vertex 35.5 8.5 4
      vertex 30.5 8.5 11
      vertex 35.5 8.5 11
    endloop
  endfacet
  facet normal 0 1 0
    outer loop
      vertex 30.5 8.5 11
      vertex 35.5 8.5 4
      vertex 30.5 8.5 4
    endloop
  endfacet
  facet normal 0 1 -0
    outer loop
      vertex 25.5 8.5 4
      vertex 20.5 8.5 11
      vertex 25.5 8.5 11
    endloop
  endfacet
  facet normal 0 1 0
    outer loop
      vertex 20.5 8.5 11
      vertex 25.5 8.5 4
      vertex 20.5 8.5 4
    endloop
  endfacet
  facet normal 0 0 -1
    outer loop
      vertex 60 0 0
      vertex 51.5 4.25 0
      vertex 60 8.5 0
    endloop
  endfacet
  facet normal 0 0 -1
    outer loop
      vertex 60 0 0
      vertex 51.4848 4.07635 0
      vertex 51.5 4.25 0
    endloop
  endfacet
  facet normal 0 0 -1
    outer loop
      vertex 60 0 0
      vertex 51.4397 3.90798 0
      vertex 51.4848 4.07635 0
    endloop
  endfacet
  facet normal 0 0 -1
    outer loop
      vertex 60 0 0
      vertex 51.366 3.75 0
      vertex 51.4397 3.90798 0
    endloop
  endfacet
  facet normal 0 0 -1
    outer loop
      vertex 60 0 0
      vertex 51.266 3.60721 0
      vertex 51.366 3.75 0
    endloop
  endfacet
  facet normal 0 0 -1
    outer loop
      vertex 60 0 0
      vertex 51.1428 3.48396 0
      vertex 51.266 3.60721 0
    endloop
  endfacet
  facet normal 0 0 -1
    outer loop
      vertex 60 0 0
      vertex 51 3.38397 0
      vertex 51.1428 3.48396 0
    endloop
  endfacet
  facet normal 0 0 -1
    outer loop
      vertex 60 0 0
      vertex 50.842 3.31031 0
      vertex 51 3.38397 0
    endloop
  endfacet
  facet normal 0 0 -1
    outer loop
      vertex 60 0 0
      vertex 50.6736 3.26519 0
      vertex 50.842 3.31031 0
    endloop
  endfacet
  facet normal 0 0 -1
    outer loop
      vertex 60 0 0
      vertex 50.5 3.25 0
      vertex 50.6736 3.26519 0
    endloop
  endfacet
  facet normal 0 0 -1
    outer loop
      vertex 60 0 0
      vertex 50.3264 3.26519 0
      vertex 50.5 3.25 0
    endloop
  endfacet
  facet normal 0 0 -1
    outer loop
      vertex 60 0 0
      vertex 50.158 3.31031 0
      vertex 50.3264 3.26519 0
    endloop
  endfacet
  facet normal 0 0 -1
    outer loop
      vertex 49.5152 4.07635 0
      vertex 10.5 4.25 0
      vertex 49.5 4.25 0
    endloop
  endfacet
  facet normal 0 0 -1
    outer loop
      vertex 10.4848 4.07635 0
      vertex 49.5152 4.07635 0
      vertex 49.5603 3.90798 0
    endloop
  endfacet
  facet normal 0 0 -1
    outer loop
      vertex 10.4397 3.90798 0
      vertex 49.5603 3.90798 0
      vertex 49.634 3.75 0
    endloop
  endfacet
  facet normal 0 0 -1
    outer loop
      vertex 10.366 3.75 0
      vertex 49.634 3.75 0
      vertex 49.734 3.60721 0
    endloop
  endfacet
  facet normal 0 0 -1
    outer loop
      vertex 10.266 3.60721 0
      vertex 49.734 3.60721 0
      vertex 49.8572 3.48396 0
    endloop
  endfacet
  facet normal 0 0 -1
    outer loop
      vertex 10.1428 3.48396 0
      vertex 49.8572 3.48396 0
      vertex 50 3.38397 0
    endloop
  endfacet
  facet normal 0 0 -1
    outer loop
      vertex 10 3.38397 0
      vertex 50 3.38397 0
      vertex 50.158 3.31031 0
    endloop
  endfacet
  facet normal 0 0 -1
    outer loop
      vertex 9.84202 3.31031 0
      vertex 50.158 3.31031 0
      vertex 60 0 0
    endloop
  endfacet
  facet normal 0 0 -1
    outer loop
      vertex 49.5152 4.07635 0
      vertex 10.4848 4.07635 0
      vertex 10.5 4.25 0
    endloop
  endfacet
  facet normal 0 0 -1
    outer loop
      vertex 49.5603 3.90798 0
      vertex 10.4397 3.90798 0
      vertex 10.4848 4.07635 0
    endloop
  endfacet
  facet normal 0 0 -1
    outer loop
      vertex 49.634 3.75 0
      vertex 10.366 3.75 0
      vertex 10.4397 3.90798 0
    endloop
  endfacet
  facet normal 0 0 -1
    outer loop
      vertex 49.734 3.60721 0
      vertex 10.266 3.60721 0
      vertex 10.366 3.75 0
    endloop
  endfacet
  facet normal 0 0 -1
    outer loop
      vertex 49.8572 3.48396 0
      vertex 10.1428 3.48396 0
      vertex 10.266 3.60721 0
    endloop
  endfacet
  facet normal 0 0 -1
    outer loop
      vertex 50 3.38397 0
      vertex 10 3.38397 0
      vertex 10.1428 3.48396 0
    endloop
  endfacet
  facet normal 0 0 -1
    outer loop
      vertex 50.158 3.31031 0
      vertex 9.84202 3.31031 0
      vertex 10 3.38397 0
    endloop
  endfacet
  facet normal 0 0 -1
    outer loop
      vertex 60 0 0
      vertex 9.67365 3.26519 0
      vertex 9.84202 3.31031 0
    endloop
  endfacet
  facet normal 0 0 -1
    outer loop
      vertex 0 0 0
      vertex 9.67365 3.26519 0
      vertex 60 0 0
    endloop
  endfacet
  facet normal -0 0 -1
    outer loop
      vertex 8.51519 4.07635 0
      vertex 0 0 0
      vertex 8.5 4.25 0
    endloop
  endfacet
  facet normal -0 0 -1
    outer loop
      vertex 8.56031 3.90798 0
      vertex 0 0 0
      vertex 8.51519 4.07635 0
    endloop
  endfacet
  facet normal -0 0 -1
    outer loop
      vertex 8.63397 3.75 0
      vertex 0 0 0
      vertex 8.56031 3.90798 0
    endloop
  endfacet
  facet normal -0 0 -1
    outer loop
      vertex 8.73396 3.60721 0
      vertex 0 0 0
      vertex 8.63397 3.75 0
    endloop
  endfacet
  facet normal -0 0 -1
    outer loop
      vertex 8.85721 3.48396 0
      vertex 0 0 0
      vertex 8.73396 3.60721 0
    endloop
  endfacet
  facet normal -0 0 -1
    outer loop
      vertex 9 3.38397 0
      vertex 0 0 0
      vertex 8.85721 3.48396 0
    endloop
  endfacet
  facet normal -0 0 -1
    outer loop
      vertex 9.15798 3.31031 0
      vertex 0 0 0
      vertex 9 3.38397 0
    endloop
  endfacet
  facet normal -0 0 -1
    outer loop
      vertex 9.32635 3.26519 0
      vertex 0 0 0
      vertex 9.15798 3.31031 0
    endloop
  endfacet
  facet normal -0 0 -1
    outer loop
      vertex 9.5 3.25 0
      vertex 0 0 0
      vertex 9.32635 3.26519 0
    endloop
  endfacet
  facet normal 0 0 -1
    outer loop
      vertex 9.67365 3.26519 0
      vertex 0 0 0
      vertex 9.5 3.25 0
    endloop
  endfacet
  facet normal 0 0 -1
    outer loop
      vertex 51.4848 4.42365 0
      vertex 60 8.5 0
      vertex 51.5 4.25 0
    endloop
  endfacet
  facet normal 0 0 -1
    outer loop
      vertex 51.4397 4.59202 0
      vertex 60 8.5 0
      vertex 51.4848 4.42365 0
    endloop
  endfacet
  facet normal 0 0 -1
    outer loop
      vertex 51.366 4.75 0
      vertex 60 8.5 0
      vertex 51.4397 4.59202 0
    endloop
  endfacet
  facet normal 0 0 -1
    outer loop
      vertex 51.266 4.89279 0
      vertex 60 8.5 0
      vertex 51.366 4.75 0
    endloop
  endfacet
  facet normal 0 0 -1
    outer loop
      vertex 51.1428 5.01604 0
      vertex 60 8.5 0
      vertex 51.266 4.89279 0
    endloop
  endfacet
  facet normal 0 0 -1
    outer loop
      vertex 51 5.11602 0
      vertex 60 8.5 0
      vertex 51.1428 5.01604 0
    endloop
  endfacet
  facet normal 0 0 -1
    outer loop
      vertex 50.842 5.18969 0
      vertex 60 8.5 0
      vertex 51 5.11602 0
    endloop
  endfacet
  facet normal 0 0 -1
    outer loop
      vertex 50.6736 5.23481 0
      vertex 60 8.5 0
      vertex 50.842 5.18969 0
    endloop
  endfacet
  facet normal 0 0 -1
    outer loop
      vertex 50.5 5.25 0
      vertex 60 8.5 0
      vertex 50.6736 5.23481 0
    endloop
  endfacet
  facet normal 0 0 -1
    outer loop
      vertex 50.3264 5.23481 0
      vertex 60 8.5 0
      vertex 50.5 5.25 0
    endloop
  endfacet
  facet normal 0 0 -1
    outer loop
      vertex 50.158 5.18969 0
      vertex 60 8.5 0
      vertex 50.3264 5.23481 0
    endloop
  endfacet
  facet normal 0 0 -1
    outer loop
      vertex 10.5 4.25 0
      vertex 49.5152 4.42365 0
      vertex 49.5 4.25 0
    endloop
  endfacet
  facet normal 0 0 -1
    outer loop
      vertex 10.4848 4.42365 0
      vertex 49.5152 4.42365 0
      vertex 10.5 4.25 0
    endloop
  endfacet
  facet normal 0 0 -1
    outer loop
      vertex 49.5152 4.42365 0
      vertex 10.4848 4.42365 0
      vertex 49.5603 4.59202 0
    endloop
  endfacet
  facet normal 0 0 -1
    outer loop
      vertex 10.4397 4.59202 0
      vertex 49.5603 4.59202 0
      vertex 10.4848 4.42365 0
    endloop
  endfacet
  facet normal 0 0 -1
    outer loop
      vertex 49.5603 4.59202 0
      vertex 10.4397 4.59202 0
      vertex 49.634 4.75 0
    endloop
  endfacet
  facet normal 0 0 -1
    outer loop
      vertex 10.366 4.75 0
      vertex 49.634 4.75 0
      vertex 10.4397 4.59202 0
    endloop
  endfacet
  facet normal 0 0 -1
    outer loop
      vertex 49.634 4.75 0
      vertex 10.366 4.75 0
      vertex 49.734 4.89279 0
    endloop
  endfacet
  facet normal 0 0 -1
    outer loop
      vertex 10.266 4.89279 0
      vertex 49.734 4.89279 0
      vertex 10.366 4.75 0
    endloop
  endfacet
  facet normal 0 0 -1
    outer loop
      vertex 49.734 4.89279 0
      vertex 10.266 4.89279 0
      vertex 49.8572 5.01604 0
    endloop
  endfacet
  facet normal 0 0 -1
    outer loop
      vertex 10.1428 5.01604 0
      vertex 49.8572 5.01604 0
      vertex 10.266 4.89279 0
    endloop
  endfacet
  facet normal 0 0 -1
    outer loop
      vertex 49.8572 5.01604 0
      vertex 10.1428 5.01604 0
      vertex 50 5.11602 0
    endloop
  endfacet
  facet normal 0 0 -1
    outer loop
      vertex 10 5.11602 0
      vertex 50 5.11602 0
      vertex 10.1428 5.01604 0
    endloop
  endfacet
  facet normal 0 0 -1
    outer loop
      vertex 50 5.11602 0
      vertex 10 5.11602 0
      vertex 50.158 5.18969 0
    endloop
  endfacet
  facet normal 0 0 -1
    outer loop
      vertex 9.84202 5.18969 0
      vertex 50.158 5.18969 0
      vertex 10 5.11602 0
    endloop
  endfacet
  facet normal 0 0 -1
    outer loop
      vertex 50.158 5.18969 0
      vertex 9.84202 5.18969 0
      vertex 60 8.5 0
    endloop
  endfacet
  facet normal 0 0 -1
    outer loop
      vertex 9.67365 5.23481 0
      vertex 60 8.5 0
      vertex 9.84202 5.18969 0
    endloop
  endfacet
  facet normal 0 0 -1
    outer loop
      vertex 0 8.5 0
      vertex 9.67365 5.23481 0
      vertex 9.5 5.25 0
    endloop
  endfacet
  facet normal 0 0 -1
    outer loop
      vertex 0 8.5 0
      vertex 8.5 4.25 0
      vertex 0 0 0
    endloop
  endfacet
  facet normal 0 0 -1
    outer loop
      vertex 8.5 4.25 0
      vertex 0 8.5 0
      vertex 8.51519 4.42365 0
    endloop
  endfacet
  facet normal 0 0 -1
    outer loop
      vertex 8.51519 4.42365 0
      vertex 0 8.5 0
      vertex 8.56031 4.59202 0
    endloop
  endfacet
  facet normal 0 0 -1
    outer loop
      vertex 8.56031 4.59202 0
      vertex 0 8.5 0
      vertex 8.63397 4.75 0
    endloop
  endfacet
  facet normal 0 0 -1
    outer loop
      vertex 8.63397 4.75 0
      vertex 0 8.5 0
      vertex 8.73396 4.89279 0
    endloop
  endfacet
  facet normal 0 0 -1
    outer loop
      vertex 8.73396 4.89279 0
      vertex 0 8.5 0
      vertex 8.85721 5.01604 0
    endloop
  endfacet
  facet normal 0 0 -1
    outer loop
      vertex 9.67365 5.23481 0
      vertex 0 8.5 0
      vertex 60 8.5 0
    endloop
  endfacet
  facet normal 0 0 -1
    outer loop
      vertex 9.32635 5.23481 0
      vertex 0 8.5 0
      vertex 9.5 5.25 0
    endloop
  endfacet
  facet normal 0 0 -1
    outer loop
      vertex 9.15798 5.18969 0
      vertex 0 8.5 0
      vertex 9.32635 5.23481 0
    endloop
  endfacet
  facet normal 0 0 -1
    outer loop
      vertex 9 5.11602 0
      vertex 0 8.5 0
      vertex 9.15798 5.18969 0
    endloop
  endfacet
  facet normal 0 0 -1
    outer loop
      vertex 8.85721 5.01604 0
      vertex 0 8.5 0
      vertex 9 5.11602 0
    endloop
  endfacet
  facet normal 0 -1 0
    outer loop
      vertex 0 0 0
      vertex 20.5 0 4
      vertex 0 0 4
    endloop
  endfacet
  facet normal 0 -1 -0
    outer loop
      vertex 20.5 0 4
      vertex 0 0 0
      vertex 25.5 0 4
    endloop
  endfacet
  facet normal 0 -1 -0
    outer loop
      vertex 25.5 0 4
      vertex 0 0 0
      vertex 30.5 0 4
    endloop
  endfacet
  facet normal 0 -1 0
    outer loop
      vertex 60 0 0
      vertex 30.5 0 4
      vertex 0 0 0
    endloop
  endfacet
  facet normal 0 -1 0
    outer loop
      vertex 30.5 0 4
      vertex 60 0 0
      vertex 35.5 0 4
    endloop
  endfacet
  facet normal 0 -1 0
    outer loop
      vertex 35.5 0 4
      vertex 60 0 0
      vertex 60 0 4
    endloop
  endfacet
  facet normal 0 -1 0
    outer loop
      vertex 20.5 0 4
      vertex 25.5 0 11
      vertex 20.5 0 11
    endloop
  endfacet
  facet normal 0 -1 -0
    outer loop
      vertex 25.5 0 11
      vertex 20.5 0 4
      vertex 25.5 0 4
    endloop
  endfacet
  facet normal 0 -1 0
    outer loop
      vertex 30.5 0 4
      vertex 35.5 0 11
      vertex 30.5 0 11
    endloop
  endfacet
  facet normal 0 -1 -0
    outer loop
      vertex 35.5 0 11
      vertex 30.5 0 4
      vertex 35.5 0 4
    endloop
  endfacet
  facet normal -1 0 0
    outer loop
      vertex 20.5 5.82569 7.27784
      vertex 20.5 8.5 4
      vertex 20.5 5.85 7
    endloop
  endfacet
  facet normal -1 0 0
    outer loop
      vertex 20.5 8.5 4
      vertex 20.5 5.82569 6.72216
      vertex 20.5 5.85 7
    endloop
  endfacet
  facet normal -1 0 0
    outer loop
      vertex 20.5 8.5 4
      vertex 20.5 5.75351 6.45277
      vertex 20.5 5.82569 6.72216
    endloop
  endfacet
  facet normal -1 0 0
    outer loop
      vertex 20.5 8.5 4
      vertex 20.5 5.63564 6.2
      vertex 20.5 5.75351 6.45277
    endloop
  endfacet
  facet normal -1 0 0
    outer loop
      vertex 20.5 8.5 4
      vertex 20.5 5.47567 5.97154
      vertex 20.5 5.63564 6.2
    endloop
  endfacet
  facet normal -1 0 0
    outer loop
      vertex 20.5 8.5 4
      vertex 20.5 5.27846 5.77433
      vertex 20.5 5.47567 5.97154
    endloop
  endfacet
  facet normal -1 0 0
    outer loop
      vertex 20.5 8.5 4
      vertex 20.5 5.05 5.61436
      vertex 20.5 5.27846 5.77433
    endloop
  endfacet
  facet normal -1 0 0
    outer loop
      vertex 20.5 8.5 4
      vertex 20.5 4.79723 5.49649
      vertex 20.5 5.05 5.61436
    endloop
  endfacet
  facet normal -1 0 0
    outer loop
      vertex 20.5 8.5 4
      vertex 20.5 4.52784 5.42431
      vertex 20.5 4.79723 5.49649
    endloop
  endfacet
  facet normal -1 0 0
    outer loop
      vertex 20.5 8.5 4
      vertex 20.5 4.25 5.4
      vertex 20.5 4.52784 5.42431
    endloop
  endfacet
  facet normal -1 0 0
    outer loop
      vertex 20.5 0 4
      vertex 20.5 4.25 5.4
      vertex 20.5 8.5 4
    endloop
  endfacet
  facet normal -1 -0 0
    outer loop
      vertex 20.5 4.25 5.4
      vertex 20.5 0 4
      vertex 20.5 3.97216 5.42431
    endloop
  endfacet
  facet normal -1 -0 0
    outer loop
      vertex 20.5 2.67431 6.72216
      vertex 20.5 0 4
      vertex 20.5 2.65 7
    endloop
  endfacet
  facet normal -1 -0 0
    outer loop
      vertex 20.5 2.74649 6.45277
      vertex 20.5 0 4
      vertex 20.5 2.67431 6.72216
    endloop
  endfacet
  facet normal -1 -0 0
    outer loop
      vertex 20.5 2.86436 6.2
      vertex 20.5 0 4
      vertex 20.5 2.74649 6.45277
    endloop
  endfacet
  facet normal -1 -0 0
    outer loop
      vertex 20.5 3.02433 5.97154
      vertex 20.5 0 4
      vertex 20.5 2.86436 6.2
    endloop
  endfacet
  facet normal -1 -0 0
    outer loop
      vertex 20.5 3.22154 5.77433
      vertex 20.5 0 4
      vertex 20.5 3.02433 5.97154
    endloop
  endfacet
  facet normal -1 -0 0
    outer loop
      vertex 20.5 3.45 5.61436
      vertex 20.5 0 4
      vertex 20.5 3.22154 5.77433
    endloop
  endfacet
  facet normal -1 -0 0
    outer loop
      vertex 20.5 3.70277 5.49649
      vertex 20.5 0 4
      vertex 20.5 3.45 5.61436
    endloop
  endfacet
  facet normal -1 -0 0
    outer loop
      vertex 20.5 3.97216 5.42431
      vertex 20.5 0 4
      vertex 20.5 3.70277 5.49649
    endloop
  endfacet
  facet normal -1 0 0
    outer loop
      vertex 20.5 8.5 4
      vertex 20.5 5.82569 7.27784
      vertex 20.5 8.5 11
    endloop
  endfacet
  facet normal -1 0 0
    outer loop
      vertex 20.5 5.75351 7.54723
      vertex 20.5 8.5 11
      vertex 20.5 5.82569 7.27784
    endloop
  endfacet
  facet normal -1 0 0
    outer loop
      vertex 20.5 5.63564 7.8
      vertex 20.5 8.5 11
      vertex 20.5 5.75351 7.54723
    endloop
  endfacet
  facet normal -1 0 0
    outer loop
      vertex 20.5 5.47567 8.02846
      vertex 20.5 8.5 11
      vertex 20.5 5.63564 7.8
    endloop
  endfacet
  facet normal -1 0 0
    outer loop
      vertex 20.5 5.27846 8.22567
      vertex 20.5 8.5 11
      vertex 20.5 5.47567 8.02846
    endloop
  endfacet
  facet normal -1 0 0
    outer loop
      vertex 20.5 5.05 8.38564
      vertex 20.5 8.5 11
      vertex 20.5 5.27846 8.22567
    endloop
  endfacet
  facet normal -1 0 0
    outer loop
      vertex 20.5 4.79723 8.50351
      vertex 20.5 8.5 11
      vertex 20.5 5.05 8.38564
    endloop
  endfacet
  facet normal -1 0 0
    outer loop
      vertex 20.5 4.52784 8.57569
      vertex 20.5 8.5 11
      vertex 20.5 4.79723 8.50351
    endloop
  endfacet
  facet normal -1 0 0
    outer loop
      vertex 20.5 4.25 8.6
      vertex 20.5 8.5 11
      vertex 20.5 4.52784 8.57569
    endloop
  endfacet
  facet normal -1 0 0
    outer loop
      vertex 20.5 0 11
      vertex 20.5 4.25 8.6
      vertex 20.5 3.97216 8.57569
    endloop
  endfacet
  facet normal -1 0 0
    outer loop
      vertex 20.5 0 11
      vertex 20.5 3.97216 8.57569
      vertex 20.5 3.70277 8.50351
    endloop
  endfacet
  facet normal -1 0 0
    outer loop
      vertex 20.5 0 11
      vertex 20.5 3.70277 8.50351
      vertex 20.5 3.45 8.38564
    endloop
  endfacet
  facet normal -1 0 0
    outer loop
      vertex 20.5 0 4
      vertex 20.5 2.67431 7.27784
      vertex 20.5 2.65 7
    endloop
  endfacet
  facet normal -1 0 0
    outer loop
      vertex 20.5 0 11
      vertex 20.5 2.67431 7.27784
      vertex 20.5 0 4
    endloop
  endfacet
  facet normal -1 0 0
    outer loop
      vertex 20.5 2.67431 7.27784
      vertex 20.5 0 11
      vertex 20.5 2.74649 7.54723
    endloop
  endfacet
  facet normal -1 0 0
    outer loop
      vertex 20.5 2.74649 7.54723
      vertex 20.5 0 11
      vertex 20.5 2.86436 7.8
    endloop
  endfacet
  facet normal -1 0 0
    outer loop
      vertex 20.5 4.25 8.6
      vertex 20.5 0 11
      vertex 20.5 8.5 11
    endloop
  endfacet
  facet normal -1 0 0
    outer loop
      vertex 20.5 3.22154 8.22567
      vertex 20.5 0 11
      vertex 20.5 3.45 8.38564
    endloop
  endfacet
  facet normal -1 0 0
    outer loop
      vertex 20.5 3.02433 8.02846
      vertex 20.5 0 11
      vertex 20.5 3.22154 8.22567
    endloop
  endfacet
  facet normal -1 0 0
    outer loop
      vertex 20.5 2.86436 7.8
      vertex 20.5 0 11
      vertex 20.5 3.02433 8.02846
    endloop
  endfacet
  facet normal -0 0 1
    outer loop
      vertex 20.5 8.5 11
      vertex 25.5 0 11
      vertex 25.5 8.5 11
    endloop
  endfacet
  facet normal 0 0 1
    outer loop
      vertex 25.5 0 11
      vertex 20.5 8.5 11
      vertex 20.5 0 11
    endloop
  endfacet
  facet normal 1 -0 0
    outer loop
      vertex 25.5 5.82569 7.27784
      vertex 25.5 8.5 4
      vertex 25.5 8.5 11
    endloop
  endfacet
  facet normal 1 0 0
    outer loop
      vertex 25.5 8.5 4
      vertex 25.5 5.82569 7.27784
      vertex 25.5 5.85 7
    endloop
  endfacet
  facet normal 1 0 0
    outer loop
      vertex 25.5 8.5 11
      vertex 25.5 5.75351 7.54723
      vertex 25.5 5.82569 7.27784
    endloop
  endfacet
  facet normal 1 0 0
    outer loop
      vertex 25.5 8.5 11
      vertex 25.5 5.63564 7.8
      vertex 25.5 5.75351 7.54723
    endloop
  endfacet
  facet normal 1 0 0
    outer loop
      vertex 25.5 8.5 11
      vertex 25.5 5.47567 8.02846
      vertex 25.5 5.63564 7.8
    endloop
  endfacet
  facet normal 1 0 0
    outer loop
      vertex 25.5 8.5 11
      vertex 25.5 5.27846 8.22567
      vertex 25.5 5.47567 8.02846
    endloop
  endfacet
  facet normal 1 0 0
    outer loop
      vertex 25.5 8.5 11
      vertex 25.5 5.05 8.38564
      vertex 25.5 5.27846 8.22567
    endloop
  endfacet
  facet normal 1 0 0
    outer loop
      vertex 25.5 8.5 11
      vertex 25.5 4.79723 8.50351
      vertex 25.5 5.05 8.38564
    endloop
  endfacet
  facet normal 1 0 0
    outer loop
      vertex 25.5 8.5 11
      vertex 25.5 4.52784 8.57569
      vertex 25.5 4.79723 8.50351
    endloop
  endfacet
  facet normal 1 0 0
    outer loop
      vertex 25.5 8.5 11
      vertex 25.5 4.25 8.6
      vertex 25.5 4.52784 8.57569
    endloop
  endfacet
  facet normal 1 -0 0
    outer loop
      vertex 25.5 0 11
      vertex 25.5 4.25 8.6
      vertex 25.5 8.5 11
    endloop
  endfacet
  facet normal 1 0 0
    outer loop
      vertex 25.5 4.25 8.6
      vertex 25.5 0 11
      vertex 25.5 3.97216 8.57569
    endloop
  endfacet
  facet normal 1 0 0
    outer loop
      vertex 25.5 3.97216 8.57569
      vertex 25.5 0 11
      vertex 25.5 3.70277 8.50351
    endloop
  endfacet
  facet normal 1 0 0
    outer loop
      vertex 25.5 0 4
      vertex 25.5 2.67431 7.27784
      vertex 25.5 0 11
    endloop
  endfacet
  facet normal 1 0 0
    outer loop
      vertex 25.5 2.74649 7.54723
      vertex 25.5 0 11
      vertex 25.5 2.67431 7.27784
    endloop
  endfacet
  facet normal 1 0 0
    outer loop
      vertex 25.5 2.86436 7.8
      vertex 25.5 0 11
      vertex 25.5 2.74649 7.54723
    endloop
  endfacet
  facet normal 1 0 0
    outer loop
      vertex 25.5 3.02433 8.02846
      vertex 25.5 0 11
      vertex 25.5 2.86436 7.8
    endloop
  endfacet
  facet normal 1 0 0
    outer loop
      vertex 25.5 3.22154 8.22567
      vertex 25.5 0 11
      vertex 25.5 3.02433 8.02846
    endloop
  endfacet
  facet normal 1 0 0
    outer loop
      vertex 25.5 3.45 8.38564
      vertex 25.5 0 11
      vertex 25.5 3.22154 8.22567
    endloop
  endfacet
  facet normal 1 0 0
    outer loop
      vertex 25.5 3.70277 8.50351
      vertex 25.5 0 11
      vertex 25.5 3.45 8.38564
    endloop
  endfacet
  facet normal 1 -0 0
    outer loop
      vertex 25.5 5.82569 6.72216
      vertex 25.5 8.5 4
      vertex 25.5 5.85 7
    endloop
  endfacet
  facet normal 1 -0 0
    outer loop
      vertex 25.5 5.75351 6.45277
      vertex 25.5 8.5 4
      vertex 25.5 5.82569 6.72216
    endloop
  endfacet
  facet normal 1 -0 0
    outer loop
      vertex 25.5 5.63564 6.2
      vertex 25.5 8.5 4
      vertex 25.5 5.75351 6.45277
    endloop
  endfacet
  facet normal 1 -0 0
    outer loop
      vertex 25.5 5.47567 5.97154
      vertex 25.5 8.5 4
      vertex 25.5 5.63564 6.2
    endloop
  endfacet
  facet normal 1 -0 0
    outer loop
      vertex 25.5 5.27846 5.77433
      vertex 25.5 8.5 4
      vertex 25.5 5.47567 5.97154
    endloop
  endfacet
  facet normal 1 -0 0
    outer loop
      vertex 25.5 5.05 5.61436
      vertex 25.5 8.5 4
      vertex 25.5 5.27846 5.77433
    endloop
  endfacet
  facet normal 1 -0 0
    outer loop
      vertex 25.5 4.79723 5.49649
      vertex 25.5 8.5 4
      vertex 25.5 5.05 5.61436
    endloop
  endfacet
  facet normal 1 -0 0
    outer loop
      vertex 25.5 4.52784 5.42431
      vertex 25.5 8.5 4
      vertex 25.5 4.79723 5.49649
    endloop
  endfacet
  facet normal 1 -0 0
    outer loop
      vertex 25.5 4.25 5.4
      vertex 25.5 8.5 4
      vertex 25.5 4.52784 5.42431
    endloop
  endfacet
  facet normal 1 0 0
    outer loop
      vertex 25.5 0 4
      vertex 25.5 4.25 5.4
      vertex 25.5 3.97216 5.42431
    endloop
  endfacet
  facet normal 1 0 0
    outer loop
      vertex 25.5 0 4
      vertex 25.5 3.97216 5.42431
      vertex 25.5 3.70277 5.49649
    endloop
  endfacet
  facet normal 1 0 0
    outer loop
      vertex 25.5 2.67431 7.27784
      vertex 25.5 0 4
      vertex 25.5 2.65 7
    endloop
  endfacet
  facet normal 1 0 0
    outer loop
      vertex 25.5 2.65 7
      vertex 25.5 0 4
      vertex 25.5 2.67431 6.72216
    endloop
  endfacet
  facet normal 1 0 0
    outer loop
      vertex 25.5 2.67431 6.72216
      vertex 25.5 0 4
      vertex 25.5 2.74649 6.45277
    endloop
  endfacet
  facet normal 1 0 0
    outer loop
      vertex 25.5 4.25 5.4
      vertex 25.5 0 4
      vertex 25.5 8.5 4
    endloop
  endfacet
  facet normal 1 0 0
    outer loop
      vertex 25.5 3.45 5.61436
      vertex 25.5 0 4
      vertex 25.5 3.70277 5.49649
    endloop
  endfacet
  facet normal 1 0 0
    outer loop
      vertex 25.5 3.22154 5.77433
      vertex 25.5 0 4
      vertex 25.5 3.45 5.61436
    endloop
  endfacet
  facet normal 1 0 0
    outer loop
      vertex 25.5 3.02433 5.97154
      vertex 25.5 0 4
      vertex 25.5 3.22154 5.77433
    endloop
  endfacet
  facet normal 1 0 0
    outer loop
      vertex 25.5 2.86436 6.2
      vertex 25.5 0 4
      vertex 25.5 3.02433 5.97154
    endloop
  endfacet
  facet normal 1 0 0
    outer loop
      vertex 25.5 2.74649 6.45277
      vertex 25.5 0 4
      vertex 25.5 2.86436 6.2
    endloop
  endfacet
  facet normal -1 0 0
    outer loop
      vertex 30.5 5.82569 7.27784
      vertex 30.5 8.5 4
      vertex 30.5 5.85 7
    endloop
  endfacet
  facet normal -1 0 0
    outer loop
      vertex 30.5 8.5 4
      vertex 30.5 5.82569 6.72216
      vertex 30.5 5.85 7
    endloop
  endfacet
  facet normal -1 0 0
    outer loop
      vertex 30.5 8.5 4
      vertex 30.5 5.75351 6.45277
      vertex 30.5 5.82569 6.72216
    endloop
  endfacet
  facet normal -1 0 0
    outer loop
      vertex 30.5 8.5 4
      vertex 30.5 5.63564 6.2
      vertex 30.5 5.75351 6.45277
    endloop
  endfacet
  facet normal -1 0 0
    outer loop
      vertex 30.5 8.5 4
      vertex 30.5 5.47567 5.97154
      vertex 30.5 5.63564 6.2
    endloop
  endfacet
  facet normal -1 0 0
    outer loop
      vertex 30.5 8.5 4
      vertex 30.5 5.27846 5.77433
      vertex 30.5 5.47567 5.97154
    endloop
  endfacet
  facet normal -1 0 0
    outer loop
      vertex 30.5 8.5 4
      vertex 30.5 5.05 5.61436
      vertex 30.5 5.27846 5.77433
    endloop
  endfacet
  facet normal -1 0 0
    outer loop
      vertex 30.5 8.5 4
      vertex 30.5 4.79723 5.49649
      vertex 30.5 5.05 5.61436
    endloop
  endfacet
  facet normal -1 0 0
    outer loop
      vertex 30.5 8.5 4
      vertex 30.5 4.52784 5.42431
      vertex 30.5 4.79723 5.49649
    endloop
  endfacet
  facet normal -1 0 0
    outer loop
      vertex 30.5 8.5 4
      vertex 30.5 4.25 5.4
      vertex 30.5 4.52784 5.42431
    endloop
  endfacet
  facet normal -1 0 0
    outer loop
      vertex 30.5 0 4
      vertex 30.5 4.25 5.4
      vertex 30.5 8.5 4
    endloop
  endfacet
  facet normal -1 -0 0
    outer loop
      vertex 30.5 4.25 5.4
      vertex 30.5 0 4
      vertex 30.5 3.97216 5.42431
    endloop
  endfacet
  facet normal -1 -0 0
    outer loop
      vertex 30.5 2.67431 6.72216
      vertex 30.5 0 4
      vertex 30.5 2.65 7
    endloop
  endfacet
  facet normal -1 -0 0
    outer loop
      vertex 30.5 2.74649 6.45277
      vertex 30.5 0 4
      vertex 30.5 2.67431 6.72216
    endloop
  endfacet
  facet normal -1 -0 0
    outer loop
      vertex 30.5 2.86436 6.2
      vertex 30.5 0 4
      vertex 30.5 2.74649 6.45277
    endloop
  endfacet
  facet normal -1 -0 0
    outer loop
      vertex 30.5 3.02433 5.97154
      vertex 30.5 0 4
      vertex 30.5 2.86436 6.2
    endloop
  endfacet
  facet normal -1 -0 0
    outer loop
      vertex 30.5 3.22154 5.77433
      vertex 30.5 0 4
      vertex 30.5 3.02433 5.97154
    endloop
  endfacet
  facet normal -1 -0 0
    outer loop
      vertex 30.5 3.45 5.61436
      vertex 30.5 0 4
      vertex 30.5 3.22154 5.77433
    endloop
  endfacet
  facet normal -1 -0 0
    outer loop
      vertex 30.5 3.70277 5.49649
      vertex 30.5 0 4
      vertex 30.5 3.45 5.61436
    endloop
  endfacet
  facet normal -1 -0 0
    outer loop
      vertex 30.5 3.97216 5.42431
      vertex 30.5 0 4
      vertex 30.5 3.70277 5.49649
    endloop
  endfacet
  facet normal -1 0 0
    outer loop
      vertex 30.5 8.5 4
      vertex 30.5 5.82569 7.27784
      vertex 30.5 8.5 11
    endloop
  endfacet
  facet normal -1 0 0
    outer loop
      vertex 30.5 5.75351 7.54723
      vertex 30.5 8.5 11
      vertex 30.5 5.82569 7.27784
    endloop
  endfacet
  facet normal -1 0 0
    outer loop
      vertex 30.5 5.63564 7.8
      vertex 30.5 8.5 11
      vertex 30.5 5.75351 7.54723
    endloop
  endfacet
  facet normal -1 0 0
    outer loop
      vertex 30.5 5.47567 8.02846
      vertex 30.5 8.5 11
      vertex 30.5 5.63564 7.8
    endloop
  endfacet
  facet normal -1 0 0
    outer loop
      vertex 30.5 5.27846 8.22567
      vertex 30.5 8.5 11
      vertex 30.5 5.47567 8.02846
    endloop
  endfacet
  facet normal -1 0 0
    outer loop
      vertex 30.5 5.05 8.38564
      vertex 30.5 8.5 11
      vertex 30.5 5.27846 8.22567
    endloop
  endfacet
  facet normal -1 0 0
    outer loop
      vertex 30.5 4.79723 8.50351
      vertex 30.5 8.5 11
      vertex 30.5 5.05 8.38564
    endloop
  endfacet
  facet normal -1 0 0
    outer loop
      vertex 30.5 4.52784 8.57569
      vertex 30.5 8.5 11
      vertex 30.5 4.79723 8.50351
    endloop
  endfacet
  facet normal -1 0 0
    outer loop
      vertex 30.5 4.25 8.6
      vertex 30.5 8.5 11
      vertex 30.5 4.52784 8.57569
    endloop
  endfacet
  facet normal -1 0 0
    outer loop
      vertex 30.5 0 11
      vertex 30.5 4.25 8.6
      vertex 30.5 3.97216 8.57569
    endloop
  endfacet
  facet normal -1 0 0
    outer loop
      vertex 30.5 0 11
      vertex 30.5 3.97216 8.57569
      vertex 30.5 3.70277 8.50351
    endloop
  endfacet
  facet normal -1 0 0
    outer loop
      vertex 30.5 0 11
      vertex 30.5 3.70277 8.50351
      vertex 30.5 3.45 8.38564
    endloop
  endfacet
  facet normal -1 0 0
    outer loop
      vertex 30.5 0 4
      vertex 30.5 2.67431 7.27784
      vertex 30.5 2.65 7
    endloop
  endfacet
  facet normal -1 0 0
    outer loop
      vertex 30.5 0 11
      vertex 30.5 2.67431 7.27784
      vertex 30.5 0 4
    endloop
  endfacet
  facet normal -1 0 0
    outer loop
      vertex 30.5 2.67431 7.27784
      vertex 30.5 0 11
      vertex 30.5 2.74649 7.54723
    endloop
  endfacet
  facet normal -1 0 0
    outer loop
      vertex 30.5 2.74649 7.54723
      vertex 30.5 0 11
      vertex 30.5 2.86436 7.8
    endloop
  endfacet
  facet normal -1 0 0
    outer loop
      vertex 30.5 4.25 8.6
      vertex 30.5 0 11
      vertex 30.5 8.5 11
    endloop
  endfacet
  facet normal -1 0 0
    outer loop
      vertex 30.5 3.22154 8.22567
      vertex 30.5 0 11
      vertex 30.5 3.45 8.38564
    endloop
  endfacet
  facet normal -1 0 0
    outer loop
      vertex 30.5 3.02433 8.02846
      vertex 30.5 0 11
      vertex 30.5 3.22154 8.22567
    endloop
  endfacet
  facet normal -1 0 0
    outer loop
      vertex 30.5 2.86436 7.8
      vertex 30.5 0 11
      vertex 30.5 3.02433 8.02846
    endloop
  endfacet
  facet normal -0 0 1
    outer loop
      vertex 30.5 8.5 11
      vertex 35.5 0 11
      vertex 35.5 8.5 11
    endloop
  endfacet
  facet normal 0 0 1
    outer loop
      vertex 35.5 0 11
      vertex 30.5 8.5 11
      vertex 30.5 0 11
    endloop
  endfacet
  facet normal 1 -0 0
    outer loop
      vertex 35.5 5.82569 7.27784
      vertex 35.5 8.5 4
      vertex 35.5 8.5 11
    endloop
  endfacet
  facet normal 1 0 0
    outer loop
      vertex 35.5 8.5 4
      vertex 35.5 5.82569 7.27784
      vertex 35.5 5.85 7
    endloop
  endfacet
  facet normal 1 0 0
    outer loop
      vertex 35.5 8.5 11
      vertex 35.5 5.75351 7.54723
      vertex 35.5 5.82569 7.27784
    endloop
  endfacet
  facet normal 1 0 0
    outer loop
      vertex 35.5 8.5 11
      vertex 35.5 5.63564 7.8
      vertex 35.5 5.75351 7.54723
    endloop
  endfacet
  facet normal 1 0 0
    outer loop
      vertex 35.5 8.5 11
      vertex 35.5 5.47567 8.02846
      vertex 35.5 5.63564 7.8
    endloop
  endfacet
  facet normal 1 0 0
    outer loop
      vertex 35.5 8.5 11
      vertex 35.5 5.27846 8.22567
      vertex 35.5 5.47567 8.02846
    endloop
  endfacet
  facet normal 1 0 0
    outer loop
      vertex 35.5 8.5 11
      vertex 35.5 5.05 8.38564
      vertex 35.5 5.27846 8.22567
    endloop
  endfacet
  facet normal 1 0 0
    outer loop
      vertex 35.5 8.5 11
      vertex 35.5 4.79723 8.50351
      vertex 35.5 5.05 8.38564
    endloop
  endfacet
  facet normal 1 0 0
    outer loop
      vertex 35.5 8.5 11
      vertex 35.5 4.52784 8.57569
      vertex 35.5 4.79723 8.50351
    endloop
  endfacet
  facet normal 1 0 0
    outer loop
      vertex 35.5 8.5 11
      vertex 35.5 4.25 8.6
      vertex 35.5 4.52784 8.57569
    endloop
  endfacet
  facet normal 1 -0 0
    outer loop
      vertex 35.5 0 11
      vertex 35.5 4.25 8.6
      vertex 35.5 8.5 11
    endloop
  endfacet
  facet normal 1 0 0
    outer loop
      vertex 35.5 4.25 8.6
      vertex 35.5 0 11
      vertex 35.5 3.97216 8.57569
    endloop
  endfacet
  facet normal 1 0 0
    outer loop
      vertex 35.5 3.97216 8.57569
      vertex 35.5 0 11
      vertex 35.5 3.70277 8.50351
    endloop
  endfacet
  facet normal 1 0 0
    outer loop
      vertex 35.5 0 4
      vertex 35.5 2.67431 7.27784
      vertex 35.5 0 11
    endloop
  endfacet
  facet normal 1 0 0
    outer loop
      vertex 35.5 2.74649 7.54723
      vertex 35.5 0 11
      vertex 35.5 2.67431 7.27784
    endloop
  endfacet
  facet normal 1 0 0
    outer loop
      vertex 35.5 2.86436 7.8
      vertex 35.5 0 11
      vertex 35.5 2.74649 7.54723
    endloop
  endfacet
  facet normal 1 0 0
    outer loop
      vertex 35.5 3.02433 8.02846
      vertex 35.5 0 11
      vertex 35.5 2.86436 7.8
    endloop
  endfacet
  facet normal 1 0 0
    outer loop
      vertex 35.5 3.22154 8.22567
      vertex 35.5 0 11
      vertex 35.5 3.02433 8.02846
    endloop
  endfacet
  facet normal 1 0 0
    outer loop
      vertex 35.5 3.45 8.38564
      vertex 35.5 0 11
      vertex 35.5 3.22154 8.22567
    endloop
  endfacet
  facet normal 1 0 0
    outer loop
      vertex 35.5 3.70277 8.50351
      vertex 35.5 0 11
      vertex 35.5 3.45 8.38564
    endloop
  endfacet
  facet normal 1 -0 0
    outer loop
      vertex 35.5 5.82569 6.72216
      vertex 35.5 8.5 4
      vertex 35.5 5.85 7
    endloop
  endfacet
  facet normal 1 -0 0
    outer loop
      vertex 35.5 5.75351 6.45277
      vertex 35.5 8.5 4
      vertex 35.5 5.82569 6.72216
    endloop
  endfacet
  facet normal 1 -0 0
    outer loop
      vertex 35.5 5.63564 6.2
      vertex 35.5 8.5 4
      vertex 35.5 5.75351 6.45277
    endloop
  endfacet
  facet normal 1 -0 0
    outer loop
      vertex 35.5 5.47567 5.97154
      vertex 35.5 8.5 4
      vertex 35.5 5.63564 6.2
    endloop
  endfacet
  facet normal 1 -0 0
    outer loop
      vertex 35.5 5.27846 5.77433
      vertex 35.5 8.5 4
      vertex 35.5 5.47567 5.97154
    endloop
  endfacet
  facet normal 1 -0 0
    outer loop
      vertex 35.5 5.05 5.61436
      vertex 35.5 8.5 4
      vertex 35.5 5.27846 5.77433
    endloop
  endfacet
  facet normal 1 -0 0
    outer loop
      vertex 35.5 4.79723 5.49649
      vertex 35.5 8.5 4
      vertex 35.5 5.05 5.61436
    endloop
  endfacet
  facet normal 1 -0 0
    outer loop
      vertex 35.5 4.52784 5.42431
      vertex 35.5 8.5 4
      vertex 35.5 4.79723 5.49649
    endloop
  endfacet
  facet normal 1 -0 0
    outer loop
      vertex 35.5 4.25 5.4
      vertex 35.5 8.5 4
      vertex 35.5 4.52784 5.42431
    endloop
  endfacet
  facet normal 1 0 0
    outer loop
      vertex 35.5 0 4
      vertex 35.5 4.25 5.4
      vertex 35.5 3.97216 5.42431
    endloop
  endfacet
  facet normal 1 0 0
    outer loop
      vertex 35.5 0 4
      vertex 35.5 3.97216 5.42431
      vertex 35.5 3.70277 5.49649
    endloop
  endfacet
  facet normal 1 0 0
    outer loop
      vertex 35.5 2.67431 7.27784
      vertex 35.5 0 4
      vertex 35.5 2.65 7
    endloop
  endfacet
  facet normal 1 0 0
    outer loop
      vertex 35.5 2.65 7
      vertex 35.5 0 4
      vertex 35.5 2.67431 6.72216
    endloop
  endfacet
  facet normal 1 0 0
    outer loop
      vertex 35.5 2.67431 6.72216
      vertex 35.5 0 4
      vertex 35.5 2.74649 6.45277
    endloop
  endfacet
  facet normal 1 0 0
    outer loop
      vertex 35.5 4.25 5.4
      vertex 35.5 0 4
      vertex 35.5 8.5 4
    endloop
  endfacet
  facet normal 1 0 0
    outer loop
      vertex 35.5 3.45 5.61436
      vertex 35.5 0 4
      vertex 35.5 3.70277 5.49649
    endloop
  endfacet
  facet normal 1 0 0
    outer loop
      vertex 35.5 3.22154 5.77433
      vertex 35.5 0 4
      vertex 35.5 3.45 5.61436
    endloop
  endfacet
  facet normal 1 0 0
    outer loop
      vertex 35.5 3.02433 5.97154
      vertex 35.5 0 4
      vertex 35.5 3.22154 5.77433
    endloop
  endfacet
  facet normal 1 0 0
    outer loop
      vertex 35.5 2.86436 6.2
      vertex 35.5 0 4
      vertex 35.5 3.02433 5.97154
    endloop
  endfacet
  facet normal 1 0 0
    outer loop
      vertex 35.5 2.74649 6.45277
      vertex 35.5 0 4
      vertex 35.5 2.86436 6.2
    endloop
  endfacet
  facet normal -0.996194 -0.0871601 0
    outer loop
      vertex 10.5 4.25 0
      vertex 10.4848 4.42365 4
      vertex 10.4848 4.42365 0
    endloop
  endfacet
  facet normal -0.996194 -0.0871601 0
    outer loop
      vertex 10.4848 4.42365 4
      vertex 10.5 4.25 0
      vertex 10.5 4.25 4
    endloop
  endfacet
  facet normal 0.0871596 -0.996194 0
    outer loop
      vertex 9.32635 5.23481 0
      vertex 9.5 5.25 4
      vertex 9.32635 5.23481 4
    endloop
  endfacet
  facet normal 0.0871596 -0.996194 0
    outer loop
      vertex 9.5 5.25 4
      vertex 9.32635 5.23481 0
      vertex 9.5 5.25 0
    endloop
  endfacet
  facet normal -0.0871547 0.996195 0
    outer loop
      vertex 9.67365 3.26519 0
      vertex 9.5 3.25 4
      vertex 9.67365 3.26519 4
    endloop
  endfacet
  facet normal -0.0871547 0.996195 0
    outer loop
      vertex 9.5 3.25 4
      vertex 9.67365 3.26519 0
      vertex 9.5 3.25 0
    endloop
  endfacet
  facet normal -0.573579 -0.81915 0
    outer loop
      vertex 10 5.11602 0
      vertex 10.1428 5.01604 4
      vertex 10 5.11602 4
    endloop
  endfacet
  facet normal -0.573579 -0.81915 -0
    outer loop
      vertex 10.1428 5.01604 4
      vertex 10 5.11602 0
      vertex 10.1428 5.01604 0
    endloop
  endfacet
  facet normal 0.81915 -0.573579 0
    outer loop
      vertex 8.63397 4.75 4
      vertex 8.73396 4.89279 0
      vertex 8.73396 4.89279 4
    endloop
  endfacet
  facet normal 0.81915 -0.573579 0
    outer loop
      vertex 8.73396 4.89279 0
      vertex 8.63397 4.75 4
      vertex 8.63397 4.75 0
    endloop
  endfacet
  facet normal 0.422622 -0.906306 0
    outer loop
      vertex 9 5.11602 0
      vertex 9.15798 5.18969 4
      vertex 9 5.11602 4
    endloop
  endfacet
  facet normal 0.422622 -0.906306 0
    outer loop
      vertex 9.15798 5.18969 4
      vertex 9 5.11602 0
      vertex 9.15798 5.18969 0
    endloop
  endfacet
  facet normal -0.819152 0.573577 0
    outer loop
      vertex 10.266 3.60721 0
      vertex 10.366 3.75 4
      vertex 10.366 3.75 0
    endloop
  endfacet
  facet normal -0.819152 0.573577 0
    outer loop
      vertex 10.366 3.75 4
      vertex 10.266 3.60721 0
      vertex 10.266 3.60721 4
    endloop
  endfacet
  facet normal -0.906307 -0.422619 0
    outer loop
      vertex 10.4397 4.59202 0
      vertex 10.366 4.75 4
      vertex 10.366 4.75 0
    endloop
  endfacet
  facet normal -0.906307 -0.422619 0
    outer loop
      vertex 10.366 4.75 4
      vertex 10.4397 4.59202 0
      vertex 10.4397 4.59202 4
    endloop
  endfacet
  facet normal -0.965927 -0.258815 0
    outer loop
      vertex 10.4848 4.42365 0
      vertex 10.4397 4.59202 4
      vertex 10.4397 4.59202 0
    endloop
  endfacet
  facet normal -0.965927 -0.258815 0
    outer loop
      vertex 10.4397 4.59202 4
      vertex 10.4848 4.42365 0
      vertex 10.4848 4.42365 4
    endloop
  endfacet
  facet normal -0.81915 -0.573579 0
    outer loop
      vertex 10.366 4.75 0
      vertex 10.266 4.89279 4
      vertex 10.266 4.89279 0
    endloop
  endfacet
  facet normal -0.81915 -0.573579 0
    outer loop
      vertex 10.266 4.89279 4
      vertex 10.366 4.75 0
      vertex 10.366 4.75 4
    endloop
  endfacet
  facet normal -0.258815 -0.965927 0
    outer loop
      vertex 9.67365 5.23481 0
      vertex 9.84202 5.18969 4
      vertex 9.67365 5.23481 4
    endloop
  endfacet
  facet normal -0.258815 -0.965927 -0
    outer loop
      vertex 9.84202 5.18969 4
      vertex 9.67365 5.23481 0
      vertex 9.84202 5.18969 0
    endloop
  endfacet
  facet normal -0.0871601 -0.996194 0
    outer loop
      vertex 9.5 5.25 0
      vertex 9.67365 5.23481 4
      vertex 9.5 5.25 4
    endloop
  endfacet
  facet normal -0.0871601 -0.996194 -0
    outer loop
      vertex 9.67365 5.23481 4
      vertex 9.5 5.25 0
      vertex 9.67365 5.23481 0
    endloop
  endfacet
  facet normal -0.422619 -0.906307 0
    outer loop
      vertex 9.84202 5.18969 0
      vertex 10 5.11602 4
      vertex 9.84202 5.18969 4
    endloop
  endfacet
  facet normal -0.422619 -0.906307 -0
    outer loop
      vertex 10 5.11602 4
      vertex 9.84202 5.18969 0
      vertex 10 5.11602 0
    endloop
  endfacet
  facet normal 0.965927 -0.258815 0
    outer loop
      vertex 8.51519 4.42365 4
      vertex 8.56031 4.59202 0
      vertex 8.56031 4.59202 4
    endloop
  endfacet
  facet normal 0.965927 -0.258815 0
    outer loop
      vertex 8.56031 4.59202 0
      vertex 8.51519 4.42365 4
      vertex 8.51519 4.42365 0
    endloop
  endfacet
  facet normal 0.906307 -0.422619 0
    outer loop
      vertex 8.56031 4.59202 4
      vertex 8.63397 4.75 0
      vertex 8.63397 4.75 4
    endloop
  endfacet
  facet normal 0.906307 -0.422619 0
    outer loop
      vertex 8.63397 4.75 0
      vertex 8.56031 4.59202 4
      vertex 8.56031 4.59202 0
    endloop
  endfacet
  facet normal 0.996195 -0.0871547 0
    outer loop
      vertex 8.5 4.25 4
      vertex 8.51519 4.42365 0
      vertex 8.51519 4.42365 4
    endloop
  endfacet
  facet normal 0.996195 -0.0871547 0
    outer loop
      vertex 8.51519 4.42365 0
      vertex 8.5 4.25 4
      vertex 8.5 4.25 0
    endloop
  endfacet
  facet normal 0.573577 -0.819152 0
    outer loop
      vertex 8.85721 5.01604 0
      vertex 9 5.11602 4
      vertex 8.85721 5.01604 4
    endloop
  endfacet
  facet normal 0.573577 -0.819152 0
    outer loop
      vertex 9 5.11602 4
      vertex 8.85721 5.01604 0
      vertex 9 5.11602 0
    endloop
  endfacet
  facet normal 0.258815 -0.965927 0
    outer loop
      vertex 9.15798 5.18969 0
      vertex 9.32635 5.23481 4
      vertex 9.15798 5.18969 4
    endloop
  endfacet
  facet normal 0.258815 -0.965927 0
    outer loop
      vertex 9.32635 5.23481 4
      vertex 9.15798 5.18969 0
      vertex 9.32635 5.23481 0
    endloop
  endfacet
  facet normal -0.996194 0.0871596 0
    outer loop
      vertex 10.4848 4.07635 0
      vertex 10.5 4.25 4
      vertex 10.5 4.25 0
    endloop
  endfacet
  facet normal -0.996194 0.0871596 0
    outer loop
      vertex 10.5 4.25 4
      vertex 10.4848 4.07635 0
      vertex 10.4848 4.07635 4
    endloop
  endfacet
  facet normal -0.258815 0.965927 0
    outer loop
      vertex 9.84202 3.31031 0
      vertex 9.67365 3.26519 4
      vertex 9.84202 3.31031 4
    endloop
  endfacet
  facet normal -0.258815 0.965927 0
    outer loop
      vertex 9.67365 3.26519 4
      vertex 9.84202 3.31031 0
      vertex 9.67365 3.26519 0
    endloop
  endfacet
  facet normal 0.422622 0.906306 -0
    outer loop
      vertex 9.15798 3.31031 0
      vertex 9 3.38397 4
      vertex 9.15798 3.31031 4
    endloop
  endfacet
  facet normal 0.422622 0.906306 0
    outer loop
      vertex 9 3.38397 4
      vertex 9.15798 3.31031 0
      vertex 9 3.38397 0
    endloop
  endfacet
  facet normal 0.0871542 0.996195 -0
    outer loop
      vertex 9.5 3.25 0
      vertex 9.32635 3.26519 4
      vertex 9.5 3.25 4
    endloop
  endfacet
  facet normal 0.0871542 0.996195 0
    outer loop
      vertex 9.32635 3.26519 4
      vertex 9.5 3.25 0
      vertex 9.32635 3.26519 0
    endloop
  endfacet
  facet normal 0.819152 0.573577 0
    outer loop
      vertex 8.73396 3.60721 4
      vertex 8.63397 3.75 0
      vertex 8.63397 3.75 4
    endloop
  endfacet
  facet normal 0.819152 0.573577 0
    outer loop
      vertex 8.63397 3.75 0
      vertex 8.73396 3.60721 4
      vertex 8.73396 3.60721 0
    endloop
  endfacet
  facet normal 0.707107 0.707107 0
    outer loop
      vertex 8.85721 3.48396 4
      vertex 8.73396 3.60721 0
      vertex 8.73396 3.60721 4
    endloop
  endfacet
  facet normal 0.707107 0.707107 0
    outer loop
      vertex 8.73396 3.60721 0
      vertex 8.85721 3.48396 4
      vertex 8.85721 3.48396 0
    endloop
  endfacet
  facet normal 0.965927 0.258815 0
    outer loop
      vertex 8.56031 3.90798 4
      vertex 8.51519 4.07635 0
      vertex 8.51519 4.07635 4
    endloop
  endfacet
  facet normal 0.965927 0.258815 0
    outer loop
      vertex 8.51519 4.07635 0
      vertex 8.56031 3.90798 4
      vertex 8.56031 3.90798 0
    endloop
  endfacet
  facet normal 0.996195 0.0871542 0
    outer loop
      vertex 8.51519 4.07635 4
      vertex 8.5 4.25 0
      vertex 8.5 4.25 4
    endloop
  endfacet
  facet normal 0.996195 0.0871542 0
    outer loop
      vertex 8.5 4.25 0
      vertex 8.51519 4.07635 4
      vertex 8.51519 4.07635 0
    endloop
  endfacet
  facet normal 0.707107 -0.707107 0
    outer loop
      vertex 8.73396 4.89279 4
      vertex 8.85721 5.01604 0
      vertex 8.85721 5.01604 4
    endloop
  endfacet
  facet normal 0.707107 -0.707107 0
    outer loop
      vertex 8.85721 5.01604 0
      vertex 8.73396 4.89279 4
      vertex 8.73396 4.89279 0
    endloop
  endfacet
  facet normal -0.422619 0.906307 0
    outer loop
      vertex 10 3.38397 0
      vertex 9.84202 3.31031 4
      vertex 10 3.38397 4
    endloop
  endfacet
  facet normal -0.422619 0.906307 0
    outer loop
      vertex 9.84202 3.31031 4
      vertex 10 3.38397 0
      vertex 9.84202 3.31031 0
    endloop
  endfacet
  facet normal -0.573579 0.81915 0
    outer loop
      vertex 10.1428 3.48396 0
      vertex 10 3.38397 4
      vertex 10.1428 3.48396 4
    endloop
  endfacet
  facet normal -0.573579 0.81915 0
    outer loop
      vertex 10 3.38397 4
      vertex 10.1428 3.48396 0
      vertex 10 3.38397 0
    endloop
  endfacet
  facet normal -0.707107 0.707107 0
    outer loop
      vertex 10.1428 3.48396 0
      vertex 10.266 3.60721 4
      vertex 10.266 3.60721 0
    endloop
  endfacet
  facet normal -0.707107 0.707107 0
    outer loop
      vertex 10.266 3.60721 4
      vertex 10.1428 3.48396 0
      vertex 10.1428 3.48396 4
    endloop
  endfacet
  facet normal -0.965927 0.258815 0
    outer loop
      vertex 10.4397 3.90798 0
      vertex 10.4848 4.07635 4
      vertex 10.4848 4.07635 0
    endloop
  endfacet
  facet normal -0.965927 0.258815 0
    outer loop
      vertex 10.4848 4.07635 4
      vertex 10.4397 3.90798 0
      vertex 10.4397 3.90798 4
    endloop
  endfacet
  facet normal -0.906306 0.422622 0
    outer loop
      vertex 10.366 3.75 0
      vertex 10.4397 3.90798 4
      vertex 10.4397 3.90798 0
    endloop
  endfacet
  facet normal -0.906306 0.422622 0
    outer loop
      vertex 10.4397 3.90798 4
      vertex 10.366 3.75 0
      vertex 10.366 3.75 4
    endloop
  endfacet
  facet normal 0.258815 0.965927 -0
    outer loop
      vertex 9.32635 3.26519 0
      vertex 9.15798 3.31031 4
      vertex 9.32635 3.26519 4
    endloop
  endfacet
  facet normal 0.258815 0.965927 0
    outer loop
      vertex 9.15798 3.31031 4
      vertex 9.32635 3.26519 0
      vertex 9.15798 3.31031 0
    endloop
  endfacet
  facet normal 0.573577 0.819152 -0
    outer loop
      vertex 9 3.38397 0
      vertex 8.85721 3.48396 4
      vertex 9 3.38397 4
    endloop
  endfacet
  facet normal 0.573577 0.819152 0
    outer loop
      vertex 8.85721 3.48396 4
      vertex 9 3.38397 0
      vertex 8.85721 3.48396 0
    endloop
  endfacet
  facet normal 0.906306 0.422622 0
    outer loop
      vertex 8.63397 3.75 4
      vertex 8.56031 3.90798 0
      vertex 8.56031 3.90798 4
    endloop
  endfacet
  facet normal 0.906306 0.422622 0
    outer loop
      vertex 8.56031 3.90798 0
      vertex 8.63397 3.75 4
      vertex 8.63397 3.75 0
    endloop
  endfacet
  facet normal -0.707107 -0.707107 0
    outer loop
      vertex 10.266 4.89279 0
      vertex 10.1428 5.01604 4
      vertex 10.1428 5.01604 0
    endloop
  endfacet
  facet normal -0.707107 -0.707107 0
    outer loop
      vertex 10.1428 5.01604 4
      vertex 10.266 4.89279 0
      vertex 10.266 4.89279 4
    endloop
  endfacet
  facet normal -0.996194 -0.0871655 0
    outer loop
      vertex 51.5 4.25 0
      vertex 51.4848 4.42365 4
      vertex 51.4848 4.42365 0
    endloop
  endfacet
  facet normal -0.996194 -0.0871655 0
    outer loop
      vertex 51.4848 4.42365 4
      vertex 51.5 4.25 0
      vertex 51.5 4.25 4
    endloop
  endfacet
  facet normal 0.0871596 -0.996194 0
    outer loop
      vertex 50.3264 5.23481 0
      vertex 50.5 5.25 4
      vertex 50.3264 5.23481 4
    endloop
  endfacet
  facet normal 0.0871596 -0.996194 0
    outer loop
      vertex 50.5 5.25 4
      vertex 50.3264 5.23481 0
      vertex 50.5 5.25 0
    endloop
  endfacet
  facet normal -0.0871542 0.996195 0
    outer loop
      vertex 50.6736 3.26519 0
      vertex 50.5 3.25 4
      vertex 50.6736 3.26519 4
    endloop
  endfacet
  facet normal -0.0871542 0.996195 0
    outer loop
      vertex 50.5 3.25 4
      vertex 50.6736 3.26519 0
      vertex 50.5 3.25 0
    endloop
  endfacet
  facet normal -0.573577 -0.819152 0
    outer loop
      vertex 51 5.11602 0
      vertex 51.1428 5.01604 4
      vertex 51 5.11602 4
    endloop
  endfacet
  facet normal -0.573577 -0.819152 -0
    outer loop
      vertex 51.1428 5.01604 4
      vertex 51 5.11602 0
      vertex 51.1428 5.01604 0
    endloop
  endfacet
  facet normal 0.819145 -0.573587 0
    outer loop
      vertex 49.634 4.75 4
      vertex 49.734 4.89279 0
      vertex 49.734 4.89279 4
    endloop
  endfacet
  facet normal 0.819145 -0.573587 0
    outer loop
      vertex 49.734 4.89279 0
      vertex 49.634 4.75 4
      vertex 49.634 4.75 0
    endloop
  endfacet
  facet normal 0.422624 -0.906305 0
    outer loop
      vertex 50 5.11602 0
      vertex 50.158 5.18969 4
      vertex 50 5.11602 4
    endloop
  endfacet
  facet normal 0.422624 -0.906305 0
    outer loop
      vertex 50.158 5.18969 4
      vertex 50 5.11602 0
      vertex 50.158 5.18969 0
    endloop
  endfacet
  facet normal -0.906302 0.422631 0
    outer loop
      vertex 51.366 3.75 0
      vertex 51.4397 3.90798 4
      vertex 51.4397 3.90798 0
    endloop
  endfacet
  facet normal -0.906302 0.422631 0
    outer loop
      vertex 51.4397 3.90798 4
      vertex 51.366 3.75 0
      vertex 51.366 3.75 4
    endloop
  endfacet
  facet normal -0.906303 -0.422628 0
    outer loop
      vertex 51.4397 4.59202 0
      vertex 51.366 4.75 4
      vertex 51.366 4.75 0
    endloop
  endfacet
  facet normal -0.906303 -0.422628 0
    outer loop
      vertex 51.366 4.75 4
      vertex 51.4397 4.59202 0
      vertex 51.4397 4.59202 4
    endloop
  endfacet
  facet normal -0.96593 -0.258805 0
    outer loop
      vertex 51.4848 4.42365 0
      vertex 51.4397 4.59202 4
      vertex 51.4397 4.59202 0
    endloop
  endfacet
  facet normal -0.96593 -0.258805 0
    outer loop
      vertex 51.4397 4.59202 4
      vertex 51.4848 4.42365 0
      vertex 51.4848 4.42365 4
    endloop
  endfacet
  facet normal -0.819155 -0.573572 0
    outer loop
      vertex 51.366 4.75 0
      vertex 51.266 4.89279 4
      vertex 51.266 4.89279 0
    endloop
  endfacet
  facet normal -0.819155 -0.573572 0
    outer loop
      vertex 51.266 4.89279 4
      vertex 51.366 4.75 0
      vertex 51.366 4.75 4
    endloop
  endfacet
  facet normal -0.25882 -0.965926 0
    outer loop
      vertex 50.6736 5.23481 0
      vertex 50.842 5.18969 4
      vertex 50.6736 5.23481 4
    endloop
  endfacet
  facet normal -0.25882 -0.965926 -0
    outer loop
      vertex 50.842 5.18969 4
      vertex 50.6736 5.23481 0
      vertex 50.842 5.18969 0
    endloop
  endfacet
  facet normal -0.0871596 -0.996194 0
    outer loop
      vertex 50.5 5.25 0
      vertex 50.6736 5.23481 4
      vertex 50.5 5.25 4
    endloop
  endfacet
  facet normal -0.0871596 -0.996194 -0
    outer loop
      vertex 50.6736 5.23481 4
      vertex 50.5 5.25 0
      vertex 50.6736 5.23481 0
    endloop
  endfacet
  facet normal -0.422615 -0.906309 0
    outer loop
      vertex 50.842 5.18969 0
      vertex 51 5.11602 4
      vertex 50.842 5.18969 4
    endloop
  endfacet
  facet normal -0.422615 -0.906309 -0
    outer loop
      vertex 51 5.11602 4
      vertex 50.842 5.18969 0
      vertex 51 5.11602 0
    endloop
  endfacet
  facet normal 0.965924 -0.258826 0
    outer loop
      vertex 49.5152 4.42365 4
      vertex 49.5603 4.59202 0
      vertex 49.5603 4.59202 4
    endloop
  endfacet
  facet normal 0.965924 -0.258826 0
    outer loop
      vertex 49.5603 4.59202 0
      vertex 49.5152 4.42365 4
      vertex 49.5152 4.42365 0
    endloop
  endfacet
  facet normal 0.906311 -0.42261 0
    outer loop
      vertex 49.5603 4.59202 4
      vertex 49.634 4.75 0
      vertex 49.634 4.75 4
    endloop
  endfacet
  facet normal 0.906311 -0.42261 0
    outer loop
      vertex 49.634 4.75 0
      vertex 49.5603 4.59202 4
      vertex 49.5603 4.59202 0
    endloop
  endfacet
  facet normal 0.996196 -0.0871438 0
    outer loop
      vertex 49.5 4.25 4
      vertex 49.5152 4.42365 0
      vertex 49.5152 4.42365 4
    endloop
  endfacet
  facet normal 0.996196 -0.0871438 0
    outer loop
      vertex 49.5152 4.42365 0
      vertex 49.5 4.25 4
      vertex 49.5 4.25 0
    endloop
  endfacet
  facet normal 0.573577 -0.819152 0
    outer loop
      vertex 49.8572 5.01604 0
      vertex 50 5.11602 4
      vertex 49.8572 5.01604 4
    endloop
  endfacet
  facet normal 0.573577 -0.819152 0
    outer loop
      vertex 50 5.11602 4
      vertex 49.8572 5.01604 0
      vertex 50 5.11602 0
    endloop
  endfacet
  facet normal 0.258814 -0.965927 0
    outer loop
      vertex 50.158 5.18969 0
      vertex 50.3264 5.23481 4
      vertex 50.158 5.18969 4
    endloop
  endfacet
  facet normal 0.258814 -0.965927 0
    outer loop
      vertex 50.3264 5.23481 4
      vertex 50.158 5.18969 0
      vertex 50.3264 5.23481 0
    endloop
  endfacet
  facet normal -0.996194 0.087165 0
    outer loop
      vertex 51.4848 4.07635 0
      vertex 51.5 4.25 4
      vertex 51.5 4.25 0
    endloop
  endfacet
  facet normal -0.996194 0.087165 0
    outer loop
      vertex 51.5 4.25 4
      vertex 51.4848 4.07635 0
      vertex 51.4848 4.07635 4
    endloop
  endfacet
  facet normal -0.25882 0.965926 0
    outer loop
      vertex 50.842 3.31031 0
      vertex 50.6736 3.26519 4
      vertex 50.842 3.31031 4
    endloop
  endfacet
  facet normal -0.25882 0.965926 0
    outer loop
      vertex 50.6736 3.26519 4
      vertex 50.842 3.31031 0
      vertex 50.6736 3.26519 0
    endloop
  endfacet
  facet normal 0.422624 0.906305 -0
    outer loop
      vertex 50.158 3.31031 0
      vertex 50 3.38397 4
      vertex 50.158 3.31031 4
    endloop
  endfacet
  facet normal 0.422624 0.906305 0
    outer loop
      vertex 50 3.38397 4
      vertex 50.158 3.31031 0
      vertex 50 3.38397 0
    endloop
  endfacet
  facet normal 0.0871542 0.996195 -0
    outer loop
      vertex 50.5 3.25 0
      vertex 50.3264 3.26519 4
      vertex 50.5 3.25 4
    endloop
  endfacet
  facet normal 0.0871542 0.996195 0
    outer loop
      vertex 50.3264 3.26519 4
      vertex 50.5 3.25 0
      vertex 50.3264 3.26519 0
    endloop
  endfacet
  facet normal 0.819147 0.573584 0
    outer loop
      vertex 49.734 3.60721 4
      vertex 49.634 3.75 0
      vertex 49.634 3.75 4
    endloop
  endfacet
  facet normal 0.819147 0.573584 0
    outer loop
      vertex 49.634 3.75 0
      vertex 49.734 3.60721 4
      vertex 49.734 3.60721 0
    endloop
  endfacet
  facet normal 0.965924 0.258826 0
    outer loop
      vertex 49.5603 3.90798 4
      vertex 49.5152 4.07635 0
      vertex 49.5152 4.07635 4
    endloop
  endfacet
  facet normal 0.965924 0.258826 0
    outer loop
      vertex 49.5152 4.07635 0
      vertex 49.5603 3.90798 4
      vertex 49.5603 3.90798 0
    endloop
  endfacet
  facet normal -0.707107 -0.707107 0
    outer loop
      vertex 51.266 4.89279 0
      vertex 51.1428 5.01604 4
      vertex 51.1428 5.01604 0
    endloop
  endfacet
  facet normal -0.707107 -0.707107 0
    outer loop
      vertex 51.1428 5.01604 4
      vertex 51.266 4.89279 0
      vertex 51.266 4.89279 4
    endloop
  endfacet
  facet normal 0.996196 0.0871433 0
    outer loop
      vertex 49.5152 4.07635 4
      vertex 49.5 4.25 0
      vertex 49.5 4.25 4
    endloop
  endfacet
  facet normal 0.996196 0.0871433 0
    outer loop
      vertex 49.5 4.25 0
      vertex 49.5152 4.07635 4
      vertex 49.5152 4.07635 0
    endloop
  endfacet
  facet normal 0.707107 -0.707107 0
    outer loop
      vertex 49.734 4.89279 4
      vertex 49.8572 5.01604 0
      vertex 49.8572 5.01604 4
    endloop
  endfacet
  facet normal 0.707107 -0.707107 0
    outer loop
      vertex 49.8572 5.01604 0
      vertex 49.734 4.89279 4
      vertex 49.734 4.89279 0
    endloop
  endfacet
  facet normal -0.422615 0.906309 0
    outer loop
      vertex 51 3.38397 0
      vertex 50.842 3.31031 4
      vertex 51 3.38397 4
    endloop
  endfacet
  facet normal -0.422615 0.906309 0
    outer loop
      vertex 50.842 3.31031 4
      vertex 51 3.38397 0
      vertex 50.842 3.31031 0
    endloop
  endfacet
  facet normal -0.819157 0.57357 0
    outer loop
      vertex 51.266 3.60721 0
      vertex 51.366 3.75 4
      vertex 51.366 3.75 0
    endloop
  endfacet
  facet normal -0.819157 0.57357 0
    outer loop
      vertex 51.366 3.75 4
      vertex 51.266 3.60721 0
      vertex 51.266 3.60721 4
    endloop
  endfacet
  facet normal -0.573577 0.819152 0
    outer loop
      vertex 51.1428 3.48396 0
      vertex 51 3.38397 4
      vertex 51.1428 3.48396 4
    endloop
  endfacet
  facet normal -0.573577 0.819152 0
    outer loop
      vertex 51 3.38397 4
      vertex 51.1428 3.48396 0
      vertex 51 3.38397 0
    endloop
  endfacet
  facet normal -0.96593 0.258805 0
    outer loop
      vertex 51.4397 3.90798 0
      vertex 51.4848 4.07635 4
      vertex 51.4848 4.07635 0
    endloop
  endfacet
  facet normal -0.96593 0.258805 0
    outer loop
      vertex 51.4848 4.07635 4
      vertex 51.4397 3.90798 0
      vertex 51.4397 3.90798 4
    endloop
  endfacet
  facet normal 0.258814 0.965927 -0
    outer loop
      vertex 50.3264 3.26519 0
      vertex 50.158 3.31031 4
      vertex 50.3264 3.26519 4
    endloop
  endfacet
  facet normal 0.258814 0.965927 0
    outer loop
      vertex 50.158 3.31031 4
      vertex 50.3264 3.26519 0
      vertex 50.158 3.31031 0
    endloop
  endfacet
  facet normal 0.707107 0.707107 0
    outer loop
      vertex 49.8572 3.48396 4
      vertex 49.734 3.60721 0
      vertex 49.734 3.60721 4
    endloop
  endfacet
  facet normal 0.707107 0.707107 0
    outer loop
      vertex 49.734 3.60721 0
      vertex 49.8572 3.48396 4
      vertex 49.8572 3.48396 0
    endloop
  endfacet
  facet normal 0.90631 0.422613 0
    outer loop
      vertex 49.634 3.75 4
      vertex 49.5603 3.90798 0
      vertex 49.5603 3.90798 4
    endloop
  endfacet
  facet normal 0.90631 0.422613 0
    outer loop
      vertex 49.5603 3.90798 0
      vertex 49.634 3.75 4
      vertex 49.634 3.75 0
    endloop
  endfacet
  facet normal -0.707107 0.707107 0
    outer loop
      vertex 51.1428 3.48396 0
      vertex 51.266 3.60721 4
      vertex 51.266 3.60721 0
    endloop
  endfacet
  facet normal -0.707107 0.707107 0
    outer loop
      vertex 51.266 3.60721 4
      vertex 51.1428 3.48396 0
      vertex 51.1428 3.48396 4
    endloop
  endfacet
  facet normal 0.573577 0.819152 -0
    outer loop
      vertex 50 3.38397 0
      vertex 49.8572 3.48396 4
      vertex 50 3.38397 4
    endloop
  endfacet
  facet normal 0.573577 0.819152 0
    outer loop
      vertex 49.8572 3.48396 4
      vertex 50 3.38397 0
      vertex 49.8572 3.48396 0
    endloop
  endfacet
  facet normal 0 -0.0871546 0.996195
    outer loop
      vertex 20.5 4.52784 5.42431
      vertex 25.5 4.25 5.4
      vertex 25.5 4.52784 5.42431
    endloop
  endfacet
  facet normal 0 -0.0871546 0.996195
    outer loop
      vertex 25.5 4.25 5.4
      vertex 20.5 4.52784 5.42431
      vertex 20.5 4.25 5.4
    endloop
  endfacet
  facet normal 0 -0.0871546 0.996195
    outer loop
      vertex 30.5 4.52784 5.42431
      vertex 35.5 4.25 5.4
      vertex 35.5 4.52784 5.42431
    endloop
  endfacet
  facet normal 0 -0.0871546 0.996195
    outer loop
      vertex 35.5 4.25 5.4
      vertex 30.5 4.52784 5.42431
      vertex 30.5 4.25 5.4
    endloop
  endfacet
  facet normal 0 0.0871543 -0.996195
    outer loop
      vertex 20.5 3.97216 8.57569
      vertex 25.5 4.25 8.6
      vertex 25.5 3.97216 8.57569
    endloop
  endfacet
  facet normal 0 0.0871543 -0.996195
    outer loop
      vertex 25.5 4.25 8.6
      vertex 20.5 3.97216 8.57569
      vertex 20.5 4.25 8.6
    endloop
  endfacet
  facet normal 0 0.0871543 -0.996195
    outer loop
      vertex 30.5 3.97216 8.57569
      vertex 35.5 4.25 8.6
      vertex 35.5 3.97216 8.57569
    endloop
  endfacet
  facet normal 0 0.0871543 -0.996195
    outer loop
      vertex 35.5 4.25 8.6
      vertex 30.5 3.97216 8.57569
      vertex 30.5 4.25 8.6
    endloop
  endfacet
  facet normal 0 -0.996195 -0.0871546
    outer loop
      vertex 20.5 5.85 7
      vertex 25.5 5.82569 7.27784
      vertex 20.5 5.82569 7.27784
    endloop
  endfacet
  facet normal 0 -0.996195 -0.0871546
    outer loop
      vertex 25.5 5.82569 7.27784
      vertex 20.5 5.85 7
      vertex 25.5 5.85 7
    endloop
  endfacet
  facet normal 0 -0.996195 -0.0871546
    outer loop
      vertex 30.5 5.85 7
      vertex 35.5 5.82569 7.27784
      vertex 30.5 5.82569 7.27784
    endloop
  endfacet
  facet normal 0 -0.996195 -0.0871546
    outer loop
      vertex 35.5 5.82569 7.27784
      vertex 30.5 5.85 7
      vertex 35.5 5.85 7
    endloop
  endfacet
  facet normal 0 0.996195 0.0871543
    outer loop
      vertex 25.5 2.67431 6.72216
      vertex 20.5 2.65 7
      vertex 25.5 2.65 7
    endloop
  endfacet
  facet normal 0 0.996195 0.0871543
    outer loop
      vertex 20.5 2.65 7
      vertex 25.5 2.67431 6.72216
      vertex 20.5 2.67431 6.72216
    endloop
  endfacet
  facet normal 0 0.996195 0.0871543
    outer loop
      vertex 35.5 2.67431 6.72216
      vertex 30.5 2.65 7
      vertex 35.5 2.65 7
    endloop
  endfacet
  facet normal 0 0.996195 0.0871543
    outer loop
      vertex 30.5 2.65 7
      vertex 35.5 2.67431 6.72216
      vertex 30.5 2.67431 6.72216
    endloop
  endfacet
  facet normal 0 0.707107 -0.707107
    outer loop
      vertex 25.5 3.02433 8.02846
      vertex 20.5 3.22154 8.22567
      vertex 25.5 3.22154 8.22567
    endloop
  endfacet
  facet normal 0 0.707107 -0.707107
    outer loop
      vertex 20.5 3.22154 8.22567
      vertex 25.5 3.02433 8.02846
      vertex 20.5 3.02433 8.02846
    endloop
  endfacet
  facet normal 0 0.707107 -0.707107
    outer loop
      vertex 35.5 3.02433 8.02846
      vertex 30.5 3.22154 8.22567
      vertex 35.5 3.22154 8.22567
    endloop
  endfacet
  facet normal 0 0.707107 -0.707107
    outer loop
      vertex 30.5 3.22154 8.22567
      vertex 35.5 3.02433 8.02846
      vertex 30.5 3.02433 8.02846
    endloop
  endfacet
  facet normal 0 -0.707107 -0.707107
    outer loop
      vertex 20.5 5.47567 8.02846
      vertex 25.5 5.27846 8.22567
      vertex 20.5 5.27846 8.22567
    endloop
  endfacet
  facet normal 0 -0.707107 -0.707107
    outer loop
      vertex 25.5 5.27846 8.22567
      vertex 20.5 5.47567 8.02846
      vertex 25.5 5.47567 8.02846
    endloop
  endfacet
  facet normal 0 -0.707107 -0.707107
    outer loop
      vertex 30.5 5.47567 8.02846
      vertex 35.5 5.27846 8.22567
      vertex 30.5 5.27846 8.22567
    endloop
  endfacet
  facet normal 0 -0.707107 -0.707107
    outer loop
      vertex 35.5 5.27846 8.22567
      vertex 30.5 5.47567 8.02846
      vertex 35.5 5.47567 8.02846
    endloop
  endfacet
  facet normal 0 -0.906308 -0.422618
    outer loop
      vertex 20.5 5.75351 7.54723
      vertex 25.5 5.63564 7.8
      vertex 20.5 5.63564 7.8
    endloop
  endfacet
  facet normal 0 -0.906308 -0.422618
    outer loop
      vertex 25.5 5.63564 7.8
      vertex 20.5 5.75351 7.54723
      vertex 25.5 5.75351 7.54723
    endloop
  endfacet
  facet normal 0 -0.906308 -0.422618
    outer loop
      vertex 30.5 5.75351 7.54723
      vertex 35.5 5.63564 7.8
      vertex 30.5 5.63564 7.8
    endloop
  endfacet
  facet normal 0 -0.906308 -0.422618
    outer loop
      vertex 35.5 5.63564 7.8
      vertex 30.5 5.75351 7.54723
      vertex 35.5 5.75351 7.54723
    endloop
  endfacet
  facet normal 0 0.422618 -0.906308
    outer loop
      vertex 20.5 3.45 8.38564
      vertex 25.5 3.70277 8.50351
      vertex 25.5 3.45 8.38564
    endloop
  endfacet
  facet normal 0 0.422618 -0.906308
    outer loop
      vertex 25.5 3.70277 8.50351
      vertex 20.5 3.45 8.38564
      vertex 20.5 3.70277 8.50351
    endloop
  endfacet
  facet normal 0 0.422618 -0.906308
    outer loop
      vertex 30.5 3.45 8.38564
      vertex 35.5 3.70277 8.50351
      vertex 35.5 3.45 8.38564
    endloop
  endfacet
  facet normal 0 0.422618 -0.906308
    outer loop
      vertex 35.5 3.70277 8.50351
      vertex 30.5 3.45 8.38564
      vertex 30.5 3.70277 8.50351
    endloop
  endfacet
  facet normal 0 -0.25882 0.965925
    outer loop
      vertex 20.5 4.79723 5.49649
      vertex 25.5 4.52784 5.42431
      vertex 25.5 4.79723 5.49649
    endloop
  endfacet
  facet normal 0 -0.25882 0.965925
    outer loop
      vertex 25.5 4.52784 5.42431
      vertex 20.5 4.79723 5.49649
      vertex 20.5 4.52784 5.42431
    endloop
  endfacet
  facet normal 0 -0.25882 0.965925
    outer loop
      vertex 30.5 4.79723 5.49649
      vertex 35.5 4.52784 5.42431
      vertex 35.5 4.79723 5.49649
    endloop
  endfacet
  facet normal 0 -0.25882 0.965925
    outer loop
      vertex 35.5 4.52784 5.42431
      vertex 30.5 4.79723 5.49649
      vertex 30.5 4.52784 5.42431
    endloop
  endfacet
  facet normal 0 -0.573576 0.819153
    outer loop
      vertex 20.5 5.27846 5.77433
      vertex 25.5 5.05 5.61436
      vertex 25.5 5.27846 5.77433
    endloop
  endfacet
  facet normal 0 -0.573576 0.819153
    outer loop
      vertex 25.5 5.05 5.61436
      vertex 20.5 5.27846 5.77433
      vertex 20.5 5.05 5.61436
    endloop
  endfacet
  facet normal 0 -0.573576 0.819153
    outer loop
      vertex 30.5 5.27846 5.77433
      vertex 35.5 5.05 5.61436
      vertex 35.5 5.27846 5.77433
    endloop
  endfacet
  facet normal 0 -0.573576 0.819153
    outer loop
      vertex 35.5 5.05 5.61436
      vertex 30.5 5.27846 5.77433
      vertex 30.5 5.05 5.61436
    endloop
  endfacet
  facet normal 0 -0.996195 0.0871543
    outer loop
      vertex 20.5 5.82569 6.72216
      vertex 25.5 5.85 7
      vertex 20.5 5.85 7
    endloop
  endfacet
  facet normal 0 -0.996195 0.0871543
    outer loop
      vertex 25.5 5.85 7
      vertex 20.5 5.82569 6.72216
      vertex 25.5 5.82569 6.72216
    endloop
  endfacet
  facet normal 0 -0.996195 0.0871543
    outer loop
      vertex 30.5 5.82569 6.72216
      vertex 35.5 5.85 7
      vertex 30.5 5.85 7
    endloop
  endfacet
  facet normal 0 -0.996195 0.0871543
    outer loop
      vertex 35.5 5.85 7
      vertex 30.5 5.82569 6.72216
      vertex 35.5 5.82569 6.72216
    endloop
  endfacet
  facet normal 0 -0.965925 0.25882
    outer loop
      vertex 20.5 5.75351 6.45277
      vertex 25.5 5.82569 6.72216
      vertex 20.5 5.82569 6.72216
    endloop
  endfacet
  facet normal 0 -0.965925 0.25882
    outer loop
      vertex 25.5 5.82569 6.72216
      vertex 20.5 5.75351 6.45277
      vertex 25.5 5.75351 6.45277
    endloop
  endfacet
  facet normal 0 -0.965925 0.25882
    outer loop
      vertex 30.5 5.75351 6.45277
      vertex 35.5 5.82569 6.72216
      vertex 30.5 5.82569 6.72216
    endloop
  endfacet
  facet normal 0 -0.965925 0.25882
    outer loop
      vertex 35.5 5.82569 6.72216
      vertex 30.5 5.75351 6.45277
      vertex 35.5 5.75351 6.45277
    endloop
  endfacet
  facet normal 0 -0.819153 0.573576
    outer loop
      vertex 20.5 5.47567 5.97154
      vertex 25.5 5.63564 6.2
      vertex 20.5 5.63564 6.2
    endloop
  endfacet
  facet normal 0 -0.819153 0.573576
    outer loop
      vertex 25.5 5.63564 6.2
      vertex 20.5 5.47567 5.97154
      vertex 25.5 5.47567 5.97154
    endloop
  endfacet
  facet normal 0 -0.819153 0.573576
    outer loop
      vertex 30.5 5.47567 5.97154
      vertex 35.5 5.63564 6.2
      vertex 30.5 5.63564 6.2
    endloop
  endfacet
  facet normal 0 -0.819153 0.573576
    outer loop
      vertex 35.5 5.63564 6.2
      vertex 30.5 5.47567 5.97154
      vertex 35.5 5.47567 5.97154
    endloop
  endfacet
  facet normal 0 -0.422618 -0.906308
    outer loop
      vertex 20.5 4.79723 8.50351
      vertex 25.5 5.05 8.38564
      vertex 25.5 4.79723 8.50351
    endloop
  endfacet
  facet normal -0 -0.422618 -0.906308
    outer loop
      vertex 25.5 5.05 8.38564
      vertex 20.5 4.79723 8.50351
      vertex 20.5 5.05 8.38564
    endloop
  endfacet
  facet normal 0 -0.422618 -0.906308
    outer loop
      vertex 30.5 4.79723 8.50351
      vertex 35.5 5.05 8.38564
      vertex 35.5 4.79723 8.50351
    endloop
  endfacet
  facet normal -0 -0.422618 -0.906308
    outer loop
      vertex 35.5 5.05 8.38564
      vertex 30.5 4.79723 8.50351
      vertex 30.5 5.05 8.38564
    endloop
  endfacet
  facet normal 0 -0.573576 -0.819153
    outer loop
      vertex 20.5 5.05 8.38564
      vertex 25.5 5.27846 8.22567
      vertex 25.5 5.05 8.38564
    endloop
  endfacet
  facet normal -0 -0.573576 -0.819153
    outer loop
      vertex 25.5 5.27846 8.22567
      vertex 20.5 5.05 8.38564
      vertex 20.5 5.27846 8.22567
    endloop
  endfacet
  facet normal 0 -0.573576 -0.819153
    outer loop
      vertex 30.5 5.05 8.38564
      vertex 35.5 5.27846 8.22567
      vertex 35.5 5.05 8.38564
    endloop
  endfacet
  facet normal -0 -0.573576 -0.819153
    outer loop
      vertex 35.5 5.27846 8.22567
      vertex 30.5 5.05 8.38564
      vertex 30.5 5.27846 8.22567
    endloop
  endfacet
  facet normal 0 -0.0871546 -0.996195
    outer loop
      vertex 20.5 4.25 8.6
      vertex 25.5 4.52784 8.57569
      vertex 25.5 4.25 8.6
    endloop
  endfacet
  facet normal -0 -0.0871546 -0.996195
    outer loop
      vertex 25.5 4.52784 8.57569
      vertex 20.5 4.25 8.6
      vertex 20.5 4.52784 8.57569
    endloop
  endfacet
  facet normal 0 -0.0871546 -0.996195
    outer loop
      vertex 30.5 4.25 8.6
      vertex 35.5 4.52784 8.57569
      vertex 35.5 4.25 8.6
    endloop
  endfacet
  facet normal -0 -0.0871546 -0.996195
    outer loop
      vertex 35.5 4.52784 8.57569
      vertex 30.5 4.25 8.6
      vertex 30.5 4.52784 8.57569
    endloop
  endfacet
  facet normal 0 -0.819153 -0.573576
    outer loop
      vertex 20.5 5.63564 7.8
      vertex 25.5 5.47567 8.02846
      vertex 20.5 5.47567 8.02846
    endloop
  endfacet
  facet normal 0 -0.819153 -0.573576
    outer loop
      vertex 25.5 5.47567 8.02846
      vertex 20.5 5.63564 7.8
      vertex 25.5 5.63564 7.8
    endloop
  endfacet
  facet normal 0 -0.819153 -0.573576
    outer loop
      vertex 30.5 5.63564 7.8
      vertex 35.5 5.47567 8.02846
      vertex 30.5 5.47567 8.02846
    endloop
  endfacet
  facet normal 0 -0.819153 -0.573576
    outer loop
      vertex 35.5 5.47567 8.02846
      vertex 30.5 5.63564 7.8
      vertex 35.5 5.63564 7.8
    endloop
  endfacet
  facet normal 0 -0.965925 -0.25882
    outer loop
      vertex 20.5 5.82569 7.27784
      vertex 25.5 5.75351 7.54723
      vertex 20.5 5.75351 7.54723
    endloop
  endfacet
  facet normal 0 -0.965925 -0.25882
    outer loop
      vertex 25.5 5.75351 7.54723
      vertex 20.5 5.82569 7.27784
      vertex 25.5 5.82569 7.27784
    endloop
  endfacet
  facet normal 0 -0.965925 -0.25882
    outer loop
      vertex 30.5 5.82569 7.27784
      vertex 35.5 5.75351 7.54723
      vertex 30.5 5.75351 7.54723
    endloop
  endfacet
  facet normal 0 -0.965925 -0.25882
    outer loop
      vertex 35.5 5.75351 7.54723
      vertex 30.5 5.82569 7.27784
      vertex 35.5 5.82569 7.27784
    endloop
  endfacet
  facet normal 0 0.965925 0.25882
    outer loop
      vertex 25.5 2.74649 6.45277
      vertex 20.5 2.67431 6.72216
      vertex 25.5 2.67431 6.72216
    endloop
  endfacet
  facet normal 0 0.965925 0.25882
    outer loop
      vertex 20.5 2.67431 6.72216
      vertex 25.5 2.74649 6.45277
      vertex 20.5 2.74649 6.45277
    endloop
  endfacet
  facet normal 0 0.965925 0.25882
    outer loop
      vertex 35.5 2.74649 6.45277
      vertex 30.5 2.67431 6.72216
      vertex 35.5 2.67431 6.72216
    endloop
  endfacet
  facet normal 0 0.965925 0.25882
    outer loop
      vertex 30.5 2.67431 6.72216
      vertex 35.5 2.74649 6.45277
      vertex 30.5 2.74649 6.45277
    endloop
  endfacet
  facet normal 0 0.819153 0.573576
    outer loop
      vertex 25.5 3.02433 5.97154
      vertex 20.5 2.86436 6.2
      vertex 25.5 2.86436 6.2
    endloop
  endfacet
  facet normal 0 0.819153 0.573576
    outer loop
      vertex 20.5 2.86436 6.2
      vertex 25.5 3.02433 5.97154
      vertex 20.5 3.02433 5.97154
    endloop
  endfacet
  facet normal 0 0.819153 0.573576
    outer loop
      vertex 35.5 3.02433 5.97154
      vertex 30.5 2.86436 6.2
      vertex 35.5 2.86436 6.2
    endloop
  endfacet
  facet normal 0 0.819153 0.573576
    outer loop
      vertex 30.5 2.86436 6.2
      vertex 35.5 3.02433 5.97154
      vertex 30.5 3.02433 5.97154
    endloop
  endfacet
  facet normal -0 0.573576 0.819153
    outer loop
      vertex 20.5 3.45 5.61436
      vertex 25.5 3.22154 5.77433
      vertex 25.5 3.45 5.61436
    endloop
  endfacet
  facet normal 0 0.573576 0.819153
    outer loop
      vertex 25.5 3.22154 5.77433
      vertex 20.5 3.45 5.61436
      vertex 20.5 3.22154 5.77433
    endloop
  endfacet
  facet normal -0 0.573576 0.819153
    outer loop
      vertex 30.5 3.45 5.61436
      vertex 35.5 3.22154 5.77433
      vertex 35.5 3.45 5.61436
    endloop
  endfacet
  facet normal 0 0.573576 0.819153
    outer loop
      vertex 35.5 3.22154 5.77433
      vertex 30.5 3.45 5.61436
      vertex 30.5 3.22154 5.77433
    endloop
  endfacet
  facet normal -0 0.422618 0.906308
    outer loop
      vertex 20.5 3.70277 5.49649
      vertex 25.5 3.45 5.61436
      vertex 25.5 3.70277 5.49649
    endloop
  endfacet
  facet normal 0 0.422618 0.906308
    outer loop
      vertex 25.5 3.45 5.61436
      vertex 20.5 3.70277 5.49649
      vertex 20.5 3.45 5.61436
    endloop
  endfacet
  facet normal -0 0.422618 0.906308
    outer loop
      vertex 30.5 3.70277 5.49649
      vertex 35.5 3.45 5.61436
      vertex 35.5 3.70277 5.49649
    endloop
  endfacet
  facet normal 0 0.422618 0.906308
    outer loop
      vertex 35.5 3.45 5.61436
      vertex 30.5 3.70277 5.49649
      vertex 30.5 3.45 5.61436
    endloop
  endfacet
  facet normal -0 0.0871543 0.996195
    outer loop
      vertex 20.5 4.25 5.4
      vertex 25.5 3.97216 5.42431
      vertex 25.5 4.25 5.4
    endloop
  endfacet
  facet normal 0 0.0871543 0.996195
    outer loop
      vertex 25.5 3.97216 5.42431
      vertex 20.5 4.25 5.4
      vertex 20.5 3.97216 5.42431
    endloop
  endfacet
  facet normal -0 0.0871543 0.996195
    outer loop
      vertex 30.5 4.25 5.4
      vertex 35.5 3.97216 5.42431
      vertex 35.5 4.25 5.4
    endloop
  endfacet
  facet normal 0 0.0871543 0.996195
    outer loop
      vertex 35.5 3.97216 5.42431
      vertex 30.5 4.25 5.4
      vertex 30.5 3.97216 5.42431
    endloop
  endfacet
  facet normal 0 0.965925 -0.25882
    outer loop
      vertex 25.5 2.67431 7.27784
      vertex 20.5 2.74649 7.54723
      vertex 25.5 2.74649 7.54723
    endloop
  endfacet
  facet normal 0 0.965925 -0.25882
    outer loop
      vertex 20.5 2.74649 7.54723
      vertex 25.5 2.67431 7.27784
      vertex 20.5 2.67431 7.27784
    endloop
  endfacet
  facet normal 0 0.965925 -0.25882
    outer loop
      vertex 35.5 2.67431 7.27784
      vertex 30.5 2.74649 7.54723
      vertex 35.5 2.74649 7.54723
    endloop
  endfacet
  facet normal 0 0.965925 -0.25882
    outer loop
      vertex 30.5 2.74649 7.54723
      vertex 35.5 2.67431 7.27784
      vertex 30.5 2.67431 7.27784
    endloop
  endfacet
  facet normal 0 0.819153 -0.573576
    outer loop
      vertex 25.5 2.86436 7.8
      vertex 20.5 3.02433 8.02846
      vertex 25.5 3.02433 8.02846
    endloop
  endfacet
  facet normal 0 0.819153 -0.573576
    outer loop
      vertex 20.5 3.02433 8.02846
      vertex 25.5 2.86436 7.8
      vertex 20.5 2.86436 7.8
    endloop
  endfacet
  facet normal 0 0.819153 -0.573576
    outer loop
      vertex 35.5 2.86436 7.8
      vertex 30.5 3.02433 8.02846
      vertex 35.5 3.02433 8.02846
    endloop
  endfacet
  facet normal 0 0.819153 -0.573576
    outer loop
      vertex 30.5 3.02433 8.02846
      vertex 35.5 2.86436 7.8
      vertex 30.5 2.86436 7.8
    endloop
  endfacet
  facet normal 0 0.996195 -0.0871546
    outer loop
      vertex 25.5 2.65 7
      vertex 20.5 2.67431 7.27784
      vertex 25.5 2.67431 7.27784
    endloop
  endfacet
  facet normal 0 0.996195 -0.0871546
    outer loop
      vertex 20.5 2.67431 7.27784
      vertex 25.5 2.65 7
      vertex 20.5 2.65 7
    endloop
  endfacet
  facet normal 0 0.996195 -0.0871546
    outer loop
      vertex 35.5 2.65 7
      vertex 30.5 2.67431 7.27784
      vertex 35.5 2.67431 7.27784
    endloop
  endfacet
  facet normal 0 0.996195 -0.0871546
    outer loop
      vertex 30.5 2.67431 7.27784
      vertex 35.5 2.65 7
      vertex 30.5 2.65 7
    endloop
  endfacet
  facet normal 0 0.25882 -0.965925
    outer loop
      vertex 20.5 3.70277 8.50351
      vertex 25.5 3.97216 8.57569
      vertex 25.5 3.70277 8.50351
    endloop
  endfacet
  facet normal 0 0.25882 -0.965925
    outer loop
      vertex 25.5 3.97216 8.57569
      vertex 20.5 3.70277 8.50351
      vertex 20.5 3.97216 8.57569
    endloop
  endfacet
  facet normal 0 0.25882 -0.965925
    outer loop
      vertex 30.5 3.70277 8.50351
      vertex 35.5 3.97216 8.57569
      vertex 35.5 3.70277 8.50351
    endloop
  endfacet
  facet normal 0 0.25882 -0.965925
    outer loop
      vertex 35.5 3.97216 8.57569
      vertex 30.5 3.70277 8.50351
      vertex 30.5 3.97216 8.57569
    endloop
  endfacet
  facet normal 0 -0.422618 0.906308
    outer loop
      vertex 20.5 5.05 5.61436
      vertex 25.5 4.79723 5.49649
      vertex 25.5 5.05 5.61436
    endloop
  endfacet
  facet normal 0 -0.422618 0.906308
    outer loop
      vertex 25.5 4.79723 5.49649
      vertex 20.5 5.05 5.61436
      vertex 20.5 4.79723 5.49649
    endloop
  endfacet
  facet normal 0 -0.422618 0.906308
    outer loop
      vertex 30.5 5.05 5.61436
      vertex 35.5 4.79723 5.49649
      vertex 35.5 5.05 5.61436
    endloop
  endfacet
  facet normal 0 -0.422618 0.906308
    outer loop
      vertex 35.5 4.79723 5.49649
      vertex 30.5 5.05 5.61436
      vertex 30.5 4.79723 5.49649
    endloop
  endfacet
  facet normal 0 -0.707107 0.707107
    outer loop
      vertex 20.5 5.27846 5.77433
      vertex 25.5 5.47567 5.97154
      vertex 20.5 5.47567 5.97154
    endloop
  endfacet
  facet normal 0 -0.707107 0.707107
    outer loop
      vertex 25.5 5.47567 5.97154
      vertex 20.5 5.27846 5.77433
      vertex 25.5 5.27846 5.77433
    endloop
  endfacet
  facet normal 0 -0.707107 0.707107
    outer loop
      vertex 30.5 5.27846 5.77433
      vertex 35.5 5.47567 5.97154
      vertex 30.5 5.47567 5.97154
    endloop
  endfacet
  facet normal 0 -0.707107 0.707107
    outer loop
      vertex 35.5 5.47567 5.97154
      vertex 30.5 5.27846 5.77433
      vertex 35.5 5.27846 5.77433
    endloop
  endfacet
  facet normal 0 -0.906308 0.422618
    outer loop
      vertex 20.5 5.63564 6.2
      vertex 25.5 5.75351 6.45277
      vertex 20.5 5.75351 6.45277
    endloop
  endfacet
  facet normal 0 -0.906308 0.422618
    outer loop
      vertex 25.5 5.75351 6.45277
      vertex 20.5 5.63564 6.2
      vertex 25.5 5.63564 6.2
    endloop
  endfacet
  facet normal 0 -0.906308 0.422618
    outer loop
      vertex 30.5 5.63564 6.2
      vertex 35.5 5.75351 6.45277
      vertex 30.5 5.75351 6.45277
    endloop
  endfacet
  facet normal 0 -0.906308 0.422618
    outer loop
      vertex 35.5 5.75351 6.45277
      vertex 30.5 5.63564 6.2
      vertex 35.5 5.63564 6.2
    endloop
  endfacet
  facet normal 0 -0.25882 -0.965925
    outer loop
      vertex 20.5 4.52784 8.57569
      vertex 25.5 4.79723 8.50351
      vertex 25.5 4.52784 8.57569
    endloop
  endfacet
  facet normal -0 -0.25882 -0.965925
    outer loop
      vertex 25.5 4.79723 8.50351
      vertex 20.5 4.52784 8.57569
      vertex 20.5 4.79723 8.50351
    endloop
  endfacet
  facet normal 0 -0.25882 -0.965925
    outer loop
      vertex 30.5 4.52784 8.57569
      vertex 35.5 4.79723 8.50351
      vertex 35.5 4.52784 8.57569
    endloop
  endfacet
  facet normal -0 -0.25882 -0.965925
    outer loop
      vertex 35.5 4.79723 8.50351
      vertex 30.5 4.52784 8.57569
      vertex 30.5 4.79723 8.50351
    endloop
  endfacet
  facet normal 0 0.906308 0.422618
    outer loop
      vertex 25.5 2.86436 6.2
      vertex 20.5 2.74649 6.45277
      vertex 25.5 2.74649 6.45277
    endloop
  endfacet
  facet normal 0 0.906308 0.422618
    outer loop
      vertex 20.5 2.74649 6.45277
      vertex 25.5 2.86436 6.2
      vertex 20.5 2.86436 6.2
    endloop
  endfacet
  facet normal 0 0.906308 0.422618
    outer loop
      vertex 35.5 2.86436 6.2
      vertex 30.5 2.74649 6.45277
      vertex 35.5 2.74649 6.45277
    endloop
  endfacet
  facet normal 0 0.906308 0.422618
    outer loop
      vertex 30.5 2.74649 6.45277
      vertex 35.5 2.86436 6.2
      vertex 30.5 2.86436 6.2
    endloop
  endfacet
  facet normal 0 0.707107 0.707107
    outer loop
      vertex 25.5 3.22154 5.77433
      vertex 20.5 3.02433 5.97154
      vertex 25.5 3.02433 5.97154
    endloop
  endfacet
  facet normal 0 0.707107 0.707107
    outer loop
      vertex 20.5 3.02433 5.97154
      vertex 25.5 3.22154 5.77433
      vertex 20.5 3.22154 5.77433
    endloop
  endfacet
  facet normal 0 0.707107 0.707107
    outer loop
      vertex 35.5 3.22154 5.77433
      vertex 30.5 3.02433 5.97154
      vertex 35.5 3.02433 5.97154
    endloop
  endfacet
  facet normal 0 0.707107 0.707107
    outer loop
      vertex 30.5 3.02433 5.97154
      vertex 35.5 3.22154 5.77433
      vertex 30.5 3.22154 5.77433
    endloop
  endfacet
  facet normal 0 0.906308 -0.422618
    outer loop
      vertex 25.5 2.74649 7.54723
      vertex 20.5 2.86436 7.8
      vertex 25.5 2.86436 7.8
    endloop
  endfacet
  facet normal 0 0.906308 -0.422618
    outer loop
      vertex 20.5 2.86436 7.8
      vertex 25.5 2.74649 7.54723
      vertex 20.5 2.74649 7.54723
    endloop
  endfacet
  facet normal 0 0.906308 -0.422618
    outer loop
      vertex 35.5 2.74649 7.54723
      vertex 30.5 2.86436 7.8
      vertex 35.5 2.86436 7.8
    endloop
  endfacet
  facet normal 0 0.906308 -0.422618
    outer loop
      vertex 30.5 2.86436 7.8
      vertex 35.5 2.74649 7.54723
      vertex 30.5 2.74649 7.54723
    endloop
  endfacet
  facet normal 0 0.573576 -0.819153
    outer loop
      vertex 20.5 3.22154 8.22567
      vertex 25.5 3.45 8.38564
      vertex 25.5 3.22154 8.22567
    endloop
  endfacet
  facet normal 0 0.573576 -0.819153
    outer loop
      vertex 25.5 3.45 8.38564
      vertex 20.5 3.22154 8.22567
      vertex 20.5 3.45 8.38564
    endloop
  endfacet
  facet normal 0 0.573576 -0.819153
    outer loop
      vertex 30.5 3.22154 8.22567
      vertex 35.5 3.45 8.38564
      vertex 35.5 3.22154 8.22567
    endloop
  endfacet
  facet normal 0 0.573576 -0.819153
    outer loop
      vertex 35.5 3.45 8.38564
      vertex 30.5 3.22154 8.22567
      vertex 30.5 3.45 8.38564
    endloop
  endfacet
  facet normal -0 0.25882 0.965925
    outer loop
      vertex 20.5 3.97216 5.42431
      vertex 25.5 3.70277 5.49649
      vertex 25.5 3.97216 5.42431
    endloop
  endfacet
  facet normal 0 0.25882 0.965925
    outer loop
      vertex 25.5 3.70277 5.49649
      vertex 20.5 3.97216 5.42431
      vertex 20.5 3.70277 5.49649
    endloop
  endfacet
  facet normal -0 0.25882 0.965925
    outer loop
      vertex 30.5 3.97216 5.42431
      vertex 35.5 3.70277 5.49649
      vertex 35.5 3.97216 5.42431
    endloop
  endfacet
  facet normal 0 0.25882 0.965925
    outer loop
      vertex 35.5 3.70277 5.49649
      vertex 30.5 3.97216 5.42431
      vertex 30.5 3.70277 5.49649
    endloop
  endfacet
endsolid OpenSCAD_Model
