<?xml version="1.0" encoding="UTF-8" standalone="no"?>
<!DOCTYPE svg PUBLIC "-//W3C//DTD SVG 20010904//EN"
              "http://www.w3.org/TR/2001/REC-SVG-20010904/DTD/svg10.dtd">

<svg xmlns="http://www.w3.org/2000/svg"
     width="38in" height="50.6667in"
     viewBox="0 0 2736 3648">
  <path id="Selection #1"
        fill="none" stroke="black" stroke-width="1"
        d="M 595.00,1260.00
           C 595.00,1260.00 605.00,1250.31 605.00,1250.31
             609.97,1246.49 616.68,1244.67 622.00,1241.51
             627.57,1238.19 643.22,1222.86 645.53,1217.00
             646.99,1213.27 646.99,1208.94 647.00,1205.00
             647.00,1205.00 647.00,1186.00 647.00,1186.00
             647.00,1186.00 648.00,1170.00 648.00,1170.00
             648.00,1170.00 649.26,1142.00 649.26,1142.00
             649.26,1142.00 650.74,1136.00 650.74,1136.00
             650.74,1136.00 651.26,1127.00 651.26,1127.00
             651.26,1127.00 653.66,1119.00 653.66,1119.00
             653.66,1119.00 654.47,1106.00 654.47,1106.00
             655.64,1101.45 658.76,1098.97 659.91,1095.00
             659.91,1095.00 659.91,1088.00 659.91,1088.00
             659.91,1088.00 662.71,1075.00 662.71,1075.00
             663.86,1070.54 665.73,1068.72 667.22,1065.00
             667.22,1065.00 671.17,1053.00 671.17,1053.00
             671.17,1053.00 672.93,1044.00 672.93,1044.00
             672.93,1044.00 682.48,1026.00 682.48,1026.00
             682.48,1026.00 685.87,1010.00 685.87,1010.00
             686.24,1006.78 685.55,1004.13 687.00,1001.00
             691.36,991.60 701.84,985.21 706.15,978.00
             707.82,975.19 707.67,973.21 708.55,971.00
             707.41,973.86 718.04,953.76 716.58,956.00
             716.58,956.00 728.10,940.00 728.10,940.00
             728.10,940.00 737.17,927.00 737.17,927.00
             737.17,927.00 740.54,921.00 740.54,921.00
             740.54,921.00 768.17,887.00 768.17,887.00
             768.17,887.00 788.00,867.00 788.00,867.00
             788.00,867.00 797.09,857.13 797.09,857.13
             797.09,857.13 803.72,851.74 803.72,851.74
             803.72,851.74 811.00,844.13 811.00,844.13
             811.00,844.13 819.00,837.87 819.00,837.87
             819.00,837.87 836.00,821.30 836.00,821.30
             836.00,821.30 857.00,808.22 857.00,808.22
             857.00,808.22 867.00,801.59 867.00,801.59
             869.39,799.77 871.37,797.44 874.00,795.93
             874.00,795.93 887.00,791.05 887.00,791.05
             887.00,791.05 905.00,780.79 905.00,780.79
             905.00,780.79 915.00,775.98 915.00,775.98
             915.00,775.98 923.00,770.98 923.00,770.98
             923.00,770.98 930.00,769.00 930.00,769.00
             930.00,769.00 936.00,765.42 936.00,765.42
             936.00,765.42 951.00,759.15 951.00,759.15
             951.00,759.15 962.00,752.90 962.00,752.90
             962.00,752.90 976.00,750.78 976.00,750.78
             979.50,749.71 980.27,748.42 983.00,747.15
             983.00,747.15 991.00,744.97 991.00,744.97
             991.00,744.97 1003.00,739.58 1003.00,739.58
             1006.67,738.38 1010.68,739.68 1016.00,738.22
             1016.00,738.22 1037.00,731.42 1037.00,731.42
             1037.00,731.42 1051.00,728.79 1051.00,728.79
             1054.97,727.69 1058.04,725.33 1063.00,724.37
             1063.00,724.37 1075.00,723.83 1075.00,723.83
             1075.00,723.83 1094.00,721.83 1094.00,721.83
             1094.00,721.83 1123.00,719.00 1123.00,719.00
             1123.00,719.00 1192.00,719.00 1192.00,719.00
             1192.00,719.00 1203.00,717.68 1203.00,717.68
             1209.46,718.12 1209.70,722.86 1221.00,723.00
             1231.53,723.12 1231.30,722.50 1242.00,724.63
             1242.00,724.63 1249.00,725.87 1249.00,725.87
             1249.00,725.87 1259.00,731.20 1259.00,731.20
             1262.43,732.52 1265.27,732.17 1271.00,734.86
             1271.00,734.86 1279.00,739.41 1279.00,739.41
             1283.99,741.15 1289.89,738.29 1298.00,742.39
             1302.37,744.60 1307.54,750.84 1315.00,754.03
             1319.52,755.96 1323.43,754.06 1328.00,755.92
             1328.00,755.92 1346.00,768.00 1346.00,768.00
             1346.00,768.00 1357.00,770.17 1357.00,770.17
             1362.14,771.71 1362.37,773.24 1366.00,775.01
             1368.82,776.39 1370.95,776.03 1374.00,777.85
             1376.85,779.56 1381.95,784.97 1385.00,787.57
             1389.89,791.75 1391.31,792.17 1396.00,795.45
             1396.00,795.45 1404.00,801.79 1404.00,801.79
             1404.00,801.79 1424.00,815.75 1424.00,815.75
             1424.00,815.75 1432.00,822.55 1432.00,822.55
             1432.00,822.55 1443.58,830.68 1443.58,830.68
             1443.58,830.68 1449.01,835.55 1449.01,835.55
             1449.01,835.55 1462.00,845.21 1462.00,845.21
             1462.00,845.21 1469.00,851.74 1469.00,851.74
             1472.84,854.95 1473.37,854.55 1478.00,859.02
             1478.00,859.02 1502.00,884.00 1502.00,884.00
             1502.00,884.00 1513.58,894.21 1513.58,894.21
             1522.45,903.01 1528.66,911.21 1536.17,921.00
             1536.17,921.00 1544.46,931.00 1544.46,931.00
             1544.46,931.00 1556.79,951.00 1556.79,951.00
             1556.79,951.00 1566.21,966.00 1566.21,966.00
             1566.21,966.00 1570.00,974.00 1570.00,974.00
             1570.00,974.00 1577.83,984.00 1577.83,984.00
             1581.80,989.67 1580.90,992.45 1583.47,998.00
             1583.47,998.00 1587.02,1004.00 1587.02,1004.00
             1587.02,1004.00 1588.99,1009.00 1588.99,1009.00
             1588.99,1009.00 1599.98,1024.00 1599.98,1024.00
             1599.98,1024.00 1602.02,1030.00 1602.02,1030.00
             1603.22,1032.33 1612.81,1043.49 1615.09,1044.40
             1621.92,1047.14 1629.22,1043.58 1635.00,1040.37
             1643.83,1035.48 1658.08,1026.07 1668.00,1026.00
             1668.00,1026.00 1701.00,1026.00 1701.00,1026.00
             1704.43,1026.04 1713.95,1027.49 1717.00,1028.57
             1717.00,1028.57 1723.00,1031.60 1723.00,1031.60
             1725.70,1032.83 1727.17,1032.91 1730.00,1034.66
             1730.00,1034.66 1739.00,1041.44 1739.00,1041.44
             1743.90,1044.96 1746.43,1046.20 1750.56,1051.01
             1755.10,1056.30 1755.76,1059.45 1759.33,1065.00
             1762.93,1070.58 1767.87,1075.43 1769.56,1082.00
             1769.56,1082.00 1772.98,1109.00 1772.98,1109.00
             1772.76,1115.39 1769.54,1121.80 1768.22,1128.00
             1768.22,1128.00 1765.78,1141.00 1765.78,1141.00
             1765.78,1141.00 1749.99,1168.00 1749.99,1168.00
             1749.99,1168.00 1747.51,1174.00 1747.51,1174.00
             1745.28,1178.91 1740.54,1181.40 1743.52,1187.00
             1748.17,1195.72 1759.39,1203.12 1768.00,1207.55
             1768.00,1207.55 1774.87,1210.59 1774.87,1210.59
             1777.28,1212.36 1783.38,1221.86 1787.80,1224.98
             1787.80,1224.98 1791.92,1227.07 1791.92,1227.07
             1791.92,1227.07 1797.09,1231.46 1797.09,1231.46
             1797.09,1231.46 1808.00,1238.37 1808.00,1238.37
             1808.00,1238.37 1821.09,1251.37 1821.09,1251.37
             1821.09,1251.37 1830.63,1258.03 1830.63,1258.03
             1830.63,1258.03 1845.49,1273.42 1845.49,1273.42
             1848.40,1277.02 1847.25,1279.20 1850.31,1282.95
             1851.93,1284.93 1860.63,1291.60 1865.28,1297.42
             1865.28,1297.42 1875.65,1312.00 1875.65,1312.00
             1875.65,1312.00 1882.54,1324.00 1882.54,1324.00
             1882.54,1324.00 1894.95,1340.00 1894.95,1340.00
             1894.95,1340.00 1899.54,1349.00 1899.54,1349.00
             1899.54,1349.00 1905.92,1359.00 1905.92,1359.00
             1905.92,1359.00 1914.88,1378.00 1914.88,1378.00
             1914.88,1378.00 1920.11,1386.28 1920.11,1386.28
             1920.11,1386.28 1921.87,1394.00 1921.87,1394.00
             1921.87,1394.00 1927.95,1408.00 1927.95,1408.00
             1927.95,1408.00 1934.00,1428.00 1934.00,1428.00
             1934.00,1428.00 1938.51,1438.00 1938.51,1438.00
             1940.55,1443.59 1940.97,1449.17 1941.58,1451.00
             1942.87,1454.87 1944.62,1454.78 1946.33,1463.00
             1946.33,1463.00 1948.26,1481.00 1948.26,1481.00
             1948.26,1481.00 1951.76,1495.00 1951.76,1495.00
             1951.76,1495.00 1953.30,1511.00 1953.30,1511.00
             1954.50,1516.80 1955.98,1513.68 1956.00,1524.00
             1956.00,1524.00 1956.00,1563.00 1956.00,1563.00
             1956.00,1563.00 1955.00,1585.00 1955.00,1585.00
             1954.98,1594.63 1953.79,1592.10 1953.06,1598.00
             1953.06,1598.00 1953.06,1608.00 1953.06,1608.00
             1952.86,1619.42 1949.67,1620.77 1948.38,1627.00
             1948.38,1627.00 1946.78,1639.00 1946.78,1639.00
             1946.78,1639.00 1941.74,1660.00 1941.74,1660.00
             1941.74,1660.00 1939.26,1670.00 1939.26,1670.00
             1939.26,1670.00 1938.45,1677.00 1938.45,1677.00
             1938.45,1677.00 1934.42,1686.00 1934.42,1686.00
             1934.42,1686.00 1928.41,1706.00 1928.41,1706.00
             1928.41,1706.00 1925.12,1714.00 1925.12,1714.00
             1925.12,1714.00 1921.85,1720.00 1921.85,1720.00
             1921.85,1720.00 1920.03,1727.00 1920.03,1727.00
             1917.26,1733.35 1912.40,1738.23 1908.91,1744.00
             1908.91,1744.00 1896.30,1768.00 1896.30,1768.00
             1896.30,1768.00 1886.54,1781.00 1886.54,1781.00
             1886.54,1781.00 1882.76,1787.00 1882.76,1787.00
             1882.76,1787.00 1873.71,1799.00 1873.71,1799.00
             1873.71,1799.00 1870.45,1805.00 1870.45,1805.00
             1865.95,1811.53 1859.67,1816.71 1854.05,1822.17
             1854.05,1822.17 1845.95,1831.83 1845.95,1831.83
             1845.95,1831.83 1825.00,1850.75 1825.00,1850.75
             1825.00,1850.75 1818.00,1856.13 1818.00,1856.13
             1811.59,1861.81 1806.36,1869.65 1797.00,1866.00
             1796.84,1878.78 1789.37,1875.29 1782.60,1886.00
             1779.49,1890.93 1782.10,1897.70 1780.40,1901.90
             1777.11,1910.00 1765.88,1908.92 1759.00,1909.00
             1747.67,1909.14 1733.84,1917.74 1723.00,1921.98
             1723.00,1921.98 1684.00,1937.45 1684.00,1937.45
             1684.00,1937.45 1669.00,1944.20 1669.00,1944.20
             1665.50,1945.36 1661.51,1944.63 1650.00,1949.17
             1650.00,1949.17 1629.00,1961.68 1629.00,1961.68
             1623.96,1962.74 1615.96,1950.48 1611.00,1948.02
             1605.98,1945.54 1600.76,1948.51 1595.99,1949.77
             1595.99,1949.77 1585.00,1952.58 1585.00,1952.58
             1581.47,1954.00 1577.72,1958.27 1575.00,1961.00
             1575.00,1961.00 1558.05,1979.00 1558.05,1979.00
             1552.45,1985.01 1553.00,1988.83 1544.00,1989.00
             1540.22,1989.07 1535.49,1988.52 1532.00,1989.96
             1532.00,1989.96 1527.00,1992.44 1527.00,1992.44
             1524.65,1993.30 1523.52,1992.99 1521.00,1994.60
             1516.25,1997.62 1510.89,2004.59 1500.00,2009.00
             1500.00,2009.00 1499.00,2006.00 1499.00,2006.00
             1493.57,2007.68 1483.65,2012.26 1480.48,2017.00
             1477.66,2021.24 1479.98,2024.44 1478.25,2030.00
             1476.45,2035.81 1470.46,2043.42 1466.39,2047.94
             1461.76,2053.08 1460.60,2050.97 1456.28,2055.14
             1456.28,2055.14 1449.00,2062.96 1449.00,2062.96
             1449.00,2062.96 1426.00,2082.78 1426.00,2082.78
             1426.00,2082.78 1419.00,2087.41 1419.00,2087.41
             1419.00,2087.41 1412.00,2093.70 1412.00,2093.70
             1408.57,2096.44 1407.30,2095.86 1405.00,2100.00
             1398.87,2101.77 1396.44,2105.57 1391.59,2109.15
             1391.59,2109.15 1363.00,2125.72 1363.00,2125.72
             1354.44,2129.21 1349.29,2128.75 1346.00,2129.87
             1346.00,2129.87 1339.00,2133.16 1339.00,2133.16
             1339.00,2133.16 1325.00,2137.52 1325.00,2137.52
             1320.66,2138.47 1317.71,2136.37 1313.00,2137.52
             1307.28,2138.80 1303.68,2142.87 1299.00,2144.58
             1290.05,2147.84 1282.97,2146.28 1278.83,2147.00
             1273.92,2147.86 1272.32,2150.73 1268.00,2151.70
             1263.08,2152.81 1249.49,2153.00 1244.00,2153.00
             1244.00,2153.00 1208.00,2153.00 1208.00,2153.00
             1208.00,2153.00 1176.00,2152.00 1176.00,2152.00
             1163.77,2151.98 1167.74,2148.96 1160.00,2145.50
             1160.00,2145.50 1151.00,2143.05 1151.00,2143.05
             1151.00,2143.05 1140.00,2137.84 1140.00,2137.84
             1133.83,2135.23 1132.70,2136.61 1129.00,2135.07
             1129.00,2135.07 1123.00,2131.85 1123.00,2131.85
             1123.00,2131.85 1116.00,2130.11 1116.00,2130.11
             1116.00,2130.11 1109.00,2126.48 1109.00,2126.48
             1109.00,2126.48 1103.00,2124.07 1103.00,2124.07
             1103.00,2124.07 1095.00,2119.64 1095.00,2119.64
             1095.00,2119.64 1081.00,2114.36 1081.00,2114.36
             1081.00,2114.36 1057.00,2099.71 1057.00,2099.71
             1057.00,2099.71 1046.00,2095.27 1046.00,2095.27
             1037.93,2090.17 1040.67,2086.69 1026.00,2083.84
             1022.09,2083.33 1015.49,2081.59 1012.00,2083.84
             1007.24,2086.43 1002.03,2095.26 996.91,2095.85
             992.48,2096.36 990.59,2093.75 987.00,2092.58
             985.71,2092.16 976.37,2091.21 975.00,2091.34
             975.00,2091.34 969.00,2092.80 969.00,2092.80
             959.71,2094.93 950.62,2097.99 941.00,2098.00
             941.00,2098.00 907.00,2098.00 907.00,2098.00
             892.24,2097.98 891.35,2094.03 879.00,2090.71
             873.58,2089.26 874.46,2090.95 866.00,2087.45
             859.17,2084.62 847.63,2077.41 842.00,2072.74
             842.00,2072.74 836.01,2067.30 836.01,2067.30
             836.01,2067.30 830.58,2063.48 830.58,2063.48
             830.58,2063.48 819.14,2052.00 819.14,2052.00
             819.14,2052.00 813.71,2044.00 813.71,2044.00
             807.95,2036.57 800.98,2027.67 797.30,2019.00
             795.54,2014.85 796.22,2013.07 795.02,2009.00
             795.02,2009.00 787.51,1986.00 787.51,1986.00
             787.51,1986.00 786.56,1978.00 786.56,1978.00
             785.42,1971.27 782.37,1967.57 782.06,1962.00
             782.06,1962.00 783.72,1943.00 783.72,1943.00
             784.11,1939.67 783.73,1936.23 784.76,1933.00
             787.40,1924.76 793.09,1916.86 793.83,1908.00
             794.72,1897.31 783.77,1894.04 778.04,1888.86
             773.66,1884.90 762.54,1869.49 758.83,1864.00
             758.83,1864.00 753.39,1855.00 753.39,1855.00
             753.39,1855.00 740.55,1839.00 740.55,1839.00
             738.41,1836.28 734.37,1832.70 733.02,1830.00
             731.97,1827.90 732.01,1819.43 728.00,1812.00
             725.12,1806.67 716.54,1801.22 714.60,1796.00
             714.60,1796.00 710.12,1769.00 710.12,1769.00
             710.12,1769.00 704.63,1753.17 704.63,1753.17
             701.87,1746.49 699.13,1743.91 699.00,1736.00
             699.00,1736.00 698.00,1705.00 698.00,1705.00
             698.00,1705.00 696.70,1692.00 696.70,1692.00
             696.97,1679.50 700.86,1682.34 701.00,1671.00
             701.00,1671.00 701.00,1639.00 701.00,1639.00
             701.02,1628.69 702.52,1631.75 704.42,1626.00
             704.42,1626.00 705.32,1620.00 705.32,1620.00
             706.16,1615.04 708.43,1609.00 706.02,1604.09
             703.74,1599.46 697.94,1596.34 694.00,1593.39
             690.27,1590.60 686.88,1586.24 683.00,1584.43
             683.00,1584.43 658.00,1579.09 658.00,1579.09
             654.43,1578.53 650.42,1578.34 647.00,1577.21
             636.70,1573.78 637.84,1573.03 630.00,1569.12
             630.00,1569.12 619.00,1564.13 619.00,1564.13
             619.00,1564.13 597.14,1545.83 597.14,1545.83
             597.14,1545.83 590.86,1537.01 590.86,1537.01
             590.86,1537.01 582.94,1529.49 582.94,1529.49
             582.94,1529.49 580.15,1524.00 580.15,1524.00
             580.15,1524.00 574.96,1516.72 574.96,1516.72
             574.96,1516.72 571.16,1509.00 571.16,1509.00
             568.45,1504.05 565.03,1499.37 563.13,1494.00
             561.37,1489.05 562.51,1486.46 561.55,1482.00
             561.55,1482.00 556.77,1465.00 556.77,1465.00
             554.20,1451.44 554.03,1437.74 554.00,1424.00
             553.98,1412.30 551.63,1415.50 549.56,1409.00
             548.73,1406.40 549.03,1400.94 549.00,1398.00
             549.00,1398.00 548.00,1385.00 548.00,1385.00
             548.00,1385.00 548.00,1360.00 548.00,1360.00
             548.02,1349.60 549.03,1352.57 550.04,1346.00
             550.04,1346.00 550.04,1339.00 550.04,1339.00
             550.04,1339.00 551.74,1333.00 551.74,1333.00
             551.74,1333.00 552.30,1324.00 552.30,1324.00
             552.30,1324.00 554.70,1317.00 554.70,1317.00
             554.70,1317.00 555.42,1306.00 555.42,1306.00
             556.87,1300.14 562.14,1296.44 565.77,1292.00
             567.68,1289.68 572.17,1279.97 573.00,1277.00
             578.94,1274.32 590.19,1264.75 595.00,1260.00 Z" />
</svg>
