<?xml version="1.0" encoding="UTF-8" standalone="no"?>
<svg
   xmlns:dc="http://purl.org/dc/elements/1.1/"
   xmlns:cc="http://creativecommons.org/ns#"
   xmlns:rdf="http://www.w3.org/1999/02/22-rdf-syntax-ns#"
   xmlns:svg="http://www.w3.org/2000/svg"
   xmlns="http://www.w3.org/2000/svg"
   xmlns:sodipodi="http://sodipodi.sourceforge.net/DTD/sodipodi-0.dtd"
   xmlns:inkscape="http://www.inkscape.org/namespaces/inkscape"
   width="1.4289712in"
   height="1.4566929in"
   viewBox="0 0 102.88592 104.88183"
   version="1.1"
   id="svg3"
   sodipodi:docname="TruckGearBoxContour.svg"
   inkscape:version="0.92.3 (2405546, 2018-03-11)">
  <metadata
     id="metadata9">
    <rdf:RDF>
      <cc:Work
         rdf:about="">
        <dc:format>image/svg+xml</dc:format>
        <dc:type
           rdf:resource="http://purl.org/dc/dcmitype/StillImage" />
        <dc:title></dc:title>
      </cc:Work>
    </rdf:RDF>
  </metadata>
  <defs
     id="defs7" />
  <sodipodi:namedview
     pagecolor="#ffffff"
     bordercolor="#666666"
     borderopacity="1"
     objecttolerance="10"
     gridtolerance="10"
     guidetolerance="10"
     inkscape:pageopacity="0"
     inkscape:pageshadow="2"
     inkscape:window-width="1920"
     inkscape:window-height="2029"
     id="namedview5"
     showgrid="false"
     fit-margin-top="0"
     fit-margin-left="0"
     fit-margin-right="0"
     fit-margin-bottom="0"
     inkscape:document-units="mm"
     inkscape:zoom="6.2105224"
     inkscape:cx="61.196685"
     inkscape:cy="62.033434"
     inkscape:window-x="0"
     inkscape:window-y="42"
     inkscape:window-maximized="0"
     inkscape:current-layer="svg3" />
  <path
     id="Selection #1-4"
     d="m 8.7628889,41.021106 c 0,0 0.6512621,-0.631037 0.6512621,-0.631037 0.3236783,-0.248774 0.760676,-0.36736 1.107148,-0.573128 0.362755,-0.2162 1.381983,-1.214597 1.532424,-1.596221 0.09508,-0.24292 0.09508,-0.524906 0.09573,-0.781558 0,0 0,-1.237377 0,-1.237377 0,0 0.06513,-1.042042 0.06513,-1.042042 0,0 0.08206,-1.823492 0.08206,-1.823492 0,0 0.09639,-0.390779 0.09639,-0.390779 0,0 0.03386,-0.586115 0.03386,-0.586115 0,0 0.156303,-0.520967 0.156303,-0.520967 0,0 0.05276,-0.846705 0.05276,-0.846705 0.0762,-0.296251 0.279393,-0.457843 0.354288,-0.716304 0,0 0,-0.455926 0,-0.455926 0,0 0.182354,-0.846599 0.182354,-0.846599 0.0749,-0.290503 0.196681,-0.408982 0.29372,-0.651262 0,0 0.257247,-0.781558 0.257247,-0.781558 0,0 0.114624,-0.586115 0.114624,-0.586115 0,0 0.621957,-1.172336 0.621957,-1.172336 0,0 0.220778,-1.041935 0.220778,-1.041935 0.0241,-0.209707 -0.02084,-0.382369 0.07359,-0.586115 0.283951,-0.612195 0.966475,-1.028416 1.24717,-1.497968 0.108762,-0.182988 0.09899,-0.311899 0.156304,-0.45582 -0.07424,0.186182 0.618048,-1.122837 0.522964,-0.976894 0,0 0.750256,-1.042042 0.750256,-1.042042 0,0 0.590694,-0.846705 0.590694,-0.846705 0,0 0.219476,-0.390672 0.219476,-0.390672 0,0 1.799442,-2.214378 1.799442,-2.214378 0,0 1.291457,-1.302525 1.291457,-1.302525 0,0 0.591998,-0.642747 0.591998,-0.642747 0,0 0.431788,-0.351072 0.431788,-0.351072 0,0 0.474121,-0.495526 0.474121,-0.495526 0,0 0.521011,-0.407704 0.521011,-0.407704 0,0 1.107147,-1.079193 1.107147,-1.079193 0,0 1.367654,-0.851815 1.367654,-0.851815 0,0 0.651265,-0.431762 0.651265,-0.431762 0.155652,-0.118585 0.284601,-0.270277 0.455883,-0.368637 0,0 0.846643,-0.31786 0.846643,-0.31786 0,0 1.172275,-0.6681884 1.172275,-0.6681884 0,0 0.651264,-0.3131767 0.651264,-0.3131767 0,0 0.521011,-0.3256311 0.521011,-0.3256311 0,0 0.455885,-0.1290177 0.455885,-0.1290177 0,0 0.390757,-0.233126 0.390757,-0.233126 0,0 0.976896,-0.4083432 0.976896,-0.4083432 0,0 0.71639,-0.4070656 0.71639,-0.4070656 0,0 0.911769,-0.138066 0.911769,-0.138066 0.227943,-0.069193 0.278089,-0.153714 0.455886,-0.2364259 0,0 0.52101,-0.1418982 0.52101,-0.1418982 0,0 0.781517,-0.3510728 0.781517,-0.3510728 0.239013,-0.077709 0.50017,0.010645 0.846642,-0.088354 0,0 1.367654,-0.4428329 1.367654,-0.4428329 0,0 0.911768,-0.1712784 0.911768,-0.1712784 0.258552,-0.071322 0.458491,-0.2253552 0.781518,-0.2878415 0,0 0.781516,-0.035128 0.781516,-0.035128 0,0 1.237402,-0.1301886 1.237402,-0.1301886 0,0 1.888664,-0.1843719 1.888664,-0.1843719 0,0 4.493718,0 4.493718,0 0,0 0.716391,-0.086225 0.716391,-0.086225 0.420717,0.028741 0.436347,0.3373407 1.172275,0.346389 0.685781,0.010645 0.670802,-0.033 1.367653,0.1064502 0,0 0.455885,0.080902 0.455885,0.080902 0,0 0.651263,0.3471342 0.651263,0.3471342 0.223384,0.086225 0.408342,0.062806 0.781517,0.238342 0,0 0.521011,0.2963575 0.521011,0.2963575 0.32498,0.1133695 0.709222,-0.072386 1.237394,0.1940587 0.284601,0.1439207 0.621313,0.5503477 1.107155,0.7581385 0.294371,0.1256113 0.549012,0 0.846644,0.1230565 0,0 1.172275,0.7866673 1.172275,0.7866673 0,0 0.716393,0.1413659 0.716393,0.1413659 0.334741,0.1000631 0.349731,0.1999134 0.586132,0.315199 0.183661,0.089418 0.322381,0.065999 0.521012,0.1850106 0.185611,0.1113468 0.517751,0.4636975 0.716392,0.6329535 0.318471,0.272299 0.410941,0.299657 0.716383,0.513196 0,0 0.521012,0.412921 0.521012,0.412921 0,0 1.302525,0.909191 1.302525,0.909191 0,0 0.521012,0.442833 0.521012,0.442833 0,0 0.754163,0.529484 0.754163,0.529484 0,0 0.353642,0.317115 0.353642,0.317115 0,0 0.845993,0.62912 0.845993,0.62912 0,0 0.455872,0.425269 0.455872,0.425269 0.250101,0.209069 0.284611,0.183095 0.586142,0.47413 0,0 1.563036,1.626879 1.563036,1.626879 0,0 0.754163,0.664994 0.754163,0.664994 0.577673,0.573021 0.982114,1.107081 1.471206,1.744719 0,0 0.539903,0.651263 0.539903,0.651263 0,0 0.803013,1.302525 0.803013,1.302525 0,0 0.613482,0.976894 0.613482,0.976894 0,0 0.246821,0.520968 0.246821,0.520968 0,0 0.509942,0.651263 0.509942,0.651263 0.258551,0.369276 0.199941,0.550348 0.367312,0.911746 0,0 0.231201,0.390779 0.231201,0.390779 0,0 0.1283,0.325631 0.1283,0.325631 0,0 0.715733,0.976894 0.715733,0.976894 0,0 0.132861,0.390779 0.132861,0.390779 0.0781,0.151691 0.702712,0.878533 0.851203,0.937826 0.444812,0.178411 0.920234,-0.05323 1.296665,-0.262506 0.575073,-0.318499 1.503116,-0.931333 2.149179,-0.93591 0,0 2.149159,0 2.149159,0 0.22339,0 0.843393,0.09687 1.042024,0.167446 0,0 0.390761,0.197358 0.390761,0.197358 0.175841,0.07984 0.271581,0.08516 0.455882,0.199275 0,0 0.586142,0.441556 0.586142,0.441556 0.319122,0.229187 0.483882,0.309983 0.752864,0.623266 0.295661,0.344473 0.338651,0.549602 0.571162,0.911107 0.234441,0.363315 0.556172,0.679259 0.666242,1.107083 0,0 0.222721,1.758451 0.222721,1.758451 -0.0144,0.416114 -0.224031,0.833612 -0.310001,1.237378 0,0 -0.158901,0.846598 -0.158901,0.846598 0,0 -1.028344,1.758452 -1.028344,1.758452 0,0 -0.16152,0.390778 -0.16152,0.390778 -0.145231,0.319777 -0.453922,0.481901 -0.259851,0.846599 0.302841,0.567912 1.033554,1.049812 1.594286,1.338399 0,0 0.447422,0.197891 0.447422,0.197891 0.156951,0.115285 0.554222,0.733974 0.842083,0.937188 0,0 0.268311,0.136149 0.268311,0.136149 0,0 0.336712,0.285926 0.336712,0.285926 0,0 0.710533,0.449965 0.710533,0.449965 0,0 0.852503,0.846705 0.852503,0.846705 0,0 0.621302,0.433678 0.621302,0.433678 0,0 0.967774,1.002336 0.967774,1.002336 0.189522,0.234403 0.114622,0.376408 0.313923,0.620604 0.10549,0.128912 0.672092,0.563335 0.974934,0.942404 0,0 0.675352,0.949536 0.675352,0.949536 0,0 0.448722,0.781452 0.448722,0.781452 0,0 0.808233,1.042041 0.808233,1.042041 0,0 0.298922,0.586115 0.298922,0.586115 0,0 0.415511,0.651262 0.415511,0.651262 0,0 0.583523,1.237483 0.583523,1.237483 0,0 0.340611,0.539172 0.340611,0.539172 0,0 0.11463,0.502764 0.11463,0.502764 0,0 0.395962,0.911853 0.395962,0.911853 0,0 0.394022,1.302525 0.394022,1.302525 0,0 0.293711,0.651262 0.293711,0.651262 0.13286,0.363954 0.16021,0.727375 0.199941,0.846599 0.084,0.252074 0.19799,0.246113 0.309351,0.781451 0,0 0.12569,1.172336 0.12569,1.172336 0,0 0.227951,0.911747 0.227951,0.911747 0,0 0.100281,1.04204 0.100281,1.04204 0.0781,0.377686 0.17453,0.174473 0.17583,0.8466 0,0 0,2.539902 0,2.539902 0,0 -0.0651,1.43282 -0.0651,1.43282 -10e-4,0.627205 -0.0788,0.46242 -0.12634,0.846598 0,0 0,0.651263 0,0.651263 -0.013,0.743768 -0.220791,0.831696 -0.304802,1.237378 0,0 -0.10421,0.781557 -0.10421,0.781557 0,0 -0.328231,1.367673 -0.328231,1.367673 0,0 -0.161521,0.651263 -0.161521,0.651263 0,0 -0.0528,0.455819 -0.0528,0.455819 0,0 -0.262461,0.586222 -0.262461,0.586222 0,0 -0.391412,1.302525 -0.391412,1.302525 0,0 -0.214261,0.520967 -0.214261,0.520967 0,0 -0.212971,0.390779 -0.212971,0.390779 0,0 -0.11852,0.45582 -0.11852,0.45582 -0.180401,0.413559 -0.496922,0.731419 -0.724213,1.107189 0,0 -0.821233,1.563008 -0.821233,1.563008 0,0 -0.635643,0.846599 -0.635643,0.846599 0,0 -0.246171,0.390779 -0.246171,0.390779 0,0 -0.589392,0.781558 -0.589392,0.781558 0,0 -0.212311,0.390777 -0.212311,0.390777 -0.293071,0.42527 -0.702063,0.762611 -1.068074,1.118155 0,0 -0.527524,0.62912 -0.527524,0.62912 0,0 -1.364395,1.232162 -1.364395,1.232162 0,0 -0.455882,0.350434 -0.455882,0.350434 -0.417472,0.369915 -0.758083,0.88045 -1.367655,0.642745 -0.0106,0.832336 -0.496912,0.605065 -0.937824,1.302526 -0.202541,0.321054 -0.0326,0.761971 -0.143281,1.035548 -0.214271,0.52746 -0.945633,0.457203 -1.393695,0.46242 -0.737883,0.01064 -1.638587,0.569189 -2.34456,0.845321 0,0 -2.53992,1.007445 -2.53992,1.007445 0,0 -0.976894,0.439639 -0.976894,0.439639 -0.227941,0.07561 -0.487802,0.02771 -1.237405,0.323718 0,0 -1.367655,0.814663 -1.367655,0.814663 -0.328232,0.06921 -0.849244,-0.729397 -1.172265,-0.889607 -0.326951,-0.161487 -0.666903,0.03194 -0.977564,0.114008 0,0 -0.715733,0.182988 -0.715733,0.182988 -0.229901,0.09261 -0.474122,0.37055 -0.651262,0.548325 0,0 -1.103895,1.172337 -1.103895,1.172337 -0.364711,0.391315 -0.328891,0.640193 -0.915024,0.651266 -0.246181,0 -0.554232,-0.03089 -0.781513,0.06284 0,0 -0.325631,0.161488 -0.325631,0.161488 -0.153051,0.05645 -0.226641,0.03616 -0.390762,0.140729 -0.309351,0.196609 -0.658422,0.650518 -1.367655,0.937822 0,0 -0.0652,-0.195443 -0.0652,-0.195443 -0.353632,0.109434 -0.999684,0.407707 -1.206135,0.716415 -0.183661,0.276127 -0.0326,0.484559 -0.145231,0.846599 -0.11723,0.378431 -0.507332,0.874062 -0.772403,1.168391 -0.301531,0.334792 -0.377081,0.197359 -0.658423,0.468919 0,0 -0.474121,0.509253 -0.474121,0.509253 0,0 -1.497906,1.290815 -1.497906,1.290815 0,0 -0.455882,0.301579 -0.455882,0.301579 0,0 -0.455892,0.409615 -0.455892,0.409615 -0.223381,0.178413 -0.306091,0.140626 -0.455882,0.410261 -0.399222,0.115286 -0.557482,0.362783 -0.873343,0.595909 0,0 -1.861957,1.079189 -1.861957,1.079189 -0.557482,0.227273 -0.892894,0.197254 -1.107154,0.270282 0,0 -0.455882,0.21418 -0.455882,0.21418 0,0 -0.911775,0.284007 -0.911775,0.284007 -0.282651,0.06171 -0.474772,-0.07448 -0.781513,0 -0.372522,0.08303 -0.606982,0.348412 -0.911774,0.459761 -0.582882,0.212368 -1.04397,0.110703 -1.313594,0.157648 -0.31977,0.05645 -0.423973,0.242922 -0.705319,0.306049 -0.320421,0.07241 -1.205488,0.08515 -1.563032,0.08515 0,0 -2.344549,0 -2.344549,0 0,0 -2.084044,-0.0649 -2.084044,-0.0649 -0.796495,0 -0.537944,-0.197997 -1.042022,-0.423355 0,0 -0.586137,-0.159563 -0.586137,-0.159563 0,0 -0.71639,-0.339262 -0.71639,-0.339262 -0.40183,-0.169999 -0.475423,-0.07984 -0.71639,-0.180433 0,0 -0.390759,-0.209702 -0.390759,-0.209702 0,0 -0.455884,-0.11337 -0.455884,-0.11337 0,0 -0.455884,-0.236328 -0.455884,-0.236328 0,0 -0.390759,-0.157007 -0.390759,-0.157007 0,0 -0.521011,-0.288486 -0.521011,-0.288486 0,0 -0.91177,-0.343829 -0.91177,-0.343829 0,0 -1.563031,-0.954116 -1.563031,-0.954116 0,0 -0.716391,-0.289228 -0.716391,-0.289228 -0.525569,-0.332124 -0.347124,-0.558752 -1.302527,-0.744294 -0.254645,-0.03297 -0.684479,-0.146582 -0.911769,0 -0.310003,0.168617 -0.64931,0.743656 -0.982758,0.78209 -0.288509,0.03297 -0.411597,-0.136794 -0.645401,-0.212903 -0.08401,-0.02771 -0.692294,-0.08942 -0.781516,-0.0809 0,0 -0.39076,0.09473 -0.39076,0.09473 -0.605023,0.13871 -1.197023,0.337985 -1.823538,0.338727 0,0 -2.214296,0 -2.214296,0 -0.961265,0 -1.019227,-0.25857 -1.82354,-0.474771 -0.352983,-0.09473 -0.295672,0.01597 -0.846642,-0.212368 -0.444813,-0.184265 -1.196371,-0.653814 -1.563033,-0.95794 0,0 -0.390106,-0.354375 -0.390106,-0.354375 0,0 -0.353637,-0.248774 -0.353637,-0.248774 0,0 -0.745045,-0.7476 -0.745045,-0.7476 0,0 -0.353637,-0.521076 -0.353637,-0.521076 -0.375127,-0.483816 -0.829059,-1.063438 -1.068725,-1.62805 -0.114621,-0.270274 -0.07033,-0.386198 -0.148488,-0.651259 0,0 -0.489098,-1.49797 -0.489098,-1.49797 0,0 -0.06187,-0.520964 -0.06187,-0.520964 -0.07425,-0.438366 -0.27288,-0.679259 -0.293069,-1.042042 0,0 0.10811,-1.237379 0.10811,-1.237379 0.0254,-0.216839 6.51e-4,-0.440917 0.06773,-0.651263 0.171933,-0.536615 0.542502,-1.051196 0.590695,-1.628156 0.05796,-0.696184 -0.655171,-0.909191 -1.028345,-1.246531 -0.285253,-0.25793 -1.009459,-1.261543 -1.251077,-1.619003 0,0 -0.354287,-0.586115 -0.354287,-0.586115 0,0 -0.836223,-1.042041 -0.836223,-1.042041 -0.13937,-0.177133 -0.40248,-0.410366 -0.490401,-0.586115 -0.06838,-0.136787 -0.06578,-0.688414 -0.326934,-1.172335 -0.187564,-0.347136 -0.746349,-0.702041 -0.872693,-1.042043 0,0 -0.291767,-1.758343 -0.291767,-1.758343 0,0 -0.357543,-1.030972 -0.357543,-1.030972 -0.179749,-0.435062 -0.358196,-0.603041 -0.366662,-1.11826 0,0 -0.06513,-2.018828 -0.06513,-2.018828 0,0 -0.08466,-0.846705 -0.08466,-0.846705 0.01758,-0.814024 0.270925,-0.62912 0.280043,-1.367566 0,0 0,-2.084083 0,-2.084083 0.0013,-0.671488 0.09899,-0.472107 0.222733,-0.846599 0,0 0.05861,-0.390779 0.05861,-0.390779 0.0547,-0.323076 0.202541,-0.716409 0.04559,-1.036186 -0.148488,-0.301467 -0.526221,-0.50468 -0.78282,-0.696823 -0.242921,-0.181711 -0.463699,-0.465614 -0.716389,-0.58356 0,0 -1.628159,-0.347773 -1.628159,-0.347773 -0.232474,-0.03625 -0.49363,-0.04902 -0.716362,-0.122473 -0.670799,-0.223333 -0.596555,-0.272194 -1.107145,-0.526823 0,0 -0.716389,-0.324992 -0.716389,-0.324992 0,0 -1.4236626,-1.191817 -1.4236626,-1.191817 0,0 -0.4089936,-0.574405 -0.4089936,-0.574405 0,0 -0.5158012,-0.489778 -0.5158012,-0.489778 0,0 -0.1817027,-0.357566 -0.1817027,-0.357566 0,0 -0.3380059,-0.47413 -0.3380059,-0.47413 0,0 -0.247479,-0.502764 -0.247479,-0.502764 C 7.0336833,56.916153 6.8109513,56.611386 6.6872117,56.26159 6.5725893,55.939259 6.6468317,55.770535 6.5843173,55.480138 c 0,0 -0.3113032,-1.107188 -0.3113032,-1.107188 -0.1673757,-0.883112 -0.1784468,-1.775377 -0.1804018,-2.670197 -0.0013,-0.761971 -0.1543481,-0.553541 -0.2891596,-0.976894 -0.05405,-0.169256 -0.03452,-0.524906 -0.03647,-0.716304 0,0 -0.06513,-0.846705 -0.06513,-0.846705 0,0 0,-1.628156 0,-1.628156 0.0013,-0.677236 0.06708,-0.483816 0.1328575,-0.911746 0,0 0,-0.455927 0,-0.455927 0,0 0.1107154,-0.390672 0.1107154,-0.390672 0,0 0.03647,-0.586221 0.03647,-0.586221 0,0 0.1563026,-0.45582 0.1563026,-0.45582 0,0 0.04689,-0.71641 0.04689,-0.71641 0.09443,-0.381624 0.4376488,-0.622628 0.6740578,-0.911746 0.1243915,-0.151053 0.4168087,-0.783474 0.4708639,-0.976894 0.3868506,-0.174579 1.1195226,-0.797845 1.43278,-1.107189 z"
     inkscape:connector-curvature="0"
     style="fill:none;stroke:#000000;stroke-width:0.06512625" />
  <path
     id="Selection #1-4-8"
     d="m 3.4685852,39.63687 c 0,0 0.730202,-0.707526 0.730202,-0.707526 0.362912,-0.278928 0.8528789,-0.411888 1.2413479,-0.642598 0.406724,-0.242406 1.5494961,-1.36182 1.7181721,-1.789701 0.106605,-0.272365 0.106605,-0.588531 0.107333,-0.876293 0,0 0,-1.387361 0,-1.387361 0,0 0.07302,-1.16835 0.07302,-1.16835 0,0 0.09201,-2.044521 0.09201,-2.044521 0,0 0.108073,-0.438146 0.108073,-0.438146 0,0 0.03796,-0.657159 0.03796,-0.657159 0,0 0.175249,-0.584114 0.175249,-0.584114 0,0 0.05915,-0.949336 0.05915,-0.949336 0.08544,-0.33216 0.313259,-0.513339 0.397232,-0.803129 0,0 0,-0.511189 0,-0.511189 0,0 0.204458,-0.949217 0.204458,-0.949217 0.08398,-0.325715 0.220522,-0.458555 0.329322,-0.730203 0,0 0.288428,-0.876292 0.288428,-0.876292 0,0 0.128518,-0.657159 0.128518,-0.657159 0,0 0.697346,-1.314437 0.697346,-1.314437 0,0 0.2475388,-1.168229 0.2475388,-1.168229 0.02702,-0.235127 -0.02337,-0.428717 0.08251,-0.657159 0.31837,-0.6864 1.083623,-1.153073 1.398341,-1.679539 0.121946,-0.20517 0.110989,-0.349706 0.175251,-0.511072 -0.08324,0.208749 0.692963,-1.258938 0.586353,-1.095304 0,0 0.841197,-1.168351 0.841197,-1.168351 0,0 0.662292,-0.949334 0.662292,-0.949334 0,0 0.24608,-0.438027 0.24608,-0.438027 0,0 2.017556,-2.482786 2.017556,-2.482786 0,0 1.447996,-1.460407 1.447996,-1.460407 0,0 0.663756,-0.720655 0.663756,-0.720655 0,0 0.484125,-0.3936262 0.484125,-0.3936262 0,0 0.53159,-0.55559 0.53159,-0.55559 0,0 0.584164,-0.457123 0.584164,-0.457123 0,0 1.241347,-1.210004 1.241347,-1.210004 0,0 1.533429,-0.955064 1.533429,-0.955064 0,0 0.730206,-0.484096 0.730206,-0.484096 0.174519,-0.13296 0.319098,-0.303038 0.511142,-0.41332 0,0 0.949266,-0.35639 0.949266,-0.35639 0,0 1.314369,-0.74918 1.314369,-0.74918 0,0 0.730204,-0.351138 0.730204,-0.351138 0,0 0.584164,-0.365101 0.584164,-0.365101 0,0 0.511144,-0.144656 0.511144,-0.144656 0,0 0.438121,-0.261383 0.438121,-0.261383 0,0 1.095308,-0.45784 1.095308,-0.45784 0,0 0.803225,-0.456406 0.803225,-0.456406 0,0 1.022286,-0.154802 1.022286,-0.154802 0.255571,-0.07758 0.311796,-0.172346 0.511143,-0.265083 0,0 0.584164,-0.159098 0.584164,-0.159098 0,0 0.876246,-0.393627 0.876246,-0.393627 0.267984,-0.08713 0.560797,0.01193 0.949265,-0.09906 0,0 1.53343,-0.49651 1.53343,-0.49651 0,0 1.022285,-0.19203898 1.022285,-0.19203898 0.289891,-0.07997 0.514066,-0.252671 0.876246,-0.322732 0,0 0.876246,-0.03939 0.876246,-0.03939 0,0 1.38739,-0.145968 1.38739,-0.145968 0,0 2.117591,-0.20672 2.117591,-0.20672 0,0 5.03841,0 5.03841,0 0,0 0.803226,-0.09667 0.803226,-0.09667 0.471713,0.03222 0.489238,0.378229 1.314369,0.388375 0.768906,0.01193 0.752111,-0.037 1.533429,0.119353 0,0 0.511143,0.09071 0.511143,0.09071 0,0 0.730204,0.38921098 0.730204,0.38921098 0.250461,0.09668 0.457838,0.07042 0.876246,0.267232 0,0 0.584164,0.33228 0.584164,0.33228 0.364371,0.127111 0.795188,-0.08116 1.387381,0.21758 0.319098,0.161366 0.696623,0.617057 1.241355,0.850035 0.330052,0.140836 0.615559,0 0.949267,0.137971 0,0 1.314369,0.882022 1.314369,0.882022 0,0 0.803228,0.1585 0.803228,0.1585 0.375316,0.112192 0.392123,0.224146 0.657178,0.353405 0.205923,0.100259 0.361458,0.074 0.584165,0.207436 0.208108,0.124844 0.580509,0.519903 0.803227,0.709675 0.357074,0.305306 0.460752,0.33598 0.803217,0.575402 0,0 0.584165,0.462971 0.584165,0.462971 0,0 1.460407,1.019397 1.460407,1.019397 0,0 0.584163,0.496508 0.584163,0.496508 0,0 0.845577,0.593664 0.845577,0.593664 0,0 0.396507,0.355553 0.396507,0.355553 0,0 0.948538,0.705378 0.948538,0.705378 0,0 0.51113,0.476816 0.51113,0.476816 0.280416,0.2344102 0.319108,0.2052882 0.657189,0.5316002 0,0 1.752494,1.824076 1.752494,1.824076 0,0 0.845576,0.745599 0.845576,0.745599 0.647695,0.642478 1.101159,1.241272 1.649535,1.956198 0,0 0.605344,0.730204 0.605344,0.730204 0,0 0.900349,1.460408 0.900349,1.460408 0,0 0.687842,1.095304 0.687842,1.095304 0,0 0.27674,0.584115 0.27674,0.584115 0,0 0.571753,0.730204 0.571753,0.730204 0.289889,0.414038 0.224176,0.617057 0.411834,1.02226 0,0 0.259225,0.438147 0.259225,0.438147 0,0 0.143851,0.365102 0.143851,0.365102 0,0 0.802489,1.095304 0.802489,1.095304 0,0 0.148965,0.438146 0.148965,0.438146 0.08757,0.170078 0.787889,0.985022 0.954379,1.051502 0.498728,0.200037 1.031778,-0.05968 1.453836,-0.294325 0.644779,-0.357104 1.685311,-1.044222 2.409685,-1.049354 0,0 2.409662,0 2.409662,0 0.250465,0 0.945618,0.108612 1.168333,0.187743 0,0 0.438122,0.22128 0.438122,0.22128 0.197152,0.08952 0.304502,0.09548 0.511138,0.223429 0,0 0.657195,0.495078 0.657195,0.495078 0.357799,0.256967 0.54253,0.347558 0.844113,0.698813 0.331503,0.386228 0.379704,0.616221 0.640394,1.021544 0.262859,0.407354 0.623593,0.761594 0.747003,1.241275 0,0 0.24972,1.971596 0.24972,1.971596 -0.0162,0.466552 -0.25119,0.934656 -0.34758,1.387363 0,0 -0.17816,0.949216 -0.17816,0.949216 0,0 -1.152994,1.971597 -1.152994,1.971597 0,0 -0.181098,0.438145 -0.181098,0.438145 -0.162834,0.358538 -0.508943,0.540313 -0.291349,0.949217 0.33955,0.636749 1.15883,1.177061 1.787541,1.500628 0,0 0.50165,0.221878 0.50165,0.221878 0.17598,0.129259 0.6214,0.82294 0.94415,1.050786 0,0 0.30084,0.152652 0.30084,0.152652 0,0 0.37752,0.320584 0.37752,0.320584 0,0 0.79666,0.504506 0.79666,0.504506 0,0 0.95583,0.949335 0.95583,0.949335 0,0 0.69662,0.486246 0.69662,0.486246 0,0 1.08507,1.123829 1.08507,1.123829 0.2125,0.262817 0.12852,0.422035 0.35198,0.69583 0.11828,0.144537 0.75356,0.631618 1.09311,1.056635 0,0 0.75721,1.064631 0.75721,1.064631 0,0 0.50311,0.876172 0.50311,0.876172 0,0 0.9062,1.16835 0.9062,1.16835 0,0 0.33516,0.657158 0.33516,0.657158 0,0 0.46588,0.730202 0.46588,0.730202 0,0 0.65425,1.387482 0.65425,1.387482 0,0 0.381886,0.604525 0.381886,0.604525 0,0 0.12853,0.563705 0.12853,0.563705 0,0 0.44395,1.022382 0.44395,1.022382 0,0 0.44179,1.460405 0.44179,1.460405 0,0 0.3293,0.730204 0.3293,0.730204 0.14898,0.408069 0.17964,0.81554 0.22419,0.949216 0.0942,0.282628 0.22199,0.275944 0.34685,0.876171 0,0 0.14092,1.314439 0.14092,1.314439 0,0 0.25558,1.02226 0.25558,1.02226 0,0 0.11244,1.168348 0.11244,1.168348 0.0876,0.423466 0.19568,0.195621 0.19714,0.949218 0,0 0,2.847768 0,2.847768 0,0 -0.073,1.606494 -0.073,1.606494 -8.4e-4,0.70323 -0.0884,0.518471 -0.14166,0.949216 0,0 0,0.730204 0,0.730204 -0.0146,0.833921 -0.24755,0.932507 -0.34174,1.387362 0,0 -0.11684,0.876291 -0.11684,0.876291 0,0 -0.36803,1.533452 -0.36803,1.533452 0,0 -0.1811,0.730203 -0.1811,0.730203 0,0 -0.0592,0.51107 -0.0592,0.51107 0,0 -0.29427,0.657278 -0.29427,0.657278 0,0 -0.43885,1.460407 -0.43885,1.460407 0,0 -0.24023,0.584115 -0.24023,0.584115 0,0 -0.23879,0.438146 -0.23879,0.438146 0,0 -0.13289,0.511071 -0.13289,0.511071 -0.20226,0.463687 -0.557146,0.820074 -0.811986,1.241392 0,0 -0.92077,1.752463 -0.92077,1.752463 0,0 -0.7127,0.949217 -0.7127,0.949217 0,0 -0.27601,0.438146 -0.27601,0.438146 0,0 -0.66083,0.876293 -0.66083,0.876293 0,0 -0.23804,0.438143 -0.23804,0.438143 -0.3286,0.476819 -0.78717,0.855048 -1.19754,1.25369 0,0 -0.59147,0.705376 -0.59147,0.705376 0,0 -1.52977,1.381515 -1.52977,1.381515 0,0 -0.51114,0.39291 -0.51114,0.39291 -0.46808,0.414753 -0.84998,0.987172 -1.53343,0.720653 -0.0119,0.933225 -0.55715,0.678405 -1.05151,1.460407 -0.22708,0.359968 -0.0366,0.85433 -0.16064,1.161068 -0.24024,0.591394 -1.06026,0.512626 -1.562633,0.518471 -0.827319,0.01194 -1.8372,0.638182 -2.628747,0.947788 0,0 -2.847788,1.129558 -2.847788,1.129558 0,0 -1.095305,0.492924 -1.095305,0.492924 -0.25557,0.08477 -0.546929,0.03111 -1.387393,0.362962 0,0 -1.533431,0.913403 -1.533431,0.913403 -0.368017,0.07761 -0.952181,-0.817808 -1.314357,-0.997435 -0.366582,-0.181056 -0.74774,0.03582 -1.096055,0.127827 0,0 -0.80249,0.205173 -0.80249,0.205173 -0.257768,0.103835 -0.531591,0.415459 -0.730203,0.614788 0,0 -1.237699,1.314433 -1.237699,1.314433 -0.408919,0.438752 -0.368757,0.71779 -1.025936,0.730211 -0.276022,0 -0.621412,-0.03464 -0.876241,0.07047 0,0 -0.365102,0.181065 -0.365102,0.181065 -0.171603,0.06333 -0.254113,0.04053 -0.438126,0.157788 -0.346848,0.220444 -0.738231,0.72937 -1.533432,1.051497 0,0 -0.0731,-0.219133 -0.0731,-0.219133 -0.396497,0.122698 -1.120858,0.457127 -1.352333,0.803253 -0.205923,0.309598 -0.03655,0.543295 -0.162835,0.949218 -0.13144,0.424297 -0.568827,0.980012 -0.866027,1.310009 -0.33808,0.375373 -0.422788,0.221285 -0.738232,0.525761 0,0 -0.53159,0.570977 -0.53159,0.570977 0,0 -1.67947,1.44728 -1.67947,1.44728 0,0 -0.51114,0.338135 -0.51114,0.338135 0,0 -0.511152,0.45926 -0.511152,0.45926 -0.250457,0.20004 -0.343193,0.15767 -0.51114,0.45999 -0.447613,0.12926 -0.625056,0.40676 -0.979203,0.66814 0,0 -2.087648,1.21 -2.087648,1.21 -0.625055,0.25482 -1.001123,0.22116 -1.241354,0.30305 0,0 -0.51114,0.24014 -0.51114,0.24014 0,0 -1.022293,0.31843 -1.022293,0.31843 -0.316912,0.0692 -0.53232,-0.0835 -0.876242,0 -0.417676,0.0931 -0.680555,0.39064 -1.022291,0.51549 -0.653535,0.23811 -1.170512,0.12412 -1.472818,0.17676 -0.35853,0.0633 -0.475363,0.27236 -0.790812,0.34314 -0.359258,0.0812 -1.351607,0.0955 -1.752489,0.0955 0,0 -2.628737,0 -2.628737,0 0,0 -2.336655,-0.0727 -2.336655,-0.0727 -0.893038,0 -0.603149,-0.22199 -1.168327,-0.47467 0,0 -0.657183,-0.1789 -0.657183,-0.1789 0,0 -0.803226,-0.38039 -0.803226,-0.38039 -0.450535,-0.1906 -0.533049,-0.0895 -0.803225,-0.2023 0,0 -0.438122,-0.23512 -0.438122,-0.23512 0,0 -0.511143,-0.12711 -0.511143,-0.12711 0,0 -0.511142,-0.26498 -0.511142,-0.26498 0,0 -0.438124,-0.17604 -0.438124,-0.17604 0,0 -0.584165,-0.32345 -0.584165,-0.32345 0,0 -1.022286,-0.38551 -1.022286,-0.38551 0,0 -1.752489,-1.06976 -1.752489,-1.06976 0,0 -0.803226,-0.32429 -0.803226,-0.32429 -0.589274,-0.37238 -0.389199,-0.62647 -1.460409,-0.834506 -0.285511,-0.037 -0.767445,-0.164347 -1.022286,0 -0.347579,0.189053 -0.728014,0.833796 -1.10188,0.876886 -0.323479,0.037 -0.461487,-0.15338 -0.723631,-0.2387 -0.09419,-0.031 -0.776208,-0.10026 -0.876245,-0.0907 0,0 -0.438125,0.10621 -0.438125,0.10621 -0.678359,0.15552 -1.342116,0.37895 -2.044572,0.37978 0,0 -2.482695,0 -2.482695,0 -1.07778,0 -1.142769,-0.28991 -2.044574,-0.53232 -0.395769,-0.10621 -0.331511,0.0179 -0.949266,-0.23811 -0.498729,-0.206598 -1.341385,-0.733067 -1.752491,-1.074054 0,0 -0.437391,-0.39733 -0.437391,-0.39733 0,0 -0.396501,-0.278929 -0.396501,-0.278929 0,0 -0.835354,-0.838218 -0.835354,-0.838218 0,0 -0.396502,-0.58423 -0.396502,-0.58423 -0.420596,-0.542461 -0.92955,-1.192341 -1.198267,-1.825393 -0.128515,-0.30303 -0.07886,-0.43301 -0.166487,-0.730195 0,0 -0.548382,-1.679547 -0.548382,-1.679547 0,0 -0.06937,-0.584112 -0.06937,-0.584112 -0.08325,-0.491494 -0.305956,-0.761594 -0.328592,-1.16835 0,0 0.121214,-1.387364 0.121214,-1.387364 0.02848,-0.243116 7.3e-4,-0.494354 0.07594,-0.730204 0.192773,-0.601652 0.60826,-1.178609 0.662295,-1.825503 0.06499,-0.780573 -0.734587,-1.019399 -1.152993,-1.397623 -0.31983,-0.289198 -1.131817,-1.41446 -1.402723,-1.815249 0,0 -0.397231,-0.657158 -0.397231,-0.657158 0,0 -0.937583,-1.16835 -0.937583,-1.16835 -0.156263,-0.198602 -0.451266,-0.460107 -0.549844,-0.657159 -0.07667,-0.153366 -0.07375,-0.771857 -0.366562,-1.314436 -0.210298,-0.389213 -0.836815,-0.787135 -0.978473,-1.168351 0,0 -0.327133,-1.971475 -0.327133,-1.971475 0,0 -0.400881,-1.155937 -0.400881,-1.155937 -0.201537,-0.487796 -0.401615,-0.676136 -0.411107,-1.253806 0,0 -0.07303,-2.263534 -0.07303,-2.263534 0,0 -0.09492,-0.949336 -0.09492,-0.949336 0.01971,-0.912693 0.303766,-0.705377 0.313989,-1.533332 0,0 0,-2.336697 0,-2.336697 0.0015,-0.752881 0.110989,-0.529332 0.249731,-0.949217 0,0 0.06571,-0.438146 0.06571,-0.438146 0.06133,-0.362237 0.227092,-0.803246 0.05112,-1.161784 -0.166472,-0.338008 -0.589989,-0.565853 -0.877691,-0.781286 -0.272366,-0.203737 -0.519906,-0.522052 -0.8032248,-0.654295 0,0 -1.825511,-0.389927 -1.825511,-0.389927 -0.260667,-0.04069 -0.553479,-0.05501 -0.803208,-0.137369 -0.7521081,-0.250403 -0.6688651,-0.305187 -1.2413441,-0.59068 0,0 -0.803224,-0.364384 -0.803224,-0.364384 0,0 -1.5962279,-1.33628 -1.5962279,-1.33628 0,0 -0.458568,-0.644029 -0.458568,-0.644029 0,0 -0.578322,-0.549145 -0.578322,-0.549145 0,0 -0.203728,-0.400907 -0.203728,-0.400907 0,0 -0.378976,-0.531601 -0.378976,-0.531601 0,0 -0.277476,-0.563705 -0.277476,-0.563705 -0.197866,-0.361403 -0.447596,-0.703111 -0.586334,-1.095305 -0.128516,-0.361403 -0.045274,-0.550578 -0.115367,-0.876175 0,0 -0.34903604,-1.241392 -0.34903604,-1.241392 -0.187664,-0.990161 -0.200077,-1.990579 -0.202269,-2.993861 -0.0015,-0.854332 -0.173057,-0.620637 -0.324209,-1.095306 -0.0606,-0.189772 -0.0387,-0.588531 -0.04089,-0.803128 0,0 -0.07303,-0.949337 -0.07303,-0.949337 0,0 0,-1.825507 0,-1.825507 0.0015,-0.759325 0.07521,-0.542459 0.148961,-1.022261 0,0 0,-0.511189 0,-0.511189 0,0 0.124136,-0.438028 0.124136,-0.438028 0,0 0.04089,-0.657277 0.04089,-0.657277 0,0 0.175247,-0.51107 0.175247,-0.51107 0,0 0.05257,-0.803249 0.05257,-0.803249 0.105876,-0.427881 0.49069704,-0.698096 0.75576204,-1.022259 0.139468,-0.169363 0.467331,-0.878442 0.527938,-1.095305 0.433741,-0.19574 1.255221,-0.894555 1.60645,-1.241394 z"
     inkscape:connector-curvature="0"
     style="fill:none;stroke:#000000;stroke-width:0.07302032" />
</svg>
