  0
SECTION
  2
HEADER
  9
$ACADVER
  1
AC1014
  9
$HANDSEED
  5
FFFF
  9
$MEASUREMENT
 70
     1
  0
ENDSEC
  0
SECTION
  2
TABLES
  0
TABLE
  2
VPORT
  5
8
330
0
100
AcDbSymbolTable
 70
     4
  0
VPORT
  5
2E
330
8
100
AcDbSymbolTableRecord
100
AcDbViewportTableRecord
  2
*ACTIVE
 70
     0
 10
0.0
 20
0.0
 11
1.0
 21
1.0
 12
210.0
 22
148.5
 13
0.0
 23
0.0
 14
10.0
 24
10.0
 15
10.0
 25
10.0
 16
0.0
 26
0.0
 36
1.0
 17
0.0
 27
0.0
 37
0.0
 40
341.0
 41
1.24
 42
50.0
 43
0.0
 44
0.0
 50
0.0
 51
0.0
 71
     0
 72
   100
 73
     1
 74
     3
 75
     0
 76
     0
 77
     0
 78
     0
  0
ENDTAB
  0
TABLE
  2
LTYPE
  5
5
330
0
100
AcDbSymbolTable
 70
     1
  0
LTYPE
  5
14
330
5
100
AcDbSymbolTableRecord
100
AcDbLinetypeTableRecord
  2
BYBLOCK
 70
     0
  3

 72
    65
 73
     0
 40
0.0
  0
LTYPE
  5
15
330
5
100
AcDbSymbolTableRecord
100
AcDbLinetypeTableRecord
  2
BYLAYER
 70
     0
  3

 72
    65
 73
     0
 40
0.0
  0
LTYPE
  5
16
330
5
100
AcDbSymbolTableRecord
100
AcDbLinetypeTableRecord
  2
CONTINUOUS
 70
     0
  3
Solid line
 72
    65
 73
     0
 40
0.0
  0
ENDTAB
  0
TABLE
  2
LAYER
  5
2
100
AcDbSymbolTable
 70
2
  0
LAYER
  5
50
100
AcDbSymbolTableRecord
100
AcDbLayerTableRecord
  2
0
 70
0
  6
CONTINUOUS
  0
LAYER
  5
51
100
AcDbSymbolTableRecord
100
AcDbLayerTableRecord
  2
Layer_1
 70
0
  6
CONTINUOUS
  0
ENDTAB
  0
TABLE
  2
STYLE
  5
3
330
0
100
AcDbSymbolTable
 70
     1
  0
STYLE
  5
11
330
3
100
AcDbSymbolTableRecord
100
AcDbTextStyleTableRecord
  2
STANDARD
 70
     0
 40
0.0
 41
1.0
 50
0.0
 71
     0
 42
2.5
  3
txt
  4

  0
ENDTAB
  0
TABLE
  2
VIEW
  5
6
330
0
100
AcDbSymbolTable
 70
     0
  0
ENDTAB
  0
TABLE
  2
UCS
  5
7
330
0
100
AcDbSymbolTable
 70
     0
  0
ENDTAB
  0
TABLE
  2
APPID
  5
9
330
0
100
AcDbSymbolTable
 70
     2
  0
APPID
  5
12
330
9
100
AcDbSymbolTableRecord
100
AcDbRegAppTableRecord
  2
ACAD
 70
     0
  0
ENDTAB
  0
TABLE
  2
DIMSTYLE
  5
A
330
0
100
AcDbSymbolTable
 70
     1
  0
DIMSTYLE
105
27
330
A
100
AcDbSymbolTableRecord
100
AcDbDimStyleTableRecord
  2
ISO-25
 70
     0
  3

  4

  5

  6

  7

 40
1.0
 41
2.5
 42
0.625
 43
3.75
 44
1.25
 45
0.0
 46
0.0
 47
0.0
 48
0.0
140
2.5
141
2.5
142
0.0
143
0.03937007874016
144
1.0
145
0.0
146
1.0
147
0.625
 71
     0
 72
     0
 73
     0
 74
     0
 75
     0
 76
     0
 77
     1
 78
     8
170
     0
171
     3
172
     1
173
     0
174
     0
175
     0
176
     0
177
     0
178
     0
270
     2
271
     2
272
     2
273
     2
274
     3
340
11
275
     0
280
     0
281
     0
282
     0
283
     0
284
     8
285
     0
286
     0
287
     3
288
     0
  0
ENDTAB
  0
TABLE
  2
BLOCK_RECORD
  5
1
330
0
100
AcDbSymbolTable
 70
     1
  0
BLOCK_RECORD
  5
1F
330
1
100
AcDbSymbolTableRecord
100
AcDbBlockTableRecord
  2
*MODEL_SPACE
  0
BLOCK_RECORD
  5
1B
330
1
100
AcDbSymbolTableRecord
100
AcDbBlockTableRecord
  2
*PAPER_SPACE
  0
ENDTAB
  0
ENDSEC
  0
SECTION
  2
BLOCKS
  0
BLOCK
  5
20
330
1F
100
AcDbEntity
  8
0
100
AcDbBlockBegin
  2
*MODEL_SPACE
 70
     0
 10
0.0
 20
0.0
 30
0.0
  3
*MODEL_SPACE
  1

  0
ENDBLK
  5
21
330
1F
100
AcDbEntity
  8
0
100
AcDbBlockEnd
  0
BLOCK
  5
1C
330
1B
100
AcDbEntity
 67
     1
  8
0
100
AcDbBlockBegin
  2
*PAPER_SPACE
  1

  0
ENDBLK
  5
1D
330
1B
100
AcDbEntity
 67
     1
  8
0
100
AcDbBlockEnd
  0
ENDSEC
  0
SECTION
  2
ENTITIES
  0
LINE
  5
100
100
AcDbEntity
  8
Layer_1
 62
1
100
AcDbLine
 10
27.253205
 20
34.876251
 30
0.0
 11
27.230436
 21
34.425351
 31
0.0
  0
LINE
  5
101
100
AcDbEntity
  8
Layer_1
 62
1
100
AcDbLine
 10
27.230436
 20
34.425351
 30
0.0
 11
27.163608
 21
33.987471
 31
0.0
  0
LINE
  5
102
100
AcDbEntity
  8
Layer_1
 62
1
100
AcDbLine
 10
27.163608
 20
33.987471
 30
0.0
 11
27.054936
 21
33.564831
 31
0.0
  0
LINE
  5
103
100
AcDbEntity
  8
Layer_1
 62
1
100
AcDbLine
 10
27.054936
 20
33.564831
 30
0.0
 11
26.906639
 21
33.159651
 31
0.0
  0
LINE
  5
104
100
AcDbEntity
  8
Layer_1
 62
1
100
AcDbLine
 10
26.906639
 20
33.159651
 30
0.0
 11
26.720932
 21
32.774141
 31
0.0
  0
LINE
  5
105
100
AcDbEntity
  8
Layer_1
 62
1
100
AcDbLine
 10
26.720932
 20
32.774141
 30
0.0
 11
26.500033
 21
32.410531
 31
0.0
  0
LINE
  5
106
100
AcDbEntity
  8
Layer_1
 62
1
100
AcDbLine
 10
26.500033
 20
32.410531
 30
0.0
 11
26.246157
 21
32.071031
 31
0.0
  0
LINE
  5
107
100
AcDbEntity
  8
Layer_1
 62
1
100
AcDbLine
 10
26.246157
 20
32.071031
 30
0.0
 11
25.961523
 21
31.757851
 31
0.0
  0
LINE
  5
108
100
AcDbEntity
  8
Layer_1
 62
1
100
AcDbLine
 10
25.961523
 20
31.757851
 30
0.0
 11
25.648348
 21
31.473221
 31
0.0
  0
LINE
  5
109
100
AcDbEntity
  8
Layer_1
 62
1
100
AcDbLine
 10
25.648348
 20
31.473221
 30
0.0
 11
25.308843
 21
31.219341
 31
0.0
  0
LINE
  5
10a
100
AcDbEntity
  8
Layer_1
 62
1
100
AcDbLine
 10
25.308843
 20
31.219341
 30
0.0
 11
24.945233
 21
30.998441
 31
0.0
  0
LINE
  5
10b
100
AcDbEntity
  8
Layer_1
 62
1
100
AcDbLine
 10
24.945233
 20
30.998441
 30
0.0
 11
24.559728
 21
30.812741
 31
0.0
  0
LINE
  5
10c
100
AcDbEntity
  8
Layer_1
 62
1
100
AcDbLine
 10
24.559728
 20
30.812741
 30
0.0
 11
24.154547
 21
30.664441
 31
0.0
  0
LINE
  5
10d
100
AcDbEntity
  8
Layer_1
 62
1
100
AcDbLine
 10
24.154547
 20
30.664441
 30
0.0
 11
23.731911
 21
30.555771
 31
0.0
  0
LINE
  5
10e
100
AcDbEntity
  8
Layer_1
 62
1
100
AcDbLine
 10
23.731911
 20
30.555771
 30
0.0
 11
23.294026
 21
30.488971
 31
0.0
  0
LINE
  5
10f
100
AcDbEntity
  8
Layer_1
 62
1
100
AcDbLine
 10
23.294026
 20
30.488971
 30
0.0
 11
22.843126
 21
30.466171
 31
0.0
  0
LINE
  5
110
100
AcDbEntity
  8
Layer_1
 62
1
100
AcDbLine
 10
22.843126
 20
30.466171
 30
0.0
 11
22.392221
 21
30.488971
 31
0.0
  0
LINE
  5
111
100
AcDbEntity
  8
Layer_1
 62
1
100
AcDbLine
 10
22.392221
 20
30.488971
 30
0.0
 11
21.954341
 21
30.555771
 31
0.0
  0
LINE
  5
112
100
AcDbEntity
  8
Layer_1
 62
1
100
AcDbLine
 10
21.954341
 20
30.555771
 30
0.0
 11
21.531710
 21
30.664461
 31
0.0
  0
LINE
  5
113
100
AcDbEntity
  8
Layer_1
 62
1
100
AcDbLine
 10
21.531710
 20
30.664461
 30
0.0
 11
21.126524
 21
30.812741
 31
0.0
  0
LINE
  5
114
100
AcDbEntity
  8
Layer_1
 62
1
100
AcDbLine
 10
21.126524
 20
30.812741
 30
0.0
 11
20.741021
 21
30.998451
 31
0.0
  0
LINE
  5
115
100
AcDbEntity
  8
Layer_1
 62
1
100
AcDbLine
 10
20.741021
 20
30.998451
 30
0.0
 11
20.377408
 21
31.219341
 31
0.0
  0
LINE
  5
116
100
AcDbEntity
  8
Layer_1
 62
1
100
AcDbLine
 10
20.377408
 20
31.219341
 30
0.0
 11
20.037904
 21
31.473221
 31
0.0
  0
LINE
  5
117
100
AcDbEntity
  8
Layer_1
 62
1
100
AcDbLine
 10
20.037904
 20
31.473221
 30
0.0
 11
19.724729
 21
31.757851
 31
0.0
  0
LINE
  5
118
100
AcDbEntity
  8
Layer_1
 62
1
100
AcDbLine
 10
19.724729
 20
31.757851
 30
0.0
 11
19.440092
 21
32.071031
 31
0.0
  0
LINE
  5
119
100
AcDbEntity
  8
Layer_1
 62
1
100
AcDbLine
 10
19.440092
 20
32.071031
 30
0.0
 11
19.186219
 21
32.410531
 31
0.0
  0
LINE
  5
11a
100
AcDbEntity
  8
Layer_1
 62
1
100
AcDbLine
 10
19.186219
 20
32.410531
 30
0.0
 11
18.965319
 21
32.774141
 31
0.0
  0
LINE
  5
11b
100
AcDbEntity
  8
Layer_1
 62
1
100
AcDbLine
 10
18.965319
 20
32.774141
 30
0.0
 11
18.779613
 21
33.159651
 31
0.0
  0
LINE
  5
11c
100
AcDbEntity
  8
Layer_1
 62
1
100
AcDbLine
 10
18.779613
 20
33.159651
 30
0.0
 11
18.631315
 21
33.564831
 31
0.0
  0
LINE
  5
11d
100
AcDbEntity
  8
Layer_1
 62
1
100
AcDbLine
 10
18.631315
 20
33.564831
 30
0.0
 11
18.522644
 21
33.987471
 31
0.0
  0
LINE
  5
11e
100
AcDbEntity
  8
Layer_1
 62
1
100
AcDbLine
 10
18.522644
 20
33.987471
 30
0.0
 11
18.455817
 21
34.425351
 31
0.0
  0
LINE
  5
11f
100
AcDbEntity
  8
Layer_1
 62
1
100
AcDbLine
 10
18.455817
 20
34.425351
 30
0.0
 11
18.433048
 21
34.876251
 31
0.0
  0
LINE
  5
120
100
AcDbEntity
  8
Layer_1
 62
1
100
AcDbLine
 10
18.433048
 20
34.876251
 30
0.0
 11
18.455817
 21
35.327151
 31
0.0
  0
LINE
  5
121
100
AcDbEntity
  8
Layer_1
 62
1
100
AcDbLine
 10
18.455817
 20
35.327151
 30
0.0
 11
18.522645
 21
35.765031
 31
0.0
  0
LINE
  5
122
100
AcDbEntity
  8
Layer_1
 62
1
100
AcDbLine
 10
18.522645
 20
35.765031
 30
0.0
 11
18.631317
 21
36.187671
 31
0.0
  0
LINE
  5
123
100
AcDbEntity
  8
Layer_1
 62
1
100
AcDbLine
 10
18.631317
 20
36.187671
 30
0.0
 11
18.779614
 21
36.592851
 31
0.0
  0
LINE
  5
124
100
AcDbEntity
  8
Layer_1
 62
1
100
AcDbLine
 10
18.779614
 20
36.592851
 30
0.0
 11
18.965321
 21
36.978361
 31
0.0
  0
LINE
  5
125
100
AcDbEntity
  8
Layer_1
 62
1
100
AcDbLine
 10
18.965321
 20
36.978361
 30
0.0
 11
19.186220
 21
37.341971
 31
0.0
  0
LINE
  5
126
100
AcDbEntity
  8
Layer_1
 62
1
100
AcDbLine
 10
19.186220
 20
37.341971
 30
0.0
 11
19.440096
 21
37.681471
 31
0.0
  0
LINE
  5
127
100
AcDbEntity
  8
Layer_1
 62
1
100
AcDbLine
 10
19.440096
 20
37.681471
 30
0.0
 11
19.724730
 21
37.994651
 31
0.0
  0
LINE
  5
128
100
AcDbEntity
  8
Layer_1
 62
1
100
AcDbLine
 10
19.724730
 20
37.994651
 30
0.0
 11
20.037905
 21
38.279281
 31
0.0
  0
LINE
  5
129
100
AcDbEntity
  8
Layer_1
 62
1
100
AcDbLine
 10
20.037905
 20
38.279281
 30
0.0
 11
20.377410
 21
38.533161
 31
0.0
  0
LINE
  5
12a
100
AcDbEntity
  8
Layer_1
 62
1
100
AcDbLine
 10
20.377410
 20
38.533161
 30
0.0
 11
20.741019
 21
38.754061
 31
0.0
  0
LINE
  5
12b
100
AcDbEntity
  8
Layer_1
 62
1
100
AcDbLine
 10
20.741019
 20
38.754061
 30
0.0
 11
21.126525
 21
38.939761
 31
0.0
  0
LINE
  5
12c
100
AcDbEntity
  8
Layer_1
 62
1
100
AcDbLine
 10
21.126525
 20
38.939761
 30
0.0
 11
21.531705
 21
39.088061
 31
0.0
  0
LINE
  5
12d
100
AcDbEntity
  8
Layer_1
 62
1
100
AcDbLine
 10
21.531705
 20
39.088061
 30
0.0
 11
21.954342
 21
39.196731
 31
0.0
  0
LINE
  5
12e
100
AcDbEntity
  8
Layer_1
 62
1
100
AcDbLine
 10
21.954342
 20
39.196731
 30
0.0
 11
22.392219
 21
39.263531
 31
0.0
  0
LINE
  5
12f
100
AcDbEntity
  8
Layer_1
 62
1
100
AcDbLine
 10
22.392219
 20
39.263531
 30
0.0
 11
22.843126
 21
39.286331
 31
0.0
  0
LINE
  5
130
100
AcDbEntity
  8
Layer_1
 62
1
100
AcDbLine
 10
22.843126
 20
39.286331
 30
0.0
 11
23.294031
 21
39.263631
 31
0.0
  0
LINE
  5
131
100
AcDbEntity
  8
Layer_1
 62
1
100
AcDbLine
 10
23.294031
 20
39.263631
 30
0.0
 11
23.731911
 21
39.196831
 31
0.0
  0
LINE
  5
132
100
AcDbEntity
  8
Layer_1
 62
1
100
AcDbLine
 10
23.731911
 20
39.196831
 30
0.0
 11
24.154542
 21
39.088141
 31
0.0
  0
LINE
  5
133
100
AcDbEntity
  8
Layer_1
 62
1
100
AcDbLine
 10
24.154542
 20
39.088141
 30
0.0
 11
24.559728
 21
38.939861
 31
0.0
  0
LINE
  5
134
100
AcDbEntity
  8
Layer_1
 62
1
100
AcDbLine
 10
24.559728
 20
38.939861
 30
0.0
 11
24.945231
 21
38.754151
 31
0.0
  0
LINE
  5
135
100
AcDbEntity
  8
Layer_1
 62
1
100
AcDbLine
 10
24.945231
 20
38.754151
 30
0.0
 11
25.308843
 21
38.533261
 31
0.0
  0
LINE
  5
136
100
AcDbEntity
  8
Layer_1
 62
1
100
AcDbLine
 10
25.308843
 20
38.533261
 30
0.0
 11
25.648348
 21
38.279381
 31
0.0
  0
LINE
  5
137
100
AcDbEntity
  8
Layer_1
 62
1
100
AcDbLine
 10
25.648348
 20
38.279381
 30
0.0
 11
25.961523
 21
37.994751
 31
0.0
  0
LINE
  5
138
100
AcDbEntity
  8
Layer_1
 62
1
100
AcDbLine
 10
25.961523
 20
37.994751
 30
0.0
 11
26.246159
 21
37.681571
 31
0.0
  0
LINE
  5
139
100
AcDbEntity
  8
Layer_1
 62
1
100
AcDbLine
 10
26.246159
 20
37.681571
 30
0.0
 11
26.500033
 21
37.342071
 31
0.0
  0
LINE
  5
13a
100
AcDbEntity
  8
Layer_1
 62
1
100
AcDbLine
 10
26.500033
 20
37.342071
 30
0.0
 11
26.720932
 21
36.978461
 31
0.0
  0
LINE
  5
13b
100
AcDbEntity
  8
Layer_1
 62
1
100
AcDbLine
 10
26.720932
 20
36.978461
 30
0.0
 11
26.906639
 21
36.592951
 31
0.0
  0
LINE
  5
13c
100
AcDbEntity
  8
Layer_1
 62
1
100
AcDbLine
 10
26.906639
 20
36.592951
 30
0.0
 11
27.054936
 21
36.187771
 31
0.0
  0
LINE
  5
13d
100
AcDbEntity
  8
Layer_1
 62
1
100
AcDbLine
 10
27.054936
 20
36.187771
 30
0.0
 11
27.163608
 21
35.765131
 31
0.0
  0
LINE
  5
13e
100
AcDbEntity
  8
Layer_1
 62
1
100
AcDbLine
 10
27.163608
 20
35.765131
 30
0.0
 11
27.230436
 21
35.327251
 31
0.0
  0
LINE
  5
13f
100
AcDbEntity
  8
Layer_1
 62
1
100
AcDbLine
 10
27.230436
 20
35.327251
 30
0.0
 11
27.253205
 21
34.876251
 31
0.0
  0
LINE
  5
140
100
AcDbEntity
  8
Layer_1
 62
1
100
AcDbLine
 10
28.408681
 20
15.224550
 30
0.0
 11
28.380853
 21
14.673440
 31
0.0
  0
LINE
  5
141
100
AcDbEntity
  8
Layer_1
 62
1
100
AcDbLine
 10
28.380853
 20
14.673440
 30
0.0
 11
28.299174
 21
14.138260
 31
0.0
  0
LINE
  5
142
100
AcDbEntity
  8
Layer_1
 62
1
100
AcDbLine
 10
28.299174
 20
14.138260
 30
0.0
 11
28.166353
 21
13.621700
 31
0.0
  0
LINE
  5
143
100
AcDbEntity
  8
Layer_1
 62
1
100
AcDbLine
 10
28.166353
 20
13.621700
 30
0.0
 11
27.985102
 21
13.126480
 31
0.0
  0
LINE
  5
144
100
AcDbEntity
  8
Layer_1
 62
1
100
AcDbLine
 10
27.985102
 20
13.126480
 30
0.0
 11
27.758127
 21
12.655310
 31
0.0
  0
LINE
  5
145
100
AcDbEntity
  8
Layer_1
 62
1
100
AcDbLine
 10
27.758127
 20
12.655310
 30
0.0
 11
27.488138
 21
12.210890
 31
0.0
  0
LINE
  5
146
100
AcDbEntity
  8
Layer_1
 62
1
100
AcDbLine
 10
27.488138
 20
12.210890
 30
0.0
 11
27.177848
 21
11.795950
 31
0.0
  0
LINE
  5
147
100
AcDbEntity
  8
Layer_1
 62
1
100
AcDbLine
 10
27.177848
 20
11.795950
 30
0.0
 11
26.829960
 21
11.413170
 31
0.0
  0
LINE
  5
148
100
AcDbEntity
  8
Layer_1
 62
1
100
AcDbLine
 10
26.829960
 20
11.413170
 30
0.0
 11
26.447190
 21
11.065280
 31
0.0
  0
LINE
  5
149
100
AcDbEntity
  8
Layer_1
 62
1
100
AcDbLine
 10
26.447190
 20
11.065280
 30
0.0
 11
26.032240
 21
10.754990
 31
0.0
  0
LINE
  5
14a
100
AcDbEntity
  8
Layer_1
 62
1
100
AcDbLine
 10
26.032240
 20
10.754990
 30
0.0
 11
25.587828
 21
10.485000
 31
0.0
  0
LINE
  5
14b
100
AcDbEntity
  8
Layer_1
 62
1
100
AcDbLine
 10
25.587828
 20
10.485000
 30
0.0
 11
25.116654
 21
10.258030
 31
0.0
  0
LINE
  5
14c
100
AcDbEntity
  8
Layer_1
 62
1
100
AcDbLine
 10
25.116654
 20
10.258030
 30
0.0
 11
24.621435
 21
10.076780
 31
0.0
  0
LINE
  5
14d
100
AcDbEntity
  8
Layer_1
 62
1
100
AcDbLine
 10
24.621435
 20
10.076780
 30
0.0
 11
24.104878
 21
9.943960
 31
0.0
  0
LINE
  5
14e
100
AcDbEntity
  8
Layer_1
 62
1
100
AcDbLine
 10
24.104878
 20
9.943960
 30
0.0
 11
23.569691
 21
9.862260
 31
0.0
  0
LINE
  5
14f
100
AcDbEntity
  8
Layer_1
 62
1
100
AcDbLine
 10
23.569691
 20
9.862260
 30
0.0
 11
23.018585
 21
9.834460
 31
0.0
  0
LINE
  5
150
100
AcDbEntity
  8
Layer_1
 62
1
100
AcDbLine
 10
23.018585
 20
9.834460
 30
0.0
 11
22.467478
 21
9.862260
 31
0.0
  0
LINE
  5
151
100
AcDbEntity
  8
Layer_1
 62
1
100
AcDbLine
 10
22.467478
 20
9.862260
 30
0.0
 11
21.932292
 21
9.943960
 31
0.0
  0
LINE
  5
152
100
AcDbEntity
  8
Layer_1
 62
1
100
AcDbLine
 10
21.932292
 20
9.943960
 30
0.0
 11
21.415735
 21
10.076780
 31
0.0
  0
LINE
  5
153
100
AcDbEntity
  8
Layer_1
 62
1
100
AcDbLine
 10
21.415735
 20
10.076780
 30
0.0
 11
20.920515
 21
10.258030
 31
0.0
  0
LINE
  5
154
100
AcDbEntity
  8
Layer_1
 62
1
100
AcDbLine
 10
20.920515
 20
10.258030
 30
0.0
 11
20.449344
 21
10.485010
 31
0.0
  0
LINE
  5
155
100
AcDbEntity
  8
Layer_1
 62
1
100
AcDbLine
 10
20.449344
 20
10.485010
 30
0.0
 11
20.004929
 21
10.754990
 31
0.0
  0
LINE
  5
156
100
AcDbEntity
  8
Layer_1
 62
1
100
AcDbLine
 10
20.004929
 20
10.754990
 30
0.0
 11
19.589980
 21
11.065280
 31
0.0
  0
LINE
  5
157
100
AcDbEntity
  8
Layer_1
 62
1
100
AcDbLine
 10
19.589980
 20
11.065280
 30
0.0
 11
19.207210
 21
11.413170
 31
0.0
  0
LINE
  5
158
100
AcDbEntity
  8
Layer_1
 62
1
100
AcDbLine
 10
19.207210
 20
11.413170
 30
0.0
 11
18.859321
 21
11.795940
 31
0.0
  0
LINE
  5
159
100
AcDbEntity
  8
Layer_1
 62
1
100
AcDbLine
 10
18.859321
 20
11.795940
 30
0.0
 11
18.549031
 21
12.210890
 31
0.0
  0
LINE
  5
15a
100
AcDbEntity
  8
Layer_1
 62
1
100
AcDbLine
 10
18.549031
 20
12.210890
 30
0.0
 11
18.279041
 21
12.655310
 31
0.0
  0
LINE
  5
15b
100
AcDbEntity
  8
Layer_1
 62
1
100
AcDbLine
 10
18.279041
 20
12.655310
 30
0.0
 11
18.052068
 21
13.126480
 31
0.0
  0
LINE
  5
15c
100
AcDbEntity
  8
Layer_1
 62
1
100
AcDbLine
 10
18.052068
 20
13.126480
 30
0.0
 11
17.870816
 21
13.621700
 31
0.0
  0
LINE
  5
15d
100
AcDbEntity
  8
Layer_1
 62
1
100
AcDbLine
 10
17.870816
 20
13.621700
 30
0.0
 11
17.737995
 21
14.138260
 31
0.0
  0
LINE
  5
15e
100
AcDbEntity
  8
Layer_1
 62
1
100
AcDbLine
 10
17.737995
 20
14.138260
 30
0.0
 11
17.656317
 21
14.673440
 31
0.0
  0
LINE
  5
15f
100
AcDbEntity
  8
Layer_1
 62
1
100
AcDbLine
 10
17.656317
 20
14.673440
 30
0.0
 11
17.628488
 21
15.224550
 31
0.0
  0
LINE
  5
160
100
AcDbEntity
  8
Layer_1
 62
1
100
AcDbLine
 10
17.628488
 20
15.224550
 30
0.0
 11
17.656316
 21
15.775660
 31
0.0
  0
LINE
  5
161
100
AcDbEntity
  8
Layer_1
 62
1
100
AcDbLine
 10
17.656316
 20
15.775660
 30
0.0
 11
17.737995
 21
16.310840
 31
0.0
  0
LINE
  5
162
100
AcDbEntity
  8
Layer_1
 62
1
100
AcDbLine
 10
17.737995
 20
16.310840
 30
0.0
 11
17.870816
 21
16.827400
 31
0.0
  0
LINE
  5
163
100
AcDbEntity
  8
Layer_1
 62
1
100
AcDbLine
 10
17.870816
 20
16.827400
 30
0.0
 11
18.052068
 21
17.322620
 31
0.0
  0
LINE
  5
164
100
AcDbEntity
  8
Layer_1
 62
1
100
AcDbLine
 10
18.052068
 20
17.322620
 30
0.0
 11
18.279043
 21
17.793790
 31
0.0
  0
LINE
  5
165
100
AcDbEntity
  8
Layer_1
 62
1
100
AcDbLine
 10
18.279043
 20
17.793790
 30
0.0
 11
18.549031
 21
18.238210
 31
0.0
  0
LINE
  5
166
100
AcDbEntity
  8
Layer_1
 62
1
100
AcDbLine
 10
18.549031
 20
18.238210
 30
0.0
 11
18.859321
 21
18.653150
 31
0.0
  0
LINE
  5
167
100
AcDbEntity
  8
Layer_1
 62
1
100
AcDbLine
 10
18.859321
 20
18.653150
 30
0.0
 11
19.207210
 21
19.035930
 31
0.0
  0
LINE
  5
168
100
AcDbEntity
  8
Layer_1
 62
1
100
AcDbLine
 10
19.207210
 20
19.035930
 30
0.0
 11
19.589980
 21
19.383820
 31
0.0
  0
LINE
  5
169
100
AcDbEntity
  8
Layer_1
 62
1
100
AcDbLine
 10
19.589980
 20
19.383820
 30
0.0
 11
20.004929
 21
19.694110
 31
0.0
  0
LINE
  5
16a
100
AcDbEntity
  8
Layer_1
 62
1
100
AcDbLine
 10
20.004929
 20
19.694110
 30
0.0
 11
20.449342
 21
19.964100
 31
0.0
  0
LINE
  5
16b
100
AcDbEntity
  8
Layer_1
 62
1
100
AcDbLine
 10
20.449342
 20
19.964100
 30
0.0
 11
20.920515
 21
20.191070
 31
0.0
  0
LINE
  5
16c
100
AcDbEntity
  8
Layer_1
 62
1
100
AcDbLine
 10
20.920515
 20
20.191070
 30
0.0
 11
21.415734
 21
20.372320
 31
0.0
  0
LINE
  5
16d
100
AcDbEntity
  8
Layer_1
 62
1
100
AcDbLine
 10
21.415734
 20
20.372320
 30
0.0
 11
21.932292
 21
20.505140
 31
0.0
  0
LINE
  5
16e
100
AcDbEntity
  8
Layer_1
 62
1
100
AcDbLine
 10
21.932292
 20
20.505140
 30
0.0
 11
22.467478
 21
20.586840
 31
0.0
  0
LINE
  5
16f
100
AcDbEntity
  8
Layer_1
 62
1
100
AcDbLine
 10
22.467478
 20
20.586840
 30
0.0
 11
23.018585
 21
20.614640
 31
0.0
  0
LINE
  5
170
100
AcDbEntity
  8
Layer_1
 62
1
100
AcDbLine
 10
23.018585
 20
20.614640
 30
0.0
 11
23.569691
 21
20.586840
 31
0.0
  0
LINE
  5
171
100
AcDbEntity
  8
Layer_1
 62
1
100
AcDbLine
 10
23.569691
 20
20.586840
 30
0.0
 11
24.104878
 21
20.505140
 31
0.0
  0
LINE
  5
172
100
AcDbEntity
  8
Layer_1
 62
1
100
AcDbLine
 10
24.104878
 20
20.505140
 30
0.0
 11
24.621434
 21
20.372320
 31
0.0
  0
LINE
  5
173
100
AcDbEntity
  8
Layer_1
 62
1
100
AcDbLine
 10
24.621434
 20
20.372320
 30
0.0
 11
25.116654
 21
20.191070
 31
0.0
  0
LINE
  5
174
100
AcDbEntity
  8
Layer_1
 62
1
100
AcDbLine
 10
25.116654
 20
20.191070
 30
0.0
 11
25.587826
 21
19.964090
 31
0.0
  0
LINE
  5
175
100
AcDbEntity
  8
Layer_1
 62
1
100
AcDbLine
 10
25.587826
 20
19.964090
 30
0.0
 11
26.032240
 21
19.694110
 31
0.0
  0
LINE
  5
176
100
AcDbEntity
  8
Layer_1
 62
1
100
AcDbLine
 10
26.032240
 20
19.694110
 30
0.0
 11
26.447190
 21
19.383820
 31
0.0
  0
LINE
  5
177
100
AcDbEntity
  8
Layer_1
 62
1
100
AcDbLine
 10
26.447190
 20
19.383820
 30
0.0
 11
26.829960
 21
19.035930
 31
0.0
  0
LINE
  5
178
100
AcDbEntity
  8
Layer_1
 62
1
100
AcDbLine
 10
26.829960
 20
19.035930
 30
0.0
 11
27.177848
 21
18.653160
 31
0.0
  0
LINE
  5
179
100
AcDbEntity
  8
Layer_1
 62
1
100
AcDbLine
 10
27.177848
 20
18.653160
 30
0.0
 11
27.488138
 21
18.238210
 31
0.0
  0
LINE
  5
17a
100
AcDbEntity
  8
Layer_1
 62
1
100
AcDbLine
 10
27.488138
 20
18.238210
 30
0.0
 11
27.758129
 21
17.793790
 31
0.0
  0
LINE
  5
17b
100
AcDbEntity
  8
Layer_1
 62
1
100
AcDbLine
 10
27.758129
 20
17.793790
 30
0.0
 11
27.985102
 21
17.322620
 31
0.0
  0
LINE
  5
17c
100
AcDbEntity
  8
Layer_1
 62
1
100
AcDbLine
 10
27.985102
 20
17.322620
 30
0.0
 11
28.166354
 21
16.827400
 31
0.0
  0
LINE
  5
17d
100
AcDbEntity
  8
Layer_1
 62
1
100
AcDbLine
 10
28.166354
 20
16.827400
 30
0.0
 11
28.299174
 21
16.310840
 31
0.0
  0
LINE
  5
17e
100
AcDbEntity
  8
Layer_1
 62
1
100
AcDbLine
 10
28.299174
 20
16.310840
 30
0.0
 11
28.380852
 21
15.775660
 31
0.0
  0
LINE
  5
17f
100
AcDbEntity
  8
Layer_1
 62
1
100
AcDbLine
 10
28.380852
 20
15.775660
 30
0.0
 11
28.408681
 21
15.224550
 31
0.0
  0
LINE
  5
180
100
AcDbEntity
  8
Layer_1
 62
1
100
AcDbLine
 10
24.506611
 20
23.126561
 30
0.0
 11
24.499021
 21
22.976260
 31
0.0
  0
LINE
  5
181
100
AcDbEntity
  8
Layer_1
 62
1
100
AcDbLine
 10
24.499021
 20
22.976260
 30
0.0
 11
24.476745
 21
22.830300
 31
0.0
  0
LINE
  5
182
100
AcDbEntity
  8
Layer_1
 62
1
100
AcDbLine
 10
24.476745
 20
22.830300
 30
0.0
 11
24.440521
 21
22.689420
 31
0.0
  0
LINE
  5
183
100
AcDbEntity
  8
Layer_1
 62
1
100
AcDbLine
 10
24.440521
 20
22.689420
 30
0.0
 11
24.391089
 21
22.554360
 31
0.0
  0
LINE
  5
184
100
AcDbEntity
  8
Layer_1
 62
1
100
AcDbLine
 10
24.391089
 20
22.554360
 30
0.0
 11
24.329191
 21
22.425870
 31
0.0
  0
LINE
  5
185
100
AcDbEntity
  8
Layer_1
 62
1
100
AcDbLine
 10
24.329191
 20
22.425870
 30
0.0
 11
24.255554
 21
22.304650
 31
0.0
  0
LINE
  5
186
100
AcDbEntity
  8
Layer_1
 62
1
100
AcDbLine
 10
24.255554
 20
22.304650
 30
0.0
 11
24.170931
 21
22.191490
 31
0.0
  0
LINE
  5
187
100
AcDbEntity
  8
Layer_1
 62
1
100
AcDbLine
 10
24.170931
 20
22.191490
 30
0.0
 11
24.076051
 21
22.087090
 31
0.0
  0
LINE
  5
188
100
AcDbEntity
  8
Layer_1
 62
1
100
AcDbLine
 10
24.076051
 20
22.087090
 30
0.0
 11
23.971661
 21
21.992190
 31
0.0
  0
LINE
  5
189
100
AcDbEntity
  8
Layer_1
 62
1
100
AcDbLine
 10
23.971661
 20
21.992190
 30
0.0
 11
23.858491
 21
21.907590
 31
0.0
  0
LINE
  5
18a
100
AcDbEntity
  8
Layer_1
 62
1
100
AcDbLine
 10
23.858491
 20
21.907590
 30
0.0
 11
23.737292
 21
21.833990
 31
0.0
  0
LINE
  5
18b
100
AcDbEntity
  8
Layer_1
 62
1
100
AcDbLine
 10
23.737292
 20
21.833990
 30
0.0
 11
23.608786
 21
21.772090
 31
0.0
  0
LINE
  5
18c
100
AcDbEntity
  8
Layer_1
 62
1
100
AcDbLine
 10
23.608786
 20
21.772090
 30
0.0
 11
23.473731
 21
21.722690
 31
0.0
  0
LINE
  5
18d
100
AcDbEntity
  8
Layer_1
 62
1
100
AcDbLine
 10
23.473731
 20
21.722690
 30
0.0
 11
23.332846
 21
21.686490
 31
0.0
  0
LINE
  5
18e
100
AcDbEntity
  8
Layer_1
 62
1
100
AcDbLine
 10
23.332846
 20
21.686490
 30
0.0
 11
23.186879
 21
21.664190
 31
0.0
  0
LINE
  5
18f
100
AcDbEntity
  8
Layer_1
 62
1
100
AcDbLine
 10
23.186879
 20
21.664190
 30
0.0
 11
23.036584
 21
21.656190
 31
0.0
  0
LINE
  5
190
100
AcDbEntity
  8
Layer_1
 62
1
100
AcDbLine
 10
23.036584
 20
21.656190
 30
0.0
 11
22.886282
 21
21.664190
 31
0.0
  0
LINE
  5
191
100
AcDbEntity
  8
Layer_1
 62
1
100
AcDbLine
 10
22.886282
 20
21.664190
 30
0.0
 11
22.740322
 21
21.686490
 31
0.0
  0
LINE
  5
192
100
AcDbEntity
  8
Layer_1
 62
1
100
AcDbLine
 10
22.740322
 20
21.686490
 30
0.0
 11
22.599443
 21
21.722690
 31
0.0
  0
LINE
  5
193
100
AcDbEntity
  8
Layer_1
 62
1
100
AcDbLine
 10
22.599443
 20
21.722690
 30
0.0
 11
22.464383
 21
21.772090
 31
0.0
  0
LINE
  5
194
100
AcDbEntity
  8
Layer_1
 62
1
100
AcDbLine
 10
22.464383
 20
21.772090
 30
0.0
 11
22.335868
 21
21.833990
 31
0.0
  0
LINE
  5
195
100
AcDbEntity
  8
Layer_1
 62
1
100
AcDbLine
 10
22.335868
 20
21.833990
 30
0.0
 11
22.214677
 21
21.907690
 31
0.0
  0
LINE
  5
196
100
AcDbEntity
  8
Layer_1
 62
1
100
AcDbLine
 10
22.214677
 20
21.907690
 30
0.0
 11
22.101517
 21
21.992290
 31
0.0
  0
LINE
  5
197
100
AcDbEntity
  8
Layer_1
 62
1
100
AcDbLine
 10
22.101517
 20
21.992290
 30
0.0
 11
21.997117
 21
22.087190
 31
0.0
  0
LINE
  5
198
100
AcDbEntity
  8
Layer_1
 62
1
100
AcDbLine
 10
21.997117
 20
22.087190
 30
0.0
 11
21.902239
 21
22.191580
 31
0.0
  0
LINE
  5
199
100
AcDbEntity
  8
Layer_1
 62
1
100
AcDbLine
 10
21.902239
 20
22.191580
 30
0.0
 11
21.817614
 21
22.304750
 31
0.0
  0
LINE
  5
19a
100
AcDbEntity
  8
Layer_1
 62
1
100
AcDbLine
 10
21.817614
 20
22.304750
 30
0.0
 11
21.743981
 21
22.425950
 31
0.0
  0
LINE
  5
19b
100
AcDbEntity
  8
Layer_1
 62
1
100
AcDbLine
 10
21.743981
 20
22.425950
 30
0.0
 11
21.682079
 21
22.554460
 31
0.0
  0
LINE
  5
19c
100
AcDbEntity
  8
Layer_1
 62
1
100
AcDbLine
 10
21.682079
 20
22.554460
 30
0.0
 11
21.632652
 21
22.689510
 31
0.0
  0
LINE
  5
19d
100
AcDbEntity
  8
Layer_1
 62
1
100
AcDbLine
 10
21.632652
 20
22.689510
 30
0.0
 11
21.596423
 21
22.830400
 31
0.0
  0
LINE
  5
19e
100
AcDbEntity
  8
Layer_1
 62
1
100
AcDbLine
 10
21.596423
 20
22.830400
 30
0.0
 11
21.574147
 21
22.976360
 31
0.0
  0
LINE
  5
19f
100
AcDbEntity
  8
Layer_1
 62
1
100
AcDbLine
 10
21.574147
 20
22.976360
 30
0.0
 11
21.566557
 21
23.126661
 31
0.0
  0
LINE
  5
1a0
100
AcDbEntity
  8
Layer_1
 62
1
100
AcDbLine
 10
21.566557
 20
23.126661
 30
0.0
 11
21.574147
 21
23.276961
 31
0.0
  0
LINE
  5
1a1
100
AcDbEntity
  8
Layer_1
 62
1
100
AcDbLine
 10
21.574147
 20
23.276961
 30
0.0
 11
21.596424
 21
23.422921
 31
0.0
  0
LINE
  5
1a2
100
AcDbEntity
  8
Layer_1
 62
1
100
AcDbLine
 10
21.596424
 20
23.422921
 30
0.0
 11
21.632649
 21
23.563801
 31
0.0
  0
LINE
  5
1a3
100
AcDbEntity
  8
Layer_1
 62
1
100
AcDbLine
 10
21.632649
 20
23.563801
 30
0.0
 11
21.682081
 21
23.698861
 31
0.0
  0
LINE
  5
1a4
100
AcDbEntity
  8
Layer_1
 62
1
100
AcDbLine
 10
21.682081
 20
23.698861
 30
0.0
 11
21.743978
 21
23.827351
 31
0.0
  0
LINE
  5
1a5
100
AcDbEntity
  8
Layer_1
 62
1
100
AcDbLine
 10
21.743978
 20
23.827351
 30
0.0
 11
21.817617
 21
23.948561
 31
0.0
  0
LINE
  5
1a6
100
AcDbEntity
  8
Layer_1
 62
1
100
AcDbLine
 10
21.817617
 20
23.948561
 30
0.0
 11
21.902242
 21
24.061731
 31
0.0
  0
LINE
  5
1a7
100
AcDbEntity
  8
Layer_1
 62
1
100
AcDbLine
 10
21.902242
 20
24.061731
 30
0.0
 11
21.997120
 21
24.166121
 31
0.0
  0
LINE
  5
1a8
100
AcDbEntity
  8
Layer_1
 62
1
100
AcDbLine
 10
21.997120
 20
24.166121
 30
0.0
 11
22.101513
 21
24.261021
 31
0.0
  0
LINE
  5
1a9
100
AcDbEntity
  8
Layer_1
 62
1
100
AcDbLine
 10
22.101513
 20
24.261021
 30
0.0
 11
22.214680
 21
24.345621
 31
0.0
  0
LINE
  5
1aa
100
AcDbEntity
  8
Layer_1
 62
1
100
AcDbLine
 10
22.214680
 20
24.345621
 30
0.0
 11
22.335878
 21
24.419321
 31
0.0
  0
LINE
  5
1ab
100
AcDbEntity
  8
Layer_1
 62
1
100
AcDbLine
 10
22.335878
 20
24.419321
 30
0.0
 11
22.464385
 21
24.481221
 31
0.0
  0
LINE
  5
1ac
100
AcDbEntity
  8
Layer_1
 62
1
100
AcDbLine
 10
22.464385
 20
24.481221
 30
0.0
 11
22.599452
 21
24.530621
 31
0.0
  0
LINE
  5
1ad
100
AcDbEntity
  8
Layer_1
 62
1
100
AcDbLine
 10
22.599452
 20
24.530621
 30
0.0
 11
22.740323
 21
24.566921
 31
0.0
  0
LINE
  5
1ae
100
AcDbEntity
  8
Layer_1
 62
1
100
AcDbLine
 10
22.740323
 20
24.566921
 30
0.0
 11
22.886282
 21
24.589221
 31
0.0
  0
LINE
  5
1af
100
AcDbEntity
  8
Layer_1
 62
1
100
AcDbLine
 10
22.886282
 20
24.589221
 30
0.0
 11
23.036584
 21
24.597221
 31
0.0
  0
LINE
  5
1b0
100
AcDbEntity
  8
Layer_1
 62
1
100
AcDbLine
 10
23.036584
 20
24.597221
 30
0.0
 11
23.186885
 21
24.589221
 31
0.0
  0
LINE
  5
1b1
100
AcDbEntity
  8
Layer_1
 62
1
100
AcDbLine
 10
23.186885
 20
24.589221
 30
0.0
 11
23.332844
 21
24.566921
 31
0.0
  0
LINE
  5
1b2
100
AcDbEntity
  8
Layer_1
 62
1
100
AcDbLine
 10
23.332844
 20
24.566921
 30
0.0
 11
23.473723
 21
24.530721
 31
0.0
  0
LINE
  5
1b3
100
AcDbEntity
  8
Layer_1
 62
1
100
AcDbLine
 10
23.473723
 20
24.530721
 30
0.0
 11
23.608783
 21
24.481221
 31
0.0
  0
LINE
  5
1b4
100
AcDbEntity
  8
Layer_1
 62
1
100
AcDbLine
 10
23.608783
 20
24.481221
 30
0.0
 11
23.737284
 21
24.419321
 31
0.0
  0
LINE
  5
1b5
100
AcDbEntity
  8
Layer_1
 62
1
100
AcDbLine
 10
23.737284
 20
24.419321
 30
0.0
 11
23.858487
 21
24.345721
 31
0.0
  0
LINE
  5
1b6
100
AcDbEntity
  8
Layer_1
 62
1
100
AcDbLine
 10
23.858487
 20
24.345721
 30
0.0
 11
23.971648
 21
24.261121
 31
0.0
  0
LINE
  5
1b7
100
AcDbEntity
  8
Layer_1
 62
1
100
AcDbLine
 10
23.971648
 20
24.261121
 30
0.0
 11
24.076047
 21
24.166221
 31
0.0
  0
LINE
  5
1b8
100
AcDbEntity
  8
Layer_1
 62
1
100
AcDbLine
 10
24.076047
 20
24.166221
 30
0.0
 11
24.170923
 21
24.061831
 31
0.0
  0
LINE
  5
1b9
100
AcDbEntity
  8
Layer_1
 62
1
100
AcDbLine
 10
24.170923
 20
24.061831
 30
0.0
 11
24.255550
 21
23.948661
 31
0.0
  0
LINE
  5
1ba
100
AcDbEntity
  8
Layer_1
 62
1
100
AcDbLine
 10
24.255550
 20
23.948661
 30
0.0
 11
24.329182
 21
23.827461
 31
0.0
  0
LINE
  5
1bb
100
AcDbEntity
  8
Layer_1
 62
1
100
AcDbLine
 10
24.329182
 20
23.827461
 30
0.0
 11
24.391086
 21
23.698961
 31
0.0
  0
LINE
  5
1bc
100
AcDbEntity
  8
Layer_1
 62
1
100
AcDbLine
 10
24.391086
 20
23.698961
 30
0.0
 11
24.440515
 21
23.563911
 31
0.0
  0
LINE
  5
1bd
100
AcDbEntity
  8
Layer_1
 62
1
100
AcDbLine
 10
24.440515
 20
23.563911
 30
0.0
 11
24.476743
 21
23.423021
 31
0.0
  0
LINE
  5
1be
100
AcDbEntity
  8
Layer_1
 62
1
100
AcDbLine
 10
24.476743
 20
23.423021
 30
0.0
 11
24.499019
 21
23.277061
 31
0.0
  0
LINE
  5
1bf
100
AcDbEntity
  8
Layer_1
 62
1
100
AcDbLine
 10
24.499019
 20
23.277061
 30
0.0
 11
24.506611
 21
23.126561
 31
0.0
  0
LINE
  5
1c0
100
AcDbEntity
  8
Layer_1
 62
1
100
AcDbLine
 10
24.506611
 20
7.176550
 30
0.0
 11
24.499021
 21
7.026250
 31
0.0
  0
LINE
  5
1c1
100
AcDbEntity
  8
Layer_1
 62
1
100
AcDbLine
 10
24.499021
 20
7.026250
 30
0.0
 11
24.476745
 21
6.880290
 31
0.0
  0
LINE
  5
1c2
100
AcDbEntity
  8
Layer_1
 62
1
100
AcDbLine
 10
24.476745
 20
6.880290
 30
0.0
 11
24.440521
 21
6.739410
 31
0.0
  0
LINE
  5
1c3
100
AcDbEntity
  8
Layer_1
 62
1
100
AcDbLine
 10
24.440521
 20
6.739410
 30
0.0
 11
24.391089
 21
6.604350
 31
0.0
  0
LINE
  5
1c4
100
AcDbEntity
  8
Layer_1
 62
1
100
AcDbLine
 10
24.391089
 20
6.604350
 30
0.0
 11
24.329191
 21
6.475860
 31
0.0
  0
LINE
  5
1c5
100
AcDbEntity
  8
Layer_1
 62
1
100
AcDbLine
 10
24.329191
 20
6.475860
 30
0.0
 11
24.255554
 21
6.354640
 31
0.0
  0
LINE
  5
1c6
100
AcDbEntity
  8
Layer_1
 62
1
100
AcDbLine
 10
24.255554
 20
6.354640
 30
0.0
 11
24.170931
 21
6.241480
 31
0.0
  0
LINE
  5
1c7
100
AcDbEntity
  8
Layer_1
 62
1
100
AcDbLine
 10
24.170931
 20
6.241480
 30
0.0
 11
24.076051
 21
6.137080
 31
0.0
  0
LINE
  5
1c8
100
AcDbEntity
  8
Layer_1
 62
1
100
AcDbLine
 10
24.076051
 20
6.137080
 30
0.0
 11
23.971661
 21
6.042180
 31
0.0
  0
LINE
  5
1c9
100
AcDbEntity
  8
Layer_1
 62
1
100
AcDbLine
 10
23.971661
 20
6.042180
 30
0.0
 11
23.858491
 21
5.957580
 31
0.0
  0
LINE
  5
1ca
100
AcDbEntity
  8
Layer_1
 62
1
100
AcDbLine
 10
23.858491
 20
5.957580
 30
0.0
 11
23.737292
 21
5.883980
 31
0.0
  0
LINE
  5
1cb
100
AcDbEntity
  8
Layer_1
 62
1
100
AcDbLine
 10
23.737292
 20
5.883980
 30
0.0
 11
23.608786
 21
5.822080
 31
0.0
  0
LINE
  5
1cc
100
AcDbEntity
  8
Layer_1
 62
1
100
AcDbLine
 10
23.608786
 20
5.822080
 30
0.0
 11
23.473731
 21
5.772680
 31
0.0
  0
LINE
  5
1cd
100
AcDbEntity
  8
Layer_1
 62
1
100
AcDbLine
 10
23.473731
 20
5.772680
 30
0.0
 11
23.332846
 21
5.736480
 31
0.0
  0
LINE
  5
1ce
100
AcDbEntity
  8
Layer_1
 62
1
100
AcDbLine
 10
23.332846
 20
5.736480
 30
0.0
 11
23.186879
 21
5.714180
 31
0.0
  0
LINE
  5
1cf
100
AcDbEntity
  8
Layer_1
 62
1
100
AcDbLine
 10
23.186879
 20
5.714180
 30
0.0
 11
23.036584
 21
5.706180
 31
0.0
  0
LINE
  5
1d0
100
AcDbEntity
  8
Layer_1
 62
1
100
AcDbLine
 10
23.036584
 20
5.706180
 30
0.0
 11
22.886282
 21
5.714180
 31
0.0
  0
LINE
  5
1d1
100
AcDbEntity
  8
Layer_1
 62
1
100
AcDbLine
 10
22.886282
 20
5.714180
 30
0.0
 11
22.740322
 21
5.736480
 31
0.0
  0
LINE
  5
1d2
100
AcDbEntity
  8
Layer_1
 62
1
100
AcDbLine
 10
22.740322
 20
5.736480
 30
0.0
 11
22.599443
 21
5.772680
 31
0.0
  0
LINE
  5
1d3
100
AcDbEntity
  8
Layer_1
 62
1
100
AcDbLine
 10
22.599443
 20
5.772680
 30
0.0
 11
22.464383
 21
5.822080
 31
0.0
  0
LINE
  5
1d4
100
AcDbEntity
  8
Layer_1
 62
1
100
AcDbLine
 10
22.464383
 20
5.822080
 30
0.0
 11
22.335868
 21
5.883980
 31
0.0
  0
LINE
  5
1d5
100
AcDbEntity
  8
Layer_1
 62
1
100
AcDbLine
 10
22.335868
 20
5.883980
 30
0.0
 11
22.214677
 21
5.957680
 31
0.0
  0
LINE
  5
1d6
100
AcDbEntity
  8
Layer_1
 62
1
100
AcDbLine
 10
22.214677
 20
5.957680
 30
0.0
 11
22.101517
 21
6.042280
 31
0.0
  0
LINE
  5
1d7
100
AcDbEntity
  8
Layer_1
 62
1
100
AcDbLine
 10
22.101517
 20
6.042280
 30
0.0
 11
21.997117
 21
6.137180
 31
0.0
  0
LINE
  5
1d8
100
AcDbEntity
  8
Layer_1
 62
1
100
AcDbLine
 10
21.997117
 20
6.137180
 30
0.0
 11
21.902239
 21
6.241570
 31
0.0
  0
LINE
  5
1d9
100
AcDbEntity
  8
Layer_1
 62
1
100
AcDbLine
 10
21.902239
 20
6.241570
 30
0.0
 11
21.817614
 21
6.354740
 31
0.0
  0
LINE
  5
1da
100
AcDbEntity
  8
Layer_1
 62
1
100
AcDbLine
 10
21.817614
 20
6.354740
 30
0.0
 11
21.743981
 21
6.475940
 31
0.0
  0
LINE
  5
1db
100
AcDbEntity
  8
Layer_1
 62
1
100
AcDbLine
 10
21.743981
 20
6.475940
 30
0.0
 11
21.682079
 21
6.604450
 31
0.0
  0
LINE
  5
1dc
100
AcDbEntity
  8
Layer_1
 62
1
100
AcDbLine
 10
21.682079
 20
6.604450
 30
0.0
 11
21.632652
 21
6.739500
 31
0.0
  0
LINE
  5
1dd
100
AcDbEntity
  8
Layer_1
 62
1
100
AcDbLine
 10
21.632652
 20
6.739500
 30
0.0
 11
21.596423
 21
6.880390
 31
0.0
  0
LINE
  5
1de
100
AcDbEntity
  8
Layer_1
 62
1
100
AcDbLine
 10
21.596423
 20
6.880390
 30
0.0
 11
21.574147
 21
7.026350
 31
0.0
  0
LINE
  5
1df
100
AcDbEntity
  8
Layer_1
 62
1
100
AcDbLine
 10
21.574147
 20
7.026350
 30
0.0
 11
21.566557
 21
7.176650
 31
0.0
  0
LINE
  5
1e0
100
AcDbEntity
  8
Layer_1
 62
1
100
AcDbLine
 10
21.566557
 20
7.176650
 30
0.0
 11
21.574147
 21
7.326950
 31
0.0
  0
LINE
  5
1e1
100
AcDbEntity
  8
Layer_1
 62
1
100
AcDbLine
 10
21.574147
 20
7.326950
 30
0.0
 11
21.596424
 21
7.472910
 31
0.0
  0
LINE
  5
1e2
100
AcDbEntity
  8
Layer_1
 62
1
100
AcDbLine
 10
21.596424
 20
7.472910
 30
0.0
 11
21.632649
 21
7.613790
 31
0.0
  0
LINE
  5
1e3
100
AcDbEntity
  8
Layer_1
 62
1
100
AcDbLine
 10
21.632649
 20
7.613790
 30
0.0
 11
21.682081
 21
7.748850
 31
0.0
  0
LINE
  5
1e4
100
AcDbEntity
  8
Layer_1
 62
1
100
AcDbLine
 10
21.682081
 20
7.748850
 30
0.0
 11
21.743978
 21
7.877340
 31
0.0
  0
LINE
  5
1e5
100
AcDbEntity
  8
Layer_1
 62
1
100
AcDbLine
 10
21.743978
 20
7.877340
 30
0.0
 11
21.817617
 21
7.998550
 31
0.0
  0
LINE
  5
1e6
100
AcDbEntity
  8
Layer_1
 62
1
100
AcDbLine
 10
21.817617
 20
7.998550
 30
0.0
 11
21.902242
 21
8.111720
 31
0.0
  0
LINE
  5
1e7
100
AcDbEntity
  8
Layer_1
 62
1
100
AcDbLine
 10
21.902242
 20
8.111720
 30
0.0
 11
21.997120
 21
8.216110
 31
0.0
  0
LINE
  5
1e8
100
AcDbEntity
  8
Layer_1
 62
1
100
AcDbLine
 10
21.997120
 20
8.216110
 30
0.0
 11
22.101513
 21
8.311010
 31
0.0
  0
LINE
  5
1e9
100
AcDbEntity
  8
Layer_1
 62
1
100
AcDbLine
 10
22.101513
 20
8.311010
 30
0.0
 11
22.214680
 21
8.395610
 31
0.0
  0
LINE
  5
1ea
100
AcDbEntity
  8
Layer_1
 62
1
100
AcDbLine
 10
22.214680
 20
8.395610
 30
0.0
 11
22.335878
 21
8.469210
 31
0.0
  0
LINE
  5
1eb
100
AcDbEntity
  8
Layer_1
 62
1
100
AcDbLine
 10
22.335878
 20
8.469210
 30
0.0
 11
22.464385
 21
8.531110
 31
0.0
  0
LINE
  5
1ec
100
AcDbEntity
  8
Layer_1
 62
1
100
AcDbLine
 10
22.464385
 20
8.531110
 30
0.0
 11
22.599439
 21
8.580510
 31
0.0
  0
LINE
  5
1ed
100
AcDbEntity
  8
Layer_1
 62
1
100
AcDbLine
 10
22.599439
 20
8.580510
 30
0.0
 11
22.740323
 21
8.616710
 31
0.0
  0
LINE
  5
1ee
100
AcDbEntity
  8
Layer_1
 62
1
100
AcDbLine
 10
22.740323
 20
8.616710
 30
0.0
 11
22.886290
 21
8.639010
 31
0.0
  0
LINE
  5
1ef
100
AcDbEntity
  8
Layer_1
 62
1
100
AcDbLine
 10
22.886290
 20
8.639010
 30
0.0
 11
23.036584
 21
8.647010
 31
0.0
  0
LINE
  5
1f0
100
AcDbEntity
  8
Layer_1
 62
1
100
AcDbLine
 10
23.036584
 20
8.647010
 30
0.0
 11
23.186885
 21
8.639010
 31
0.0
  0
LINE
  5
1f1
100
AcDbEntity
  8
Layer_1
 62
1
100
AcDbLine
 10
23.186885
 20
8.639010
 30
0.0
 11
23.332844
 21
8.616710
 31
0.0
  0
LINE
  5
1f2
100
AcDbEntity
  8
Layer_1
 62
1
100
AcDbLine
 10
23.332844
 20
8.616710
 30
0.0
 11
23.473723
 21
8.580510
 31
0.0
  0
LINE
  5
1f3
100
AcDbEntity
  8
Layer_1
 62
1
100
AcDbLine
 10
23.473723
 20
8.580510
 30
0.0
 11
23.608783
 21
8.531110
 31
0.0
  0
LINE
  5
1f4
100
AcDbEntity
  8
Layer_1
 62
1
100
AcDbLine
 10
23.608783
 20
8.531110
 30
0.0
 11
23.737297
 21
8.469210
 31
0.0
  0
LINE
  5
1f5
100
AcDbEntity
  8
Layer_1
 62
1
100
AcDbLine
 10
23.737297
 20
8.469210
 30
0.0
 11
23.858487
 21
8.395510
 31
0.0
  0
LINE
  5
1f6
100
AcDbEntity
  8
Layer_1
 62
1
100
AcDbLine
 10
23.858487
 20
8.395510
 30
0.0
 11
23.971648
 21
8.310910
 31
0.0
  0
LINE
  5
1f7
100
AcDbEntity
  8
Layer_1
 62
1
100
AcDbLine
 10
23.971648
 20
8.310910
 30
0.0
 11
24.076047
 21
8.216010
 31
0.0
  0
LINE
  5
1f8
100
AcDbEntity
  8
Layer_1
 62
1
100
AcDbLine
 10
24.076047
 20
8.216010
 30
0.0
 11
24.170923
 21
8.111620
 31
0.0
  0
LINE
  5
1f9
100
AcDbEntity
  8
Layer_1
 62
1
100
AcDbLine
 10
24.170923
 20
8.111620
 30
0.0
 11
24.255550
 21
7.998450
 31
0.0
  0
LINE
  5
1fa
100
AcDbEntity
  8
Layer_1
 62
1
100
AcDbLine
 10
24.255550
 20
7.998450
 30
0.0
 11
24.329182
 21
7.877250
 31
0.0
  0
LINE
  5
1fb
100
AcDbEntity
  8
Layer_1
 62
1
100
AcDbLine
 10
24.329182
 20
7.877250
 30
0.0
 11
24.391086
 21
7.748750
 31
0.0
  0
LINE
  5
1fc
100
AcDbEntity
  8
Layer_1
 62
1
100
AcDbLine
 10
24.391086
 20
7.748750
 30
0.0
 11
24.440515
 21
7.613700
 31
0.0
  0
LINE
  5
1fd
100
AcDbEntity
  8
Layer_1
 62
1
100
AcDbLine
 10
24.440515
 20
7.613700
 30
0.0
 11
24.476743
 21
7.472810
 31
0.0
  0
LINE
  5
1fe
100
AcDbEntity
  8
Layer_1
 62
1
100
AcDbLine
 10
24.476743
 20
7.472810
 30
0.0
 11
24.499019
 21
7.326850
 31
0.0
  0
LINE
  5
1ff
100
AcDbEntity
  8
Layer_1
 62
1
100
AcDbLine
 10
24.499019
 20
7.326850
 30
0.0
 11
24.506611
 21
7.176550
 31
0.0
  0
LINE
  5
200
100
AcDbEntity
  8
Layer_1
 62
1
100
AcDbLine
 10
45.993472
 20
23.000001
 30
0.0
 11
45.874759
 21
20.649050
 31
0.0
  0
LINE
  5
201
100
AcDbEntity
  8
Layer_1
 62
1
100
AcDbLine
 10
45.874759
 20
20.649050
 30
0.0
 11
45.526327
 21
18.366010
 31
0.0
  0
LINE
  5
202
100
AcDbEntity
  8
Layer_1
 62
1
100
AcDbLine
 10
45.526327
 20
18.366010
 30
0.0
 11
44.959732
 21
16.162440
 31
0.0
  0
LINE
  5
203
100
AcDbEntity
  8
Layer_1
 62
1
100
AcDbLine
 10
44.959732
 20
16.162440
 30
0.0
 11
44.186532
 21
14.049900
 31
0.0
  0
LINE
  5
204
100
AcDbEntity
  8
Layer_1
 62
1
100
AcDbLine
 10
44.186532
 20
14.049900
 30
0.0
 11
43.218286
 21
12.039940
 31
0.0
  0
LINE
  5
205
100
AcDbEntity
  8
Layer_1
 62
1
100
AcDbLine
 10
43.218286
 20
12.039940
 30
0.0
 11
42.066550
 21
10.144130
 31
0.0
  0
LINE
  5
206
100
AcDbEntity
  8
Layer_1
 62
1
100
AcDbLine
 10
42.066550
 20
10.144130
 30
0.0
 11
40.742883
 21
8.374020
 31
0.0
  0
LINE
  5
207
100
AcDbEntity
  8
Layer_1
 62
1
100
AcDbLine
 10
40.742883
 20
8.374020
 30
0.0
 11
39.258842
 21
6.741160
 31
0.0
  0
LINE
  5
208
100
AcDbEntity
  8
Layer_1
 62
1
100
AcDbLine
 10
39.258842
 20
6.741160
 30
0.0
 11
37.625985
 21
5.257120
 31
0.0
  0
LINE
  5
209
100
AcDbEntity
  8
Layer_1
 62
1
100
AcDbLine
 10
37.625985
 20
5.257120
 30
0.0
 11
35.855871
 21
3.933450
 31
0.0
  0
LINE
  5
20a
100
AcDbEntity
  8
Layer_1
 62
1
100
AcDbLine
 10
35.855871
 20
3.933450
 30
0.0
 11
33.960056
 21
2.781720
 31
0.0
  0
LINE
  5
20b
100
AcDbEntity
  8
Layer_1
 62
1
100
AcDbLine
 10
33.960056
 20
2.781720
 30
0.0
 11
31.950099
 21
1.813470
 31
0.0
  0
LINE
  5
20c
100
AcDbEntity
  8
Layer_1
 62
1
100
AcDbLine
 10
31.950099
 20
1.813470
 30
0.0
 11
29.837557
 21
1.040270
 31
0.0
  0
LINE
  5
20d
100
AcDbEntity
  8
Layer_1
 62
1
100
AcDbLine
 10
29.837557
 20
1.040270
 30
0.0
 11
27.633989
 21
0.473680
 31
0.0
  0
LINE
  5
20e
100
AcDbEntity
  8
Layer_1
 62
1
100
AcDbLine
 10
27.633989
 20
0.473680
 30
0.0
 11
25.350950
 21
0.125250
 31
0.0
  0
LINE
  5
20f
100
AcDbEntity
  8
Layer_1
 62
1
100
AcDbLine
 10
25.350950
 20
0.125250
 30
0.0
 11
23.000002
 21
0.006530
 31
0.0
  0
LINE
  5
210
100
AcDbEntity
  8
Layer_1
 62
1
100
AcDbLine
 10
23.000002
 20
0.006530
 30
0.0
 11
20.649053
 21
0.125240
 31
0.0
  0
LINE
  5
211
100
AcDbEntity
  8
Layer_1
 62
1
100
AcDbLine
 10
20.649053
 20
0.125240
 30
0.0
 11
18.366015
 21
0.473680
 31
0.0
  0
LINE
  5
212
100
AcDbEntity
  8
Layer_1
 62
1
100
AcDbLine
 10
18.366015
 20
0.473680
 30
0.0
 11
16.162448
 21
1.040270
 31
0.0
  0
LINE
  5
213
100
AcDbEntity
  8
Layer_1
 62
1
100
AcDbLine
 10
16.162448
 20
1.040270
 30
0.0
 11
14.049905
 21
1.813470
 31
0.0
  0
LINE
  5
214
100
AcDbEntity
  8
Layer_1
 62
1
100
AcDbLine
 10
14.049905
 20
1.813470
 30
0.0
 11
12.039948
 21
2.781720
 31
0.0
  0
LINE
  5
215
100
AcDbEntity
  8
Layer_1
 62
1
100
AcDbLine
 10
12.039948
 20
2.781720
 30
0.0
 11
10.144133
 21
3.933450
 31
0.0
  0
LINE
  5
216
100
AcDbEntity
  8
Layer_1
 62
1
100
AcDbLine
 10
10.144133
 20
3.933450
 30
0.0
 11
8.374017
 21
5.257120
 31
0.0
  0
LINE
  5
217
100
AcDbEntity
  8
Layer_1
 62
1
100
AcDbLine
 10
8.374017
 20
5.257120
 30
0.0
 11
6.741162
 21
6.741160
 31
0.0
  0
LINE
  5
218
100
AcDbEntity
  8
Layer_1
 62
1
100
AcDbLine
 10
6.741162
 20
6.741160
 30
0.0
 11
5.257121
 21
8.374020
 31
0.0
  0
LINE
  5
219
100
AcDbEntity
  8
Layer_1
 62
1
100
AcDbLine
 10
5.257121
 20
8.374020
 30
0.0
 11
3.933454
 21
10.144130
 31
0.0
  0
LINE
  5
21a
100
AcDbEntity
  8
Layer_1
 62
1
100
AcDbLine
 10
3.933454
 20
10.144130
 30
0.0
 11
2.781718
 21
12.039940
 31
0.0
  0
LINE
  5
21b
100
AcDbEntity
  8
Layer_1
 62
1
100
AcDbLine
 10
2.781718
 20
12.039940
 30
0.0
 11
1.813472
 21
14.049900
 31
0.0
  0
LINE
  5
21c
100
AcDbEntity
  8
Layer_1
 62
1
100
AcDbLine
 10
1.813472
 20
14.049900
 30
0.0
 11
1.040273
 21
16.162440
 31
0.0
  0
LINE
  5
21d
100
AcDbEntity
  8
Layer_1
 62
1
100
AcDbLine
 10
1.040273
 20
16.162440
 30
0.0
 11
0.473677
 21
18.366010
 31
0.0
  0
LINE
  5
21e
100
AcDbEntity
  8
Layer_1
 62
1
100
AcDbLine
 10
0.473677
 20
18.366010
 30
0.0
 11
0.125244
 21
20.649050
 31
0.0
  0
LINE
  5
21f
100
AcDbEntity
  8
Layer_1
 62
1
100
AcDbLine
 10
0.125244
 20
20.649050
 30
0.0
 11
0.006532
 21
23.000001
 31
0.0
  0
LINE
  5
220
100
AcDbEntity
  8
Layer_1
 62
1
100
AcDbLine
 10
0.006532
 20
23.000001
 30
0.0
 11
0.125245
 21
25.350951
 31
0.0
  0
LINE
  5
221
100
AcDbEntity
  8
Layer_1
 62
1
100
AcDbLine
 10
0.125245
 20
25.350951
 30
0.0
 11
0.473678
 21
27.633991
 31
0.0
  0
LINE
  5
222
100
AcDbEntity
  8
Layer_1
 62
1
100
AcDbLine
 10
0.473678
 20
27.633991
 30
0.0
 11
1.040274
 21
29.837561
 31
0.0
  0
LINE
  5
223
100
AcDbEntity
  8
Layer_1
 62
1
100
AcDbLine
 10
1.040274
 20
29.837561
 30
0.0
 11
1.813473
 21
31.950101
 31
0.0
  0
LINE
  5
224
100
AcDbEntity
  8
Layer_1
 62
1
100
AcDbLine
 10
1.813473
 20
31.950101
 30
0.0
 11
2.781720
 21
33.960061
 31
0.0
  0
LINE
  5
225
100
AcDbEntity
  8
Layer_1
 62
1
100
AcDbLine
 10
2.781720
 20
33.960061
 30
0.0
 11
3.933456
 21
35.855871
 31
0.0
  0
LINE
  5
226
100
AcDbEntity
  8
Layer_1
 62
1
100
AcDbLine
 10
3.933456
 20
35.855871
 30
0.0
 11
5.257123
 21
37.625981
 31
0.0
  0
LINE
  5
227
100
AcDbEntity
  8
Layer_1
 62
1
100
AcDbLine
 10
5.257123
 20
37.625981
 30
0.0
 11
6.741164
 21
39.258841
 31
0.0
  0
LINE
  5
228
100
AcDbEntity
  8
Layer_1
 62
1
100
AcDbLine
 10
6.741164
 20
39.258841
 30
0.0
 11
8.374020
 21
40.742881
 31
0.0
  0
LINE
  5
229
100
AcDbEntity
  8
Layer_1
 62
1
100
AcDbLine
 10
8.374020
 20
40.742881
 30
0.0
 11
10.144134
 21
42.066551
 31
0.0
  0
LINE
  5
22a
100
AcDbEntity
  8
Layer_1
 62
1
100
AcDbLine
 10
10.144134
 20
42.066551
 30
0.0
 11
12.039949
 21
43.218281
 31
0.0
  0
LINE
  5
22b
100
AcDbEntity
  8
Layer_1
 62
1
100
AcDbLine
 10
12.039949
 20
43.218281
 30
0.0
 11
14.049906
 21
44.186531
 31
0.0
  0
LINE
  5
22c
100
AcDbEntity
  8
Layer_1
 62
1
100
AcDbLine
 10
14.049906
 20
44.186531
 30
0.0
 11
16.162447
 21
44.959731
 31
0.0
  0
LINE
  5
22d
100
AcDbEntity
  8
Layer_1
 62
1
100
AcDbLine
 10
16.162447
 20
44.959731
 30
0.0
 11
18.366016
 21
45.526321
 31
0.0
  0
LINE
  5
22e
100
AcDbEntity
  8
Layer_1
 62
1
100
AcDbLine
 10
18.366016
 20
45.526321
 30
0.0
 11
20.649054
 21
45.874751
 31
0.0
  0
LINE
  5
22f
100
AcDbEntity
  8
Layer_1
 62
1
100
AcDbLine
 10
20.649054
 20
45.874751
 30
0.0
 11
23.000002
 21
45.993471
 31
0.0
  0
LINE
  5
230
100
AcDbEntity
  8
Layer_1
 62
1
100
AcDbLine
 10
23.000002
 20
45.993471
 30
0.0
 11
25.350951
 21
45.874761
 31
0.0
  0
LINE
  5
231
100
AcDbEntity
  8
Layer_1
 62
1
100
AcDbLine
 10
25.350951
 20
45.874761
 30
0.0
 11
27.633989
 21
45.526321
 31
0.0
  0
LINE
  5
232
100
AcDbEntity
  8
Layer_1
 62
1
100
AcDbLine
 10
27.633989
 20
45.526321
 30
0.0
 11
29.837556
 21
44.959731
 31
0.0
  0
LINE
  5
233
100
AcDbEntity
  8
Layer_1
 62
1
100
AcDbLine
 10
29.837556
 20
44.959731
 30
0.0
 11
31.950098
 21
44.186531
 31
0.0
  0
LINE
  5
234
100
AcDbEntity
  8
Layer_1
 62
1
100
AcDbLine
 10
31.950098
 20
44.186531
 30
0.0
 11
33.960056
 21
43.218281
 31
0.0
  0
LINE
  5
235
100
AcDbEntity
  8
Layer_1
 62
1
100
AcDbLine
 10
33.960056
 20
43.218281
 30
0.0
 11
35.855870
 21
42.066551
 31
0.0
  0
LINE
  5
236
100
AcDbEntity
  8
Layer_1
 62
1
100
AcDbLine
 10
35.855870
 20
42.066551
 30
0.0
 11
37.625986
 21
40.742881
 31
0.0
  0
LINE
  5
237
100
AcDbEntity
  8
Layer_1
 62
1
100
AcDbLine
 10
37.625986
 20
40.742881
 30
0.0
 11
39.258841
 21
39.258841
 31
0.0
  0
LINE
  5
238
100
AcDbEntity
  8
Layer_1
 62
1
100
AcDbLine
 10
39.258841
 20
39.258841
 30
0.0
 11
40.742881
 21
37.625981
 31
0.0
  0
LINE
  5
239
100
AcDbEntity
  8
Layer_1
 62
1
100
AcDbLine
 10
40.742881
 20
37.625981
 30
0.0
 11
42.066548
 21
35.855871
 31
0.0
  0
LINE
  5
23a
100
AcDbEntity
  8
Layer_1
 62
1
100
AcDbLine
 10
42.066548
 20
35.855871
 30
0.0
 11
43.218284
 21
33.960061
 31
0.0
  0
LINE
  5
23b
100
AcDbEntity
  8
Layer_1
 62
1
100
AcDbLine
 10
43.218284
 20
33.960061
 30
0.0
 11
44.186531
 21
31.950101
 31
0.0
  0
LINE
  5
23c
100
AcDbEntity
  8
Layer_1
 62
1
100
AcDbLine
 10
44.186531
 20
31.950101
 30
0.0
 11
44.959731
 21
29.837561
 31
0.0
  0
LINE
  5
23d
100
AcDbEntity
  8
Layer_1
 62
1
100
AcDbLine
 10
44.959731
 20
29.837561
 30
0.0
 11
45.526326
 21
27.633991
 31
0.0
  0
LINE
  5
23e
100
AcDbEntity
  8
Layer_1
 62
1
100
AcDbLine
 10
45.526326
 20
27.633991
 30
0.0
 11
45.874759
 21
25.350951
 31
0.0
  0
LINE
  5
23f
100
AcDbEntity
  8
Layer_1
 62
1
100
AcDbLine
 10
45.874759
 20
25.350951
 30
0.0
 11
45.993472
 21
23.000001
 31
0.0
  0
ENDSEC
  0
SECTION
  2
OBJECTS
  0
DICTIONARY
  5
C
330
0
100
AcDbDictionary
  3
ACAD_GROUP
350
D
  3
ACAD_MLINESTYLE
350
17
  0
DICTIONARY
  5
D
330
C
100
AcDbDictionary
  0
DICTIONARY
  5
1A
330
C
100
AcDbDictionary
  0
DICTIONARY
  5
17
330
C
100
AcDbDictionary
  3
STANDARD
350
18
  0
DICTIONARY
  5
19
330
C
100
AcDbDictionary
  0
ENDSEC
  0
EOF
